ISO-10303-21;
HEADER;
/* Generated by software containing ST-Developer
 * from STEP Tools, Inc. (www.steptools.com) 
 */

FILE_DESCRIPTION(
/* description */ (''),
/* implementation_level */ '2;1');

FILE_NAME(
/* name */ 'Left Top.step',
/* time_stamp */ '2024-11-14T15:47:10+08:00',
/* author */ (''),
/* organization */ (''),
/* preprocessor_version */ 'ST-DEVELOPER v20',
/* originating_system */ 'Autodesk Translation Framework v13.20.0.188',

/* authorisation */ '');

FILE_SCHEMA (('AUTOMOTIVE_DESIGN { 1 0 10303 214 3 1 1 }'));
ENDSEC;

DATA;
#10=MECHANICAL_DESIGN_GEOMETRIC_PRESENTATION_REPRESENTATION('',(#17),#1721);
#11=ITEM_DEFINED_TRANSFORMATION($,$,#1013,#1124);
#12=(
REPRESENTATION_RELATIONSHIP($,$,#1732,#1731)
REPRESENTATION_RELATIONSHIP_WITH_TRANSFORMATION(#11)
SHAPE_REPRESENTATION_RELATIONSHIP()
);
#13=CONTEXT_DEPENDENT_SHAPE_REPRESENTATION(#12,#1730);
#14=NEXT_ASSEMBLY_USAGE_OCCURRENCE('MiniSB X Carriage V3 v1:1',
'MiniSB X Carriage V3 v1:1','MiniSB X Carriage V3 v1:1',#1734,#1735,
'MiniSB X Carriage V3 v1:1');
#15=SHAPE_REPRESENTATION_RELATIONSHIP('SRR','None',#1732,#16);
#16=ADVANCED_BREP_SHAPE_REPRESENTATION('',(#18),#1720);
#17=STYLED_ITEM('',(#1746),#18);
#18=MANIFOLD_SOLID_BREP('\X2\5B9E4F53\X0\3',#999);
#19=FACE_BOUND('',#189,.T.);
#20=FACE_BOUND('',#190,.T.);
#21=FACE_BOUND('',#191,.T.);
#22=FACE_BOUND('',#192,.T.);
#23=FACE_BOUND('',#193,.T.);
#24=FACE_BOUND('',#194,.T.);
#25=FACE_BOUND('',#195,.T.);
#26=FACE_BOUND('',#196,.T.);
#27=FACE_BOUND('',#197,.T.);
#28=FACE_BOUND('',#198,.T.);
#29=FACE_BOUND('',#220,.T.);
#30=FACE_BOUND('',#221,.T.);
#31=FACE_BOUND('',#222,.T.);
#32=FACE_BOUND('',#223,.T.);
#33=FACE_BOUND('',#224,.T.);
#34=FACE_BOUND('',#225,.T.);
#35=FACE_BOUND('',#226,.T.);
#36=FACE_BOUND('',#227,.T.);
#37=FACE_BOUND('',#228,.T.);
#38=FACE_BOUND('',#229,.T.);
#39=FACE_BOUND('',#241,.T.);
#40=FACE_BOUND('',#243,.T.);
#41=FACE_BOUND('',#245,.T.);
#42=FACE_BOUND('',#247,.T.);
#43=CIRCLE('',#1016,2.62128008413842);
#44=CIRCLE('',#1017,2.62128008413842);
#45=CIRCLE('',#1020,2.5000000372529);
#46=CIRCLE('',#1021,2.5000000372529);
#47=CIRCLE('',#1023,58.5);
#48=CIRCLE('',#1024,58.5);
#49=CIRCLE('',#1026,4.00000005960464);
#50=CIRCLE('',#1027,4.00000005960464);
#51=CIRCLE('',#1029,1.5);
#52=CIRCLE('',#1030,2.65);
#53=CIRCLE('',#1031,2.65);
#54=CIRCLE('',#1032,2.6);
#55=CIRCLE('',#1033,1.65);
#56=CIRCLE('',#1034,2.6);
#57=CIRCLE('',#1035,1.65);
#58=CIRCLE('',#1036,1.50000002235174);
#59=CIRCLE('',#1037,1.50000002235174);
#60=CIRCLE('',#1038,71.5);
#61=CIRCLE('',#1039,3.23802798879359);
#62=CIRCLE('',#1040,14.5);
#63=CIRCLE('',#1041,4.64285721204111);
#64=CIRCLE('',#1042,16.);
#65=CIRCLE('',#1043,3.00000004470348);
#66=CIRCLE('',#1044,44.2315726999315);
#67=CIRCLE('',#1045,2.5);
#68=CIRCLE('',#1046,6.38669097493955);
#69=CIRCLE('',#1047,58.5);
#70=CIRCLE('',#1048,2.00000002980232);
#71=CIRCLE('',#1049,2.00000002980232);
#72=CIRCLE('',#1051,58.5);
#73=CIRCLE('',#1053,2.00000002980232);
#74=CIRCLE('',#1055,2.5);
#75=CIRCLE('',#1057,44.2315726999315);
#76=CIRCLE('',#1059,71.5);
#77=CIRCLE('',#1061,3.23802798879359);
#78=CIRCLE('',#1063,14.5);
#79=CIRCLE('',#1065,4.64285721204111);
#80=CIRCLE('',#1067,16.);
#81=CIRCLE('',#1069,2.00000002980232);
#82=CIRCLE('',#1072,6.38669097493955);
#83=CIRCLE('',#1074,3.00000004470348);
#84=CIRCLE('',#1077,1.50000002235174);
#85=CIRCLE('',#1080,1.50000002235174);
#86=CIRCLE('',#1082,1.5);
#87=CIRCLE('',#1086,2.6);
#88=CIRCLE('',#1087,2.6);
#89=CIRCLE('',#1088,4.9);
#90=CIRCLE('',#1089,4.9);
#91=CIRCLE('',#1090,3.);
#92=CIRCLE('',#1091,3.);
#93=CIRCLE('',#1099,1.65);
#94=CIRCLE('',#1101,2.65);
#95=CIRCLE('',#1103,2.65);
#96=CIRCLE('',#1105,1.65);
#97=CIRCLE('',#1107,4.9);
#98=CIRCLE('',#1109,4.9);
#99=CIRCLE('',#1111,3.);
#100=CIRCLE('',#1113,3.);
#101=CYLINDRICAL_SURFACE('',#1015,2.62128008413842);
#102=CYLINDRICAL_SURFACE('',#1019,2.5000000372529);
#103=CYLINDRICAL_SURFACE('',#1022,58.5);
#104=CYLINDRICAL_SURFACE('',#1025,4.00000005960464);
#105=CYLINDRICAL_SURFACE('',#1050,58.5);
#106=CYLINDRICAL_SURFACE('',#1052,2.00000002980232);
#107=CYLINDRICAL_SURFACE('',#1054,2.5);
#108=CYLINDRICAL_SURFACE('',#1056,44.2315726999315);
#109=CYLINDRICAL_SURFACE('',#1058,71.5);
#110=CYLINDRICAL_SURFACE('',#1060,3.23802798879359);
#111=CYLINDRICAL_SURFACE('',#1062,14.5);
#112=CYLINDRICAL_SURFACE('',#1064,4.64285721204111);
#113=CYLINDRICAL_SURFACE('',#1066,16.);
#114=CYLINDRICAL_SURFACE('',#1068,2.00000002980232);
#115=CYLINDRICAL_SURFACE('',#1071,6.38669097493955);
#116=CYLINDRICAL_SURFACE('',#1073,3.00000004470348);
#117=CYLINDRICAL_SURFACE('',#1076,1.50000002235174);
#118=CYLINDRICAL_SURFACE('',#1079,1.50000002235174);
#119=CYLINDRICAL_SURFACE('',#1081,1.5);
#120=CYLINDRICAL_SURFACE('',#1098,1.65);
#121=CYLINDRICAL_SURFACE('',#1100,2.65);
#122=CYLINDRICAL_SURFACE('',#1102,2.65);
#123=CYLINDRICAL_SURFACE('',#1104,1.65);
#124=CYLINDRICAL_SURFACE('',#1118,2.6);
#125=CYLINDRICAL_SURFACE('',#1119,2.6);
#126=CYLINDRICAL_SURFACE('',#1120,4.9);
#127=CYLINDRICAL_SURFACE('',#1121,4.9);
#128=CYLINDRICAL_SURFACE('',#1122,3.);
#129=CYLINDRICAL_SURFACE('',#1123,3.);
#130=FACE_OUTER_BOUND('',#182,.T.);
#131=FACE_OUTER_BOUND('',#183,.T.);
#132=FACE_OUTER_BOUND('',#184,.T.);
#133=FACE_OUTER_BOUND('',#185,.T.);
#134=FACE_OUTER_BOUND('',#186,.T.);
#135=FACE_OUTER_BOUND('',#187,.T.);
#136=FACE_OUTER_BOUND('',#188,.T.);
#137=FACE_OUTER_BOUND('',#199,.T.);
#138=FACE_OUTER_BOUND('',#200,.T.);
#139=FACE_OUTER_BOUND('',#201,.T.);
#140=FACE_OUTER_BOUND('',#202,.T.);
#141=FACE_OUTER_BOUND('',#203,.T.);
#142=FACE_OUTER_BOUND('',#204,.T.);
#143=FACE_OUTER_BOUND('',#205,.T.);
#144=FACE_OUTER_BOUND('',#206,.T.);
#145=FACE_OUTER_BOUND('',#207,.T.);
#146=FACE_OUTER_BOUND('',#208,.T.);
#147=FACE_OUTER_BOUND('',#209,.T.);
#148=FACE_OUTER_BOUND('',#210,.T.);
#149=FACE_OUTER_BOUND('',#211,.T.);
#150=FACE_OUTER_BOUND('',#212,.T.);
#151=FACE_OUTER_BOUND('',#213,.T.);
#152=FACE_OUTER_BOUND('',#214,.T.);
#153=FACE_OUTER_BOUND('',#215,.T.);
#154=FACE_OUTER_BOUND('',#216,.T.);
#155=FACE_OUTER_BOUND('',#217,.T.);
#156=FACE_OUTER_BOUND('',#218,.T.);
#157=FACE_OUTER_BOUND('',#219,.T.);
#158=FACE_OUTER_BOUND('',#230,.T.);
#159=FACE_OUTER_BOUND('',#231,.T.);
#160=FACE_OUTER_BOUND('',#232,.T.);
#161=FACE_OUTER_BOUND('',#233,.T.);
#162=FACE_OUTER_BOUND('',#234,.T.);
#163=FACE_OUTER_BOUND('',#235,.T.);
#164=FACE_OUTER_BOUND('',#236,.T.);
#165=FACE_OUTER_BOUND('',#237,.T.);
#166=FACE_OUTER_BOUND('',#238,.T.);
#167=FACE_OUTER_BOUND('',#239,.T.);
#168=FACE_OUTER_BOUND('',#240,.T.);
#169=FACE_OUTER_BOUND('',#242,.T.);
#170=FACE_OUTER_BOUND('',#244,.T.);
#171=FACE_OUTER_BOUND('',#246,.T.);
#172=FACE_OUTER_BOUND('',#248,.T.);
#173=FACE_OUTER_BOUND('',#249,.T.);
#174=FACE_OUTER_BOUND('',#250,.T.);
#175=FACE_OUTER_BOUND('',#251,.T.);
#176=FACE_OUTER_BOUND('',#252,.T.);
#177=FACE_OUTER_BOUND('',#253,.T.);
#178=FACE_OUTER_BOUND('',#254,.T.);
#179=FACE_OUTER_BOUND('',#255,.T.);
#180=FACE_OUTER_BOUND('',#256,.T.);
#181=FACE_OUTER_BOUND('',#257,.T.);
#182=EDGE_LOOP('',(#648,#649,#650,#651));
#183=EDGE_LOOP('',(#652,#653,#654,#655));
#184=EDGE_LOOP('',(#656,#657,#658,#659));
#185=EDGE_LOOP('',(#660,#661,#662,#663));
#186=EDGE_LOOP('',(#664,#665,#666,#667));
#187=EDGE_LOOP('',(#668,#669,#670,#671));
#188=EDGE_LOOP('',(#672,#673,#674,#675,#676,#677,#678,#679,#680,#681,#682,
#683,#684));
#189=EDGE_LOOP('',(#685,#686,#687,#688));
#190=EDGE_LOOP('',(#689));
#191=EDGE_LOOP('',(#690));
#192=EDGE_LOOP('',(#691));
#193=EDGE_LOOP('',(#692));
#194=EDGE_LOOP('',(#693));
#195=EDGE_LOOP('',(#694));
#196=EDGE_LOOP('',(#695,#696,#697,#698));
#197=EDGE_LOOP('',(#699,#700,#701,#702,#703,#704,#705,#706,#707));
#198=EDGE_LOOP('',(#708,#709,#710,#711,#712,#713));
#199=EDGE_LOOP('',(#714,#715,#716,#717));
#200=EDGE_LOOP('',(#718,#719,#720,#721));
#201=EDGE_LOOP('',(#722,#723,#724,#725));
#202=EDGE_LOOP('',(#726,#727,#728,#729));
#203=EDGE_LOOP('',(#730,#731,#732,#733));
#204=EDGE_LOOP('',(#734,#735,#736,#737));
#205=EDGE_LOOP('',(#738,#739,#740,#741));
#206=EDGE_LOOP('',(#742,#743,#744,#745));
#207=EDGE_LOOP('',(#746,#747,#748,#749));
#208=EDGE_LOOP('',(#750,#751,#752,#753));
#209=EDGE_LOOP('',(#754,#755,#756,#757));
#210=EDGE_LOOP('',(#758,#759,#760,#761));
#211=EDGE_LOOP('',(#762,#763,#764,#765));
#212=EDGE_LOOP('',(#766,#767,#768,#769));
#213=EDGE_LOOP('',(#770,#771,#772,#773));
#214=EDGE_LOOP('',(#774,#775,#776,#777));
#215=EDGE_LOOP('',(#778,#779,#780,#781));
#216=EDGE_LOOP('',(#782,#783,#784,#785));
#217=EDGE_LOOP('',(#786,#787,#788,#789));
#218=EDGE_LOOP('',(#790,#791,#792,#793));
#219=EDGE_LOOP('',(#794,#795,#796,#797,#798,#799,#800,#801,#802,#803,#804,
#805,#806));
#220=EDGE_LOOP('',(#807,#808,#809,#810));
#221=EDGE_LOOP('',(#811,#812,#813,#814,#815,#816));
#222=EDGE_LOOP('',(#817,#818,#819,#820,#821,#822,#823,#824,#825));
#223=EDGE_LOOP('',(#826,#827,#828,#829));
#224=EDGE_LOOP('',(#830));
#225=EDGE_LOOP('',(#831));
#226=EDGE_LOOP('',(#832));
#227=EDGE_LOOP('',(#833));
#228=EDGE_LOOP('',(#834));
#229=EDGE_LOOP('',(#835));
#230=EDGE_LOOP('',(#836,#837,#838,#839));
#231=EDGE_LOOP('',(#840,#841,#842,#843));
#232=EDGE_LOOP('',(#844,#845,#846,#847));
#233=EDGE_LOOP('',(#848,#849,#850,#851));
#234=EDGE_LOOP('',(#852,#853,#854,#855));
#235=EDGE_LOOP('',(#856,#857,#858,#859));
#236=EDGE_LOOP('',(#860,#861,#862,#863));
#237=EDGE_LOOP('',(#864,#865,#866,#867));
#238=EDGE_LOOP('',(#868,#869,#870,#871));
#239=EDGE_LOOP('',(#872,#873,#874,#875));
#240=EDGE_LOOP('',(#876));
#241=EDGE_LOOP('',(#877));
#242=EDGE_LOOP('',(#878));
#243=EDGE_LOOP('',(#879));
#244=EDGE_LOOP('',(#880));
#245=EDGE_LOOP('',(#881));
#246=EDGE_LOOP('',(#882));
#247=EDGE_LOOP('',(#883));
#248=EDGE_LOOP('',(#884,#885,#886,#887));
#249=EDGE_LOOP('',(#888,#889,#890,#891));
#250=EDGE_LOOP('',(#892,#893,#894,#895));
#251=EDGE_LOOP('',(#896,#897,#898,#899));
#252=EDGE_LOOP('',(#900,#901,#902,#903));
#253=EDGE_LOOP('',(#904,#905,#906,#907));
#254=EDGE_LOOP('',(#908,#909,#910,#911));
#255=EDGE_LOOP('',(#912,#913,#914,#915));
#256=EDGE_LOOP('',(#916,#917,#918,#919));
#257=EDGE_LOOP('',(#920,#921,#922,#923));
#258=LINE('',#1436,#338);
#259=LINE('',#1438,#339);
#260=LINE('',#1440,#340);
#261=LINE('',#1441,#341);
#262=LINE('',#1446,#342);
#263=LINE('',#1450,#343);
#264=LINE('',#1452,#344);
#265=LINE('',#1453,#345);
#266=LINE('',#1462,#346);
#267=LINE('',#1465,#347);
#268=LINE('',#1470,#348);
#269=LINE('',#1475,#349);
#270=LINE('',#1477,#350);
#271=LINE('',#1479,#351);
#272=LINE('',#1481,#352);
#273=LINE('',#1485,#353);
#274=LINE('',#1487,#354);
#275=LINE('',#1489,#355);
#276=LINE('',#1491,#356);
#277=LINE('',#1493,#357);
#278=LINE('',#1495,#358);
#279=LINE('',#1497,#359);
#280=LINE('',#1498,#360);
#281=LINE('',#1513,#361);
#282=LINE('',#1517,#362);
#283=LINE('',#1542,#363);
#284=LINE('',#1547,#364);
#285=LINE('',#1551,#365);
#286=LINE('',#1556,#366);
#287=LINE('',#1557,#367);
#288=LINE('',#1560,#368);
#289=LINE('',#1564,#369);
#290=LINE('',#1567,#370);
#291=LINE('',#1571,#371);
#292=LINE('',#1575,#372);
#293=LINE('',#1579,#373);
#294=LINE('',#1583,#374);
#295=LINE('',#1586,#375);
#296=LINE('',#1589,#376);
#297=LINE('',#1596,#377);
#298=LINE('',#1598,#378);
#299=LINE('',#1599,#379);
#300=LINE('',#1602,#380);
#301=LINE('',#1606,#381);
#302=LINE('',#1607,#382);
#303=LINE('',#1612,#383);
#304=LINE('',#1615,#384);
#305=LINE('',#1618,#385);
#306=LINE('',#1619,#386);
#307=LINE('',#1623,#387);
#308=LINE('',#1624,#388);
#309=LINE('',#1625,#389);
#310=LINE('',#1628,#390);
#311=LINE('',#1630,#391);
#312=LINE('',#1632,#392);
#313=LINE('',#1634,#393);
#314=LINE('',#1636,#394);
#315=LINE('',#1638,#395);
#316=LINE('',#1639,#396);
#317=LINE('',#1641,#397);
#318=LINE('',#1643,#398);
#319=LINE('',#1644,#399);
#320=LINE('',#1658,#400);
#321=LINE('',#1660,#401);
#322=LINE('',#1662,#402);
#323=LINE('',#1665,#403);
#324=LINE('',#1666,#404);
#325=LINE('',#1668,#405);
#326=LINE('',#1671,#406);
#327=LINE('',#1675,#407);
#328=LINE('',#1679,#408);
#329=LINE('',#1683,#409);
#330=LINE('',#1698,#410);
#331=LINE('',#1700,#411);
#332=LINE('',#1704,#412);
#333=LINE('',#1706,#413);
#334=LINE('',#1708,#414);
#335=LINE('',#1710,#415);
#336=LINE('',#1712,#416);
#337=LINE('',#1714,#417);
#338=VECTOR('',#1131,10.);
#339=VECTOR('',#1132,10.);
#340=VECTOR('',#1133,10.);
#341=VECTOR('',#1134,10.);
#342=VECTOR('',#1139,10.);
#343=VECTOR('',#1144,10.);
#344=VECTOR('',#1145,10.);
#345=VECTOR('',#1146,10.);
#346=VECTOR('',#1157,10.);
#347=VECTOR('',#1160,10.);
#348=VECTOR('',#1165,10.);
#349=VECTOR('',#1170,10.);
#350=VECTOR('',#1171,10.);
#351=VECTOR('',#1172,10.);
#352=VECTOR('',#1173,10.);
#353=VECTOR('',#1176,10.);
#354=VECTOR('',#1177,10.);
#355=VECTOR('',#1178,10.);
#356=VECTOR('',#1179,10.);
#357=VECTOR('',#1180,9.99999999999999);
#358=VECTOR('',#1181,10.);
#359=VECTOR('',#1182,10.);
#360=VECTOR('',#1183,10.);
#361=VECTOR('',#1196,10.);
#362=VECTOR('',#1199,10.);
#363=VECTOR('',#1224,10.);
#364=VECTOR('',#1231,10.);
#365=VECTOR('',#1236,10.);
#366=VECTOR('',#1241,10.);
#367=VECTOR('',#1242,10.);
#368=VECTOR('',#1245,10.);
#369=VECTOR('',#1250,10.);
#370=VECTOR('',#1253,10.);
#371=VECTOR('',#1258,10.);
#372=VECTOR('',#1263,10.);
#373=VECTOR('',#1268,10.);
#374=VECTOR('',#1273,10.);
#375=VECTOR('',#1276,10.);
#376=VECTOR('',#1281,10.);
#377=VECTOR('',#1292,10.);
#378=VECTOR('',#1293,10.);
#379=VECTOR('',#1294,10.);
#380=VECTOR('',#1297,10.);
#381=VECTOR('',#1302,10.);
#382=VECTOR('',#1303,10.);
#383=VECTOR('',#1310,10.);
#384=VECTOR('',#1313,10.);
#385=VECTOR('',#1316,10.);
#386=VECTOR('',#1317,1000.);
#387=VECTOR('',#1320,10.);
#388=VECTOR('',#1321,10.);
#389=VECTOR('',#1322,10.);
#390=VECTOR('',#1325,10.);
#391=VECTOR('',#1326,10.);
#392=VECTOR('',#1327,10.);
#393=VECTOR('',#1328,9.99999999999999);
#394=VECTOR('',#1329,10.);
#395=VECTOR('',#1330,10.);
#396=VECTOR('',#1331,10.);
#397=VECTOR('',#1332,10.);
#398=VECTOR('',#1333,10.);
#399=VECTOR('',#1334,10.);
#400=VECTOR('',#1349,10.);
#401=VECTOR('',#1352,10.);
#402=VECTOR('',#1355,1000.);
#403=VECTOR('',#1360,1000.);
#404=VECTOR('',#1361,1000.);
#405=VECTOR('',#1364,1000.);
#406=VECTOR('',#1367,1.65);
#407=VECTOR('',#1372,2.65);
#408=VECTOR('',#1377,2.65);
#409=VECTOR('',#1382,1.65);
#410=VECTOR('',#1403,10.);
#411=VECTOR('',#1406,10.);
#412=VECTOR('',#1413,2.6);
#413=VECTOR('',#1416,2.6);
#414=VECTOR('',#1419,4.9);
#415=VECTOR('',#1422,4.9);
#416=VECTOR('',#1425,3.);
#417=VECTOR('',#1428,3.);
#418=VERTEX_POINT('',#1434);
#419=VERTEX_POINT('',#1435);
#420=VERTEX_POINT('',#1437);
#421=VERTEX_POINT('',#1439);
#422=VERTEX_POINT('',#1443);
#423=VERTEX_POINT('',#1445);
#424=VERTEX_POINT('',#1449);
#425=VERTEX_POINT('',#1451);
#426=VERTEX_POINT('',#1458);
#427=VERTEX_POINT('',#1459);
#428=VERTEX_POINT('',#1461);
#429=VERTEX_POINT('',#1463);
#430=VERTEX_POINT('',#1467);
#431=VERTEX_POINT('',#1469);
#432=VERTEX_POINT('',#1473);
#433=VERTEX_POINT('',#1474);
#434=VERTEX_POINT('',#1476);
#435=VERTEX_POINT('',#1478);
#436=VERTEX_POINT('',#1480);
#437=VERTEX_POINT('',#1482);
#438=VERTEX_POINT('',#1484);
#439=VERTEX_POINT('',#1486);
#440=VERTEX_POINT('',#1488);
#441=VERTEX_POINT('',#1490);
#442=VERTEX_POINT('',#1492);
#443=VERTEX_POINT('',#1494);
#444=VERTEX_POINT('',#1496);
#445=VERTEX_POINT('',#1499);
#446=VERTEX_POINT('',#1501);
#447=VERTEX_POINT('',#1503);
#448=VERTEX_POINT('',#1505);
#449=VERTEX_POINT('',#1507);
#450=VERTEX_POINT('',#1509);
#451=VERTEX_POINT('',#1511);
#452=VERTEX_POINT('',#1512);
#453=VERTEX_POINT('',#1514);
#454=VERTEX_POINT('',#1516);
#455=VERTEX_POINT('',#1519);
#456=VERTEX_POINT('',#1520);
#457=VERTEX_POINT('',#1522);
#458=VERTEX_POINT('',#1524);
#459=VERTEX_POINT('',#1526);
#460=VERTEX_POINT('',#1528);
#461=VERTEX_POINT('',#1530);
#462=VERTEX_POINT('',#1532);
#463=VERTEX_POINT('',#1534);
#464=VERTEX_POINT('',#1537);
#465=VERTEX_POINT('',#1539);
#466=VERTEX_POINT('',#1541);
#467=VERTEX_POINT('',#1545);
#468=VERTEX_POINT('',#1549);
#469=VERTEX_POINT('',#1553);
#470=VERTEX_POINT('',#1554);
#471=VERTEX_POINT('',#1559);
#472=VERTEX_POINT('',#1563);
#473=VERTEX_POINT('',#1565);
#474=VERTEX_POINT('',#1569);
#475=VERTEX_POINT('',#1573);
#476=VERTEX_POINT('',#1577);
#477=VERTEX_POINT('',#1581);
#478=VERTEX_POINT('',#1585);
#479=VERTEX_POINT('',#1595);
#480=VERTEX_POINT('',#1597);
#481=VERTEX_POINT('',#1601);
#482=VERTEX_POINT('',#1605);
#483=VERTEX_POINT('',#1611);
#484=VERTEX_POINT('',#1613);
#485=VERTEX_POINT('',#1617);
#486=VERTEX_POINT('',#1621);
#487=VERTEX_POINT('',#1622);
#488=VERTEX_POINT('',#1627);
#489=VERTEX_POINT('',#1629);
#490=VERTEX_POINT('',#1631);
#491=VERTEX_POINT('',#1633);
#492=VERTEX_POINT('',#1635);
#493=VERTEX_POINT('',#1637);
#494=VERTEX_POINT('',#1640);
#495=VERTEX_POINT('',#1642);
#496=VERTEX_POINT('',#1645);
#497=VERTEX_POINT('',#1647);
#498=VERTEX_POINT('',#1649);
#499=VERTEX_POINT('',#1651);
#500=VERTEX_POINT('',#1653);
#501=VERTEX_POINT('',#1655);
#502=VERTEX_POINT('',#1670);
#503=VERTEX_POINT('',#1674);
#504=VERTEX_POINT('',#1678);
#505=VERTEX_POINT('',#1682);
#506=VERTEX_POINT('',#1686);
#507=VERTEX_POINT('',#1689);
#508=VERTEX_POINT('',#1692);
#509=VERTEX_POINT('',#1695);
#510=EDGE_CURVE('',#418,#419,#258,.T.);
#511=EDGE_CURVE('',#420,#419,#259,.T.);
#512=EDGE_CURVE('',#420,#421,#260,.T.);
#513=EDGE_CURVE('',#421,#418,#261,.T.);
#514=EDGE_CURVE('',#419,#422,#43,.T.);
#515=EDGE_CURVE('',#423,#422,#262,.T.);
#516=EDGE_CURVE('',#423,#420,#44,.T.);
#517=EDGE_CURVE('',#422,#424,#263,.T.);
#518=EDGE_CURVE('',#425,#424,#264,.T.);
#519=EDGE_CURVE('',#425,#423,#265,.T.);
#520=EDGE_CURVE('',#424,#418,#45,.T.);
#521=EDGE_CURVE('',#421,#425,#46,.T.);
#522=EDGE_CURVE('',#426,#427,#47,.T.);
#523=EDGE_CURVE('',#428,#426,#266,.T.);
#524=EDGE_CURVE('',#429,#428,#48,.T.);
#525=EDGE_CURVE('',#427,#429,#267,.T.);
#526=EDGE_CURVE('',#429,#430,#49,.T.);
#527=EDGE_CURVE('',#430,#431,#268,.T.);
#528=EDGE_CURVE('',#431,#427,#50,.T.);
#529=EDGE_CURVE('',#432,#433,#269,.T.);
#530=EDGE_CURVE('',#434,#433,#270,.F.);
#531=EDGE_CURVE('',#434,#435,#271,.T.);
#532=EDGE_CURVE('',#436,#435,#272,.F.);
#533=EDGE_CURVE('',#436,#437,#51,.T.);
#534=EDGE_CURVE('',#437,#438,#273,.F.);
#535=EDGE_CURVE('',#438,#439,#274,.T.);
#536=EDGE_CURVE('',#439,#440,#275,.F.);
#537=EDGE_CURVE('',#441,#440,#276,.T.);
#538=EDGE_CURVE('',#441,#442,#277,.T.);
#539=EDGE_CURVE('',#443,#442,#278,.F.);
#540=EDGE_CURVE('',#443,#444,#279,.T.);
#541=EDGE_CURVE('',#432,#444,#280,.T.);
#542=EDGE_CURVE('',#445,#445,#52,.T.);
#543=EDGE_CURVE('',#446,#446,#53,.T.);
#544=EDGE_CURVE('',#447,#447,#54,.F.);
#545=EDGE_CURVE('',#448,#448,#55,.T.);
#546=EDGE_CURVE('',#449,#449,#56,.T.);
#547=EDGE_CURVE('',#450,#450,#57,.T.);
#548=EDGE_CURVE('',#451,#452,#281,.T.);
#549=EDGE_CURVE('',#453,#451,#58,.T.);
#550=EDGE_CURVE('',#454,#453,#282,.T.);
#551=EDGE_CURVE('',#452,#454,#59,.T.);
#552=EDGE_CURVE('',#455,#456,#60,.T.);
#553=EDGE_CURVE('',#457,#456,#61,.T.);
#554=EDGE_CURVE('',#457,#458,#62,.T.);
#555=EDGE_CURVE('',#459,#458,#63,.T.);
#556=EDGE_CURVE('',#459,#460,#64,.T.);
#557=EDGE_CURVE('',#461,#460,#65,.T.);
#558=EDGE_CURVE('',#462,#461,#66,.T.);
#559=EDGE_CURVE('',#462,#463,#67,.T.);
#560=EDGE_CURVE('',#455,#463,#68,.T.);
#561=EDGE_CURVE('',#431,#464,#69,.T.);
#562=EDGE_CURVE('',#465,#464,#70,.T.);
#563=EDGE_CURVE('',#466,#465,#283,.T.);
#564=EDGE_CURVE('',#426,#466,#71,.T.);
#565=EDGE_CURVE('',#467,#430,#72,.T.);
#566=EDGE_CURVE('',#464,#467,#284,.T.);
#567=EDGE_CURVE('',#467,#468,#73,.T.);
#568=EDGE_CURVE('',#468,#465,#285,.T.);
#569=EDGE_CURVE('',#469,#470,#74,.T.);
#570=EDGE_CURVE('',#463,#469,#286,.T.);
#571=EDGE_CURVE('',#470,#462,#287,.T.);
#572=EDGE_CURVE('',#471,#461,#288,.T.);
#573=EDGE_CURVE('',#471,#470,#75,.T.);
#574=EDGE_CURVE('',#472,#455,#289,.T.);
#575=EDGE_CURVE('',#473,#472,#76,.T.);
#576=EDGE_CURVE('',#456,#473,#290,.T.);
#577=EDGE_CURVE('',#473,#474,#77,.T.);
#578=EDGE_CURVE('',#474,#457,#291,.T.);
#579=EDGE_CURVE('',#475,#474,#78,.T.);
#580=EDGE_CURVE('',#458,#475,#292,.T.);
#581=EDGE_CURVE('',#475,#476,#79,.T.);
#582=EDGE_CURVE('',#476,#459,#293,.T.);
#583=EDGE_CURVE('',#477,#476,#80,.T.);
#584=EDGE_CURVE('',#460,#477,#294,.T.);
#585=EDGE_CURVE('',#478,#466,#295,.T.);
#586=EDGE_CURVE('',#478,#428,#81,.T.);
#587=EDGE_CURVE('',#468,#478,#296,.T.);
#588=EDGE_CURVE('',#469,#472,#82,.T.);
#589=EDGE_CURVE('',#477,#471,#83,.T.);
#590=EDGE_CURVE('',#479,#453,#297,.T.);
#591=EDGE_CURVE('',#479,#480,#298,.T.);
#592=EDGE_CURVE('',#480,#454,#299,.T.);
#593=EDGE_CURVE('',#481,#451,#300,.T.);
#594=EDGE_CURVE('',#481,#479,#84,.T.);
#595=EDGE_CURVE('',#482,#452,#301,.T.);
#596=EDGE_CURVE('',#482,#481,#302,.T.);
#597=EDGE_CURVE('',#480,#482,#85,.T.);
#598=EDGE_CURVE('',#483,#436,#303,.T.);
#599=EDGE_CURVE('',#484,#483,#86,.T.);
#600=EDGE_CURVE('',#437,#484,#304,.T.);
#601=EDGE_CURVE('',#484,#485,#305,.T.);
#602=EDGE_CURVE('',#485,#438,#306,.F.);
#603=EDGE_CURVE('',#486,#487,#307,.T.);
#604=EDGE_CURVE('',#433,#486,#308,.T.);
#605=EDGE_CURVE('',#487,#432,#309,.T.);
#606=EDGE_CURVE('',#488,#487,#310,.T.);
#607=EDGE_CURVE('',#489,#488,#311,.T.);
#608=EDGE_CURVE('',#490,#489,#312,.F.);
#609=EDGE_CURVE('',#491,#490,#313,.T.);
#610=EDGE_CURVE('',#492,#491,#314,.T.);
#611=EDGE_CURVE('',#493,#492,#315,.T.);
#612=EDGE_CURVE('',#485,#493,#316,.T.);
#613=EDGE_CURVE('',#494,#483,#317,.F.);
#614=EDGE_CURVE('',#494,#495,#318,.T.);
#615=EDGE_CURVE('',#495,#486,#319,.T.);
#616=EDGE_CURVE('',#496,#496,#87,.T.);
#617=EDGE_CURVE('',#497,#497,#88,.T.);
#618=EDGE_CURVE('',#498,#498,#89,.T.);
#619=EDGE_CURVE('',#499,#499,#90,.T.);
#620=EDGE_CURVE('',#500,#500,#91,.T.);
#621=EDGE_CURVE('',#501,#501,#92,.T.);
#622=EDGE_CURVE('',#495,#434,#320,.T.);
#623=EDGE_CURVE('',#435,#494,#321,.T.);
#624=EDGE_CURVE('',#444,#488,#322,.T.);
#625=EDGE_CURVE('',#439,#493,#323,.F.);
#626=EDGE_CURVE('',#492,#440,#324,.T.);
#627=EDGE_CURVE('',#491,#441,#325,.T.);
#628=EDGE_CURVE('',#450,#502,#326,.T.);
#629=EDGE_CURVE('',#502,#502,#93,.T.);
#630=EDGE_CURVE('',#445,#503,#327,.T.);
#631=EDGE_CURVE('',#503,#503,#94,.F.);
#632=EDGE_CURVE('',#446,#504,#328,.T.);
#633=EDGE_CURVE('',#504,#504,#95,.T.);
#634=EDGE_CURVE('',#448,#505,#329,.T.);
#635=EDGE_CURVE('',#505,#505,#96,.T.);
#636=EDGE_CURVE('',#506,#506,#97,.T.);
#637=EDGE_CURVE('',#507,#507,#98,.T.);
#638=EDGE_CURVE('',#508,#508,#99,.T.);
#639=EDGE_CURVE('',#509,#509,#100,.T.);
#640=EDGE_CURVE('',#489,#443,#330,.T.);
#641=EDGE_CURVE('',#442,#490,#331,.T.);
#642=EDGE_CURVE('',#447,#496,#332,.T.);
#643=EDGE_CURVE('',#449,#497,#333,.T.);
#644=EDGE_CURVE('',#506,#498,#334,.T.);
#645=EDGE_CURVE('',#507,#499,#335,.T.);
#646=EDGE_CURVE('',#508,#500,#336,.T.);
#647=EDGE_CURVE('',#509,#501,#337,.T.);
#648=ORIENTED_EDGE('',*,*,#510,.T.);
#649=ORIENTED_EDGE('',*,*,#511,.F.);
#650=ORIENTED_EDGE('',*,*,#512,.T.);
#651=ORIENTED_EDGE('',*,*,#513,.T.);
#652=ORIENTED_EDGE('',*,*,#514,.T.);
#653=ORIENTED_EDGE('',*,*,#515,.F.);
#654=ORIENTED_EDGE('',*,*,#516,.T.);
#655=ORIENTED_EDGE('',*,*,#511,.T.);
#656=ORIENTED_EDGE('',*,*,#517,.T.);
#657=ORIENTED_EDGE('',*,*,#518,.F.);
#658=ORIENTED_EDGE('',*,*,#519,.T.);
#659=ORIENTED_EDGE('',*,*,#515,.T.);
#660=ORIENTED_EDGE('',*,*,#520,.T.);
#661=ORIENTED_EDGE('',*,*,#513,.F.);
#662=ORIENTED_EDGE('',*,*,#521,.T.);
#663=ORIENTED_EDGE('',*,*,#518,.T.);
#664=ORIENTED_EDGE('',*,*,#522,.F.);
#665=ORIENTED_EDGE('',*,*,#523,.F.);
#666=ORIENTED_EDGE('',*,*,#524,.F.);
#667=ORIENTED_EDGE('',*,*,#525,.F.);
#668=ORIENTED_EDGE('',*,*,#525,.T.);
#669=ORIENTED_EDGE('',*,*,#526,.T.);
#670=ORIENTED_EDGE('',*,*,#527,.T.);
#671=ORIENTED_EDGE('',*,*,#528,.T.);
#672=ORIENTED_EDGE('',*,*,#529,.T.);
#673=ORIENTED_EDGE('',*,*,#530,.F.);
#674=ORIENTED_EDGE('',*,*,#531,.T.);
#675=ORIENTED_EDGE('',*,*,#532,.F.);
#676=ORIENTED_EDGE('',*,*,#533,.T.);
#677=ORIENTED_EDGE('',*,*,#534,.T.);
#678=ORIENTED_EDGE('',*,*,#535,.T.);
#679=ORIENTED_EDGE('',*,*,#536,.T.);
#680=ORIENTED_EDGE('',*,*,#537,.F.);
#681=ORIENTED_EDGE('',*,*,#538,.T.);
#682=ORIENTED_EDGE('',*,*,#539,.F.);
#683=ORIENTED_EDGE('',*,*,#540,.T.);
#684=ORIENTED_EDGE('',*,*,#541,.F.);
#685=ORIENTED_EDGE('',*,*,#517,.F.);
#686=ORIENTED_EDGE('',*,*,#514,.F.);
#687=ORIENTED_EDGE('',*,*,#510,.F.);
#688=ORIENTED_EDGE('',*,*,#520,.F.);
#689=ORIENTED_EDGE('',*,*,#542,.F.);
#690=ORIENTED_EDGE('',*,*,#543,.F.);
#691=ORIENTED_EDGE('',*,*,#544,.F.);
#692=ORIENTED_EDGE('',*,*,#545,.F.);
#693=ORIENTED_EDGE('',*,*,#546,.F.);
#694=ORIENTED_EDGE('',*,*,#547,.F.);
#695=ORIENTED_EDGE('',*,*,#548,.F.);
#696=ORIENTED_EDGE('',*,*,#549,.F.);
#697=ORIENTED_EDGE('',*,*,#550,.F.);
#698=ORIENTED_EDGE('',*,*,#551,.F.);
#699=ORIENTED_EDGE('',*,*,#552,.T.);
#700=ORIENTED_EDGE('',*,*,#553,.F.);
#701=ORIENTED_EDGE('',*,*,#554,.T.);
#702=ORIENTED_EDGE('',*,*,#555,.F.);
#703=ORIENTED_EDGE('',*,*,#556,.T.);
#704=ORIENTED_EDGE('',*,*,#557,.F.);
#705=ORIENTED_EDGE('',*,*,#558,.F.);
#706=ORIENTED_EDGE('',*,*,#559,.T.);
#707=ORIENTED_EDGE('',*,*,#560,.F.);
#708=ORIENTED_EDGE('',*,*,#522,.T.);
#709=ORIENTED_EDGE('',*,*,#528,.F.);
#710=ORIENTED_EDGE('',*,*,#561,.T.);
#711=ORIENTED_EDGE('',*,*,#562,.F.);
#712=ORIENTED_EDGE('',*,*,#563,.F.);
#713=ORIENTED_EDGE('',*,*,#564,.F.);
#714=ORIENTED_EDGE('',*,*,#561,.F.);
#715=ORIENTED_EDGE('',*,*,#527,.F.);
#716=ORIENTED_EDGE('',*,*,#565,.F.);
#717=ORIENTED_EDGE('',*,*,#566,.F.);
#718=ORIENTED_EDGE('',*,*,#566,.T.);
#719=ORIENTED_EDGE('',*,*,#567,.T.);
#720=ORIENTED_EDGE('',*,*,#568,.T.);
#721=ORIENTED_EDGE('',*,*,#562,.T.);
#722=ORIENTED_EDGE('',*,*,#569,.F.);
#723=ORIENTED_EDGE('',*,*,#570,.F.);
#724=ORIENTED_EDGE('',*,*,#559,.F.);
#725=ORIENTED_EDGE('',*,*,#571,.F.);
#726=ORIENTED_EDGE('',*,*,#571,.T.);
#727=ORIENTED_EDGE('',*,*,#558,.T.);
#728=ORIENTED_EDGE('',*,*,#572,.F.);
#729=ORIENTED_EDGE('',*,*,#573,.T.);
#730=ORIENTED_EDGE('',*,*,#552,.F.);
#731=ORIENTED_EDGE('',*,*,#574,.F.);
#732=ORIENTED_EDGE('',*,*,#575,.F.);
#733=ORIENTED_EDGE('',*,*,#576,.F.);
#734=ORIENTED_EDGE('',*,*,#576,.T.);
#735=ORIENTED_EDGE('',*,*,#577,.T.);
#736=ORIENTED_EDGE('',*,*,#578,.T.);
#737=ORIENTED_EDGE('',*,*,#553,.T.);
#738=ORIENTED_EDGE('',*,*,#554,.F.);
#739=ORIENTED_EDGE('',*,*,#578,.F.);
#740=ORIENTED_EDGE('',*,*,#579,.F.);
#741=ORIENTED_EDGE('',*,*,#580,.F.);
#742=ORIENTED_EDGE('',*,*,#580,.T.);
#743=ORIENTED_EDGE('',*,*,#581,.T.);
#744=ORIENTED_EDGE('',*,*,#582,.T.);
#745=ORIENTED_EDGE('',*,*,#555,.T.);
#746=ORIENTED_EDGE('',*,*,#556,.F.);
#747=ORIENTED_EDGE('',*,*,#582,.F.);
#748=ORIENTED_EDGE('',*,*,#583,.F.);
#749=ORIENTED_EDGE('',*,*,#584,.F.);
#750=ORIENTED_EDGE('',*,*,#523,.T.);
#751=ORIENTED_EDGE('',*,*,#564,.T.);
#752=ORIENTED_EDGE('',*,*,#585,.F.);
#753=ORIENTED_EDGE('',*,*,#586,.T.);
#754=ORIENTED_EDGE('',*,*,#563,.T.);
#755=ORIENTED_EDGE('',*,*,#568,.F.);
#756=ORIENTED_EDGE('',*,*,#587,.T.);
#757=ORIENTED_EDGE('',*,*,#585,.T.);
#758=ORIENTED_EDGE('',*,*,#570,.T.);
#759=ORIENTED_EDGE('',*,*,#588,.T.);
#760=ORIENTED_EDGE('',*,*,#574,.T.);
#761=ORIENTED_EDGE('',*,*,#560,.T.);
#762=ORIENTED_EDGE('',*,*,#584,.T.);
#763=ORIENTED_EDGE('',*,*,#589,.T.);
#764=ORIENTED_EDGE('',*,*,#572,.T.);
#765=ORIENTED_EDGE('',*,*,#557,.T.);
#766=ORIENTED_EDGE('',*,*,#550,.T.);
#767=ORIENTED_EDGE('',*,*,#590,.F.);
#768=ORIENTED_EDGE('',*,*,#591,.T.);
#769=ORIENTED_EDGE('',*,*,#592,.T.);
#770=ORIENTED_EDGE('',*,*,#549,.T.);
#771=ORIENTED_EDGE('',*,*,#593,.F.);
#772=ORIENTED_EDGE('',*,*,#594,.T.);
#773=ORIENTED_EDGE('',*,*,#590,.T.);
#774=ORIENTED_EDGE('',*,*,#548,.T.);
#775=ORIENTED_EDGE('',*,*,#595,.F.);
#776=ORIENTED_EDGE('',*,*,#596,.T.);
#777=ORIENTED_EDGE('',*,*,#593,.T.);
#778=ORIENTED_EDGE('',*,*,#551,.T.);
#779=ORIENTED_EDGE('',*,*,#592,.F.);
#780=ORIENTED_EDGE('',*,*,#597,.T.);
#781=ORIENTED_EDGE('',*,*,#595,.T.);
#782=ORIENTED_EDGE('',*,*,#533,.F.);
#783=ORIENTED_EDGE('',*,*,#598,.F.);
#784=ORIENTED_EDGE('',*,*,#599,.F.);
#785=ORIENTED_EDGE('',*,*,#600,.F.);
#786=ORIENTED_EDGE('',*,*,#600,.T.);
#787=ORIENTED_EDGE('',*,*,#601,.T.);
#788=ORIENTED_EDGE('',*,*,#602,.T.);
#789=ORIENTED_EDGE('',*,*,#534,.F.);
#790=ORIENTED_EDGE('',*,*,#603,.F.);
#791=ORIENTED_EDGE('',*,*,#604,.F.);
#792=ORIENTED_EDGE('',*,*,#529,.F.);
#793=ORIENTED_EDGE('',*,*,#605,.F.);
#794=ORIENTED_EDGE('',*,*,#603,.T.);
#795=ORIENTED_EDGE('',*,*,#606,.F.);
#796=ORIENTED_EDGE('',*,*,#607,.F.);
#797=ORIENTED_EDGE('',*,*,#608,.F.);
#798=ORIENTED_EDGE('',*,*,#609,.F.);
#799=ORIENTED_EDGE('',*,*,#610,.F.);
#800=ORIENTED_EDGE('',*,*,#611,.F.);
#801=ORIENTED_EDGE('',*,*,#612,.F.);
#802=ORIENTED_EDGE('',*,*,#601,.F.);
#803=ORIENTED_EDGE('',*,*,#599,.T.);
#804=ORIENTED_EDGE('',*,*,#613,.F.);
#805=ORIENTED_EDGE('',*,*,#614,.T.);
#806=ORIENTED_EDGE('',*,*,#615,.T.);
#807=ORIENTED_EDGE('',*,*,#519,.F.);
#808=ORIENTED_EDGE('',*,*,#521,.F.);
#809=ORIENTED_EDGE('',*,*,#512,.F.);
#810=ORIENTED_EDGE('',*,*,#516,.F.);
#811=ORIENTED_EDGE('',*,*,#524,.T.);
#812=ORIENTED_EDGE('',*,*,#586,.F.);
#813=ORIENTED_EDGE('',*,*,#587,.F.);
#814=ORIENTED_EDGE('',*,*,#567,.F.);
#815=ORIENTED_EDGE('',*,*,#565,.T.);
#816=ORIENTED_EDGE('',*,*,#526,.F.);
#817=ORIENTED_EDGE('',*,*,#575,.T.);
#818=ORIENTED_EDGE('',*,*,#588,.F.);
#819=ORIENTED_EDGE('',*,*,#569,.T.);
#820=ORIENTED_EDGE('',*,*,#573,.F.);
#821=ORIENTED_EDGE('',*,*,#589,.F.);
#822=ORIENTED_EDGE('',*,*,#583,.T.);
#823=ORIENTED_EDGE('',*,*,#581,.F.);
#824=ORIENTED_EDGE('',*,*,#579,.T.);
#825=ORIENTED_EDGE('',*,*,#577,.F.);
#826=ORIENTED_EDGE('',*,*,#596,.F.);
#827=ORIENTED_EDGE('',*,*,#597,.F.);
#828=ORIENTED_EDGE('',*,*,#591,.F.);
#829=ORIENTED_EDGE('',*,*,#594,.F.);
#830=ORIENTED_EDGE('',*,*,#616,.F.);
#831=ORIENTED_EDGE('',*,*,#617,.F.);
#832=ORIENTED_EDGE('',*,*,#618,.F.);
#833=ORIENTED_EDGE('',*,*,#619,.F.);
#834=ORIENTED_EDGE('',*,*,#620,.F.);
#835=ORIENTED_EDGE('',*,*,#621,.F.);
#836=ORIENTED_EDGE('',*,*,#604,.T.);
#837=ORIENTED_EDGE('',*,*,#615,.F.);
#838=ORIENTED_EDGE('',*,*,#622,.T.);
#839=ORIENTED_EDGE('',*,*,#530,.T.);
#840=ORIENTED_EDGE('',*,*,#531,.F.);
#841=ORIENTED_EDGE('',*,*,#622,.F.);
#842=ORIENTED_EDGE('',*,*,#614,.F.);
#843=ORIENTED_EDGE('',*,*,#623,.F.);
#844=ORIENTED_EDGE('',*,*,#605,.T.);
#845=ORIENTED_EDGE('',*,*,#541,.T.);
#846=ORIENTED_EDGE('',*,*,#624,.T.);
#847=ORIENTED_EDGE('',*,*,#606,.T.);
#848=ORIENTED_EDGE('',*,*,#598,.T.);
#849=ORIENTED_EDGE('',*,*,#532,.T.);
#850=ORIENTED_EDGE('',*,*,#623,.T.);
#851=ORIENTED_EDGE('',*,*,#613,.T.);
#852=ORIENTED_EDGE('',*,*,#536,.F.);
#853=ORIENTED_EDGE('',*,*,#625,.T.);
#854=ORIENTED_EDGE('',*,*,#611,.T.);
#855=ORIENTED_EDGE('',*,*,#626,.T.);
#856=ORIENTED_EDGE('',*,*,#537,.T.);
#857=ORIENTED_EDGE('',*,*,#626,.F.);
#858=ORIENTED_EDGE('',*,*,#610,.T.);
#859=ORIENTED_EDGE('',*,*,#627,.T.);
#860=ORIENTED_EDGE('',*,*,#547,.T.);
#861=ORIENTED_EDGE('',*,*,#628,.T.);
#862=ORIENTED_EDGE('',*,*,#629,.F.);
#863=ORIENTED_EDGE('',*,*,#628,.F.);
#864=ORIENTED_EDGE('',*,*,#542,.T.);
#865=ORIENTED_EDGE('',*,*,#630,.T.);
#866=ORIENTED_EDGE('',*,*,#631,.F.);
#867=ORIENTED_EDGE('',*,*,#630,.F.);
#868=ORIENTED_EDGE('',*,*,#543,.T.);
#869=ORIENTED_EDGE('',*,*,#632,.T.);
#870=ORIENTED_EDGE('',*,*,#633,.T.);
#871=ORIENTED_EDGE('',*,*,#632,.F.);
#872=ORIENTED_EDGE('',*,*,#545,.T.);
#873=ORIENTED_EDGE('',*,*,#634,.T.);
#874=ORIENTED_EDGE('',*,*,#635,.T.);
#875=ORIENTED_EDGE('',*,*,#634,.F.);
#876=ORIENTED_EDGE('',*,*,#636,.T.);
#877=ORIENTED_EDGE('',*,*,#631,.T.);
#878=ORIENTED_EDGE('',*,*,#637,.T.);
#879=ORIENTED_EDGE('',*,*,#633,.F.);
#880=ORIENTED_EDGE('',*,*,#638,.F.);
#881=ORIENTED_EDGE('',*,*,#635,.F.);
#882=ORIENTED_EDGE('',*,*,#639,.T.);
#883=ORIENTED_EDGE('',*,*,#629,.T.);
#884=ORIENTED_EDGE('',*,*,#640,.F.);
#885=ORIENTED_EDGE('',*,*,#607,.T.);
#886=ORIENTED_EDGE('',*,*,#624,.F.);
#887=ORIENTED_EDGE('',*,*,#540,.F.);
#888=ORIENTED_EDGE('',*,*,#539,.T.);
#889=ORIENTED_EDGE('',*,*,#641,.T.);
#890=ORIENTED_EDGE('',*,*,#608,.T.);
#891=ORIENTED_EDGE('',*,*,#640,.T.);
#892=ORIENTED_EDGE('',*,*,#627,.F.);
#893=ORIENTED_EDGE('',*,*,#609,.T.);
#894=ORIENTED_EDGE('',*,*,#641,.F.);
#895=ORIENTED_EDGE('',*,*,#538,.F.);
#896=ORIENTED_EDGE('',*,*,#602,.F.);
#897=ORIENTED_EDGE('',*,*,#612,.T.);
#898=ORIENTED_EDGE('',*,*,#625,.F.);
#899=ORIENTED_EDGE('',*,*,#535,.F.);
#900=ORIENTED_EDGE('',*,*,#544,.T.);
#901=ORIENTED_EDGE('',*,*,#642,.T.);
#902=ORIENTED_EDGE('',*,*,#616,.T.);
#903=ORIENTED_EDGE('',*,*,#642,.F.);
#904=ORIENTED_EDGE('',*,*,#546,.T.);
#905=ORIENTED_EDGE('',*,*,#643,.T.);
#906=ORIENTED_EDGE('',*,*,#617,.T.);
#907=ORIENTED_EDGE('',*,*,#643,.F.);
#908=ORIENTED_EDGE('',*,*,#636,.F.);
#909=ORIENTED_EDGE('',*,*,#644,.T.);
#910=ORIENTED_EDGE('',*,*,#618,.T.);
#911=ORIENTED_EDGE('',*,*,#644,.F.);
#912=ORIENTED_EDGE('',*,*,#637,.F.);
#913=ORIENTED_EDGE('',*,*,#645,.T.);
#914=ORIENTED_EDGE('',*,*,#619,.T.);
#915=ORIENTED_EDGE('',*,*,#645,.F.);
#916=ORIENTED_EDGE('',*,*,#638,.T.);
#917=ORIENTED_EDGE('',*,*,#646,.T.);
#918=ORIENTED_EDGE('',*,*,#620,.T.);
#919=ORIENTED_EDGE('',*,*,#646,.F.);
#920=ORIENTED_EDGE('',*,*,#639,.F.);
#921=ORIENTED_EDGE('',*,*,#647,.T.);
#922=ORIENTED_EDGE('',*,*,#621,.T.);
#923=ORIENTED_EDGE('',*,*,#647,.F.);
#924=PLANE('',#1014);
#925=PLANE('',#1018);
#926=PLANE('',#1028);
#927=PLANE('',#1070);
#928=PLANE('',#1075);
#929=PLANE('',#1078);
#930=PLANE('',#1083);
#931=PLANE('',#1084);
#932=PLANE('',#1085);
#933=PLANE('',#1092);
#934=PLANE('',#1093);
#935=PLANE('',#1094);
#936=PLANE('',#1095);
#937=PLANE('',#1096);
#938=PLANE('',#1097);
#939=PLANE('',#1106);
#940=PLANE('',#1108);
#941=PLANE('',#1110);
#942=PLANE('',#1112);
#943=PLANE('',#1114);
#944=PLANE('',#1115);
#945=PLANE('',#1116);
#946=PLANE('',#1117);
#947=ADVANCED_FACE('',(#130),#924,.T.);
#948=ADVANCED_FACE('',(#131),#101,.F.);
#949=ADVANCED_FACE('',(#132),#925,.T.);
#950=ADVANCED_FACE('',(#133),#102,.F.);
#951=ADVANCED_FACE('',(#134),#103,.T.);
#952=ADVANCED_FACE('',(#135),#104,.F.);
#953=ADVANCED_FACE('',(#136,#19,#20,#21,#22,#23,#24,#25,#26,#27,#28),#926,
 .F.);
#954=ADVANCED_FACE('',(#137),#105,.T.);
#955=ADVANCED_FACE('',(#138),#106,.F.);
#956=ADVANCED_FACE('',(#139),#107,.F.);
#957=ADVANCED_FACE('',(#140),#108,.F.);
#958=ADVANCED_FACE('',(#141),#109,.T.);
#959=ADVANCED_FACE('',(#142),#110,.F.);
#960=ADVANCED_FACE('',(#143),#111,.T.);
#961=ADVANCED_FACE('',(#144),#112,.F.);
#962=ADVANCED_FACE('',(#145),#113,.T.);
#963=ADVANCED_FACE('',(#146),#114,.F.);
#964=ADVANCED_FACE('',(#147),#927,.T.);
#965=ADVANCED_FACE('',(#148),#115,.F.);
#966=ADVANCED_FACE('',(#149),#116,.F.);
#967=ADVANCED_FACE('',(#150),#928,.T.);
#968=ADVANCED_FACE('',(#151),#117,.F.);
#969=ADVANCED_FACE('',(#152),#929,.T.);
#970=ADVANCED_FACE('',(#153),#118,.F.);
#971=ADVANCED_FACE('',(#154),#119,.F.);
#972=ADVANCED_FACE('',(#155),#930,.F.);
#973=ADVANCED_FACE('',(#156),#931,.F.);
#974=ADVANCED_FACE('',(#157,#29,#30,#31,#32,#33,#34,#35,#36,#37,#38),#932,
 .F.);
#975=ADVANCED_FACE('',(#158),#933,.F.);
#976=ADVANCED_FACE('',(#159),#934,.F.);
#977=ADVANCED_FACE('',(#160),#935,.F.);
#978=ADVANCED_FACE('',(#161),#936,.F.);
#979=ADVANCED_FACE('',(#162),#937,.F.);
#980=ADVANCED_FACE('',(#163),#938,.F.);
#981=ADVANCED_FACE('',(#164),#120,.F.);
#982=ADVANCED_FACE('',(#165),#121,.F.);
#983=ADVANCED_FACE('',(#166),#122,.F.);
#984=ADVANCED_FACE('',(#167),#123,.F.);
#985=ADVANCED_FACE('',(#168,#39),#939,.F.);
#986=ADVANCED_FACE('',(#169,#40),#940,.F.);
#987=ADVANCED_FACE('',(#170,#41),#941,.F.);
#988=ADVANCED_FACE('',(#171,#42),#942,.F.);
#989=ADVANCED_FACE('',(#172),#943,.T.);
#990=ADVANCED_FACE('',(#173),#944,.F.);
#991=ADVANCED_FACE('',(#174),#945,.T.);
#992=ADVANCED_FACE('',(#175),#946,.T.);
#993=ADVANCED_FACE('',(#176),#124,.F.);
#994=ADVANCED_FACE('',(#177),#125,.F.);
#995=ADVANCED_FACE('',(#178),#126,.F.);
#996=ADVANCED_FACE('',(#179),#127,.F.);
#997=ADVANCED_FACE('',(#180),#128,.F.);
#998=ADVANCED_FACE('',(#181),#129,.F.);
#999=CLOSED_SHELL('',(#947,#948,#949,#950,#951,#952,#953,#954,#955,#956,
#957,#958,#959,#960,#961,#962,#963,#964,#965,#966,#967,#968,#969,#970,#971,
#972,#973,#974,#975,#976,#977,#978,#979,#980,#981,#982,#983,#984,#985,#986,
#987,#988,#989,#990,#991,#992,#993,#994,#995,#996,#997,#998));
#1000=DERIVED_UNIT_ELEMENT(#1002,1.);
#1001=DERIVED_UNIT_ELEMENT(#1723,-3.);
#1002=(
MASS_UNIT()
NAMED_UNIT(*)
SI_UNIT(.KILO.,.GRAM.)
);
#1003=DERIVED_UNIT((#1000,#1001));
#1004=MEASURE_REPRESENTATION_ITEM('density measure',
POSITIVE_RATIO_MEASURE(1060.),#1003);
#1005=PROPERTY_DEFINITION_REPRESENTATION(#1010,#1007);
#1006=PROPERTY_DEFINITION_REPRESENTATION(#1011,#1008);
#1007=REPRESENTATION('material name',(#1009),#1720);
#1008=REPRESENTATION('density',(#1004),#1720);
#1009=DESCRIPTIVE_REPRESENTATION_ITEM('ABS \X2\58516599\X0\',
'ABS \X2\58516599\X0\');
#1010=PROPERTY_DEFINITION('material property','material name',#1735);
#1011=PROPERTY_DEFINITION('material property','density of part',#1735);
#1012=AXIS2_PLACEMENT_3D('',#1431,#1125,#1126);
#1013=AXIS2_PLACEMENT_3D('',#1432,#1127,#1128);
#1014=AXIS2_PLACEMENT_3D('',#1433,#1129,#1130);
#1015=AXIS2_PLACEMENT_3D('',#1442,#1135,#1136);
#1016=AXIS2_PLACEMENT_3D('',#1444,#1137,#1138);
#1017=AXIS2_PLACEMENT_3D('',#1447,#1140,#1141);
#1018=AXIS2_PLACEMENT_3D('',#1448,#1142,#1143);
#1019=AXIS2_PLACEMENT_3D('',#1454,#1147,#1148);
#1020=AXIS2_PLACEMENT_3D('',#1455,#1149,#1150);
#1021=AXIS2_PLACEMENT_3D('',#1456,#1151,#1152);
#1022=AXIS2_PLACEMENT_3D('',#1457,#1153,#1154);
#1023=AXIS2_PLACEMENT_3D('',#1460,#1155,#1156);
#1024=AXIS2_PLACEMENT_3D('',#1464,#1158,#1159);
#1025=AXIS2_PLACEMENT_3D('',#1466,#1161,#1162);
#1026=AXIS2_PLACEMENT_3D('',#1468,#1163,#1164);
#1027=AXIS2_PLACEMENT_3D('',#1471,#1166,#1167);
#1028=AXIS2_PLACEMENT_3D('',#1472,#1168,#1169);
#1029=AXIS2_PLACEMENT_3D('',#1483,#1174,#1175);
#1030=AXIS2_PLACEMENT_3D('',#1500,#1184,#1185);
#1031=AXIS2_PLACEMENT_3D('',#1502,#1186,#1187);
#1032=AXIS2_PLACEMENT_3D('',#1504,#1188,#1189);
#1033=AXIS2_PLACEMENT_3D('',#1506,#1190,#1191);
#1034=AXIS2_PLACEMENT_3D('',#1508,#1192,#1193);
#1035=AXIS2_PLACEMENT_3D('',#1510,#1194,#1195);
#1036=AXIS2_PLACEMENT_3D('',#1515,#1197,#1198);
#1037=AXIS2_PLACEMENT_3D('',#1518,#1200,#1201);
#1038=AXIS2_PLACEMENT_3D('',#1521,#1202,#1203);
#1039=AXIS2_PLACEMENT_3D('',#1523,#1204,#1205);
#1040=AXIS2_PLACEMENT_3D('',#1525,#1206,#1207);
#1041=AXIS2_PLACEMENT_3D('',#1527,#1208,#1209);
#1042=AXIS2_PLACEMENT_3D('',#1529,#1210,#1211);
#1043=AXIS2_PLACEMENT_3D('',#1531,#1212,#1213);
#1044=AXIS2_PLACEMENT_3D('',#1533,#1214,#1215);
#1045=AXIS2_PLACEMENT_3D('',#1535,#1216,#1217);
#1046=AXIS2_PLACEMENT_3D('',#1536,#1218,#1219);
#1047=AXIS2_PLACEMENT_3D('',#1538,#1220,#1221);
#1048=AXIS2_PLACEMENT_3D('',#1540,#1222,#1223);
#1049=AXIS2_PLACEMENT_3D('',#1543,#1225,#1226);
#1050=AXIS2_PLACEMENT_3D('',#1544,#1227,#1228);
#1051=AXIS2_PLACEMENT_3D('',#1546,#1229,#1230);
#1052=AXIS2_PLACEMENT_3D('',#1548,#1232,#1233);
#1053=AXIS2_PLACEMENT_3D('',#1550,#1234,#1235);
#1054=AXIS2_PLACEMENT_3D('',#1552,#1237,#1238);
#1055=AXIS2_PLACEMENT_3D('',#1555,#1239,#1240);
#1056=AXIS2_PLACEMENT_3D('',#1558,#1243,#1244);
#1057=AXIS2_PLACEMENT_3D('',#1561,#1246,#1247);
#1058=AXIS2_PLACEMENT_3D('',#1562,#1248,#1249);
#1059=AXIS2_PLACEMENT_3D('',#1566,#1251,#1252);
#1060=AXIS2_PLACEMENT_3D('',#1568,#1254,#1255);
#1061=AXIS2_PLACEMENT_3D('',#1570,#1256,#1257);
#1062=AXIS2_PLACEMENT_3D('',#1572,#1259,#1260);
#1063=AXIS2_PLACEMENT_3D('',#1574,#1261,#1262);
#1064=AXIS2_PLACEMENT_3D('',#1576,#1264,#1265);
#1065=AXIS2_PLACEMENT_3D('',#1578,#1266,#1267);
#1066=AXIS2_PLACEMENT_3D('',#1580,#1269,#1270);
#1067=AXIS2_PLACEMENT_3D('',#1582,#1271,#1272);
#1068=AXIS2_PLACEMENT_3D('',#1584,#1274,#1275);
#1069=AXIS2_PLACEMENT_3D('',#1587,#1277,#1278);
#1070=AXIS2_PLACEMENT_3D('',#1588,#1279,#1280);
#1071=AXIS2_PLACEMENT_3D('',#1590,#1282,#1283);
#1072=AXIS2_PLACEMENT_3D('',#1591,#1284,#1285);
#1073=AXIS2_PLACEMENT_3D('',#1592,#1286,#1287);
#1074=AXIS2_PLACEMENT_3D('',#1593,#1288,#1289);
#1075=AXIS2_PLACEMENT_3D('',#1594,#1290,#1291);
#1076=AXIS2_PLACEMENT_3D('',#1600,#1295,#1296);
#1077=AXIS2_PLACEMENT_3D('',#1603,#1298,#1299);
#1078=AXIS2_PLACEMENT_3D('',#1604,#1300,#1301);
#1079=AXIS2_PLACEMENT_3D('',#1608,#1304,#1305);
#1080=AXIS2_PLACEMENT_3D('',#1609,#1306,#1307);
#1081=AXIS2_PLACEMENT_3D('',#1610,#1308,#1309);
#1082=AXIS2_PLACEMENT_3D('',#1614,#1311,#1312);
#1083=AXIS2_PLACEMENT_3D('',#1616,#1314,#1315);
#1084=AXIS2_PLACEMENT_3D('',#1620,#1318,#1319);
#1085=AXIS2_PLACEMENT_3D('',#1626,#1323,#1324);
#1086=AXIS2_PLACEMENT_3D('',#1646,#1335,#1336);
#1087=AXIS2_PLACEMENT_3D('',#1648,#1337,#1338);
#1088=AXIS2_PLACEMENT_3D('',#1650,#1339,#1340);
#1089=AXIS2_PLACEMENT_3D('',#1652,#1341,#1342);
#1090=AXIS2_PLACEMENT_3D('',#1654,#1343,#1344);
#1091=AXIS2_PLACEMENT_3D('',#1656,#1345,#1346);
#1092=AXIS2_PLACEMENT_3D('',#1657,#1347,#1348);
#1093=AXIS2_PLACEMENT_3D('',#1659,#1350,#1351);
#1094=AXIS2_PLACEMENT_3D('',#1661,#1353,#1354);
#1095=AXIS2_PLACEMENT_3D('',#1663,#1356,#1357);
#1096=AXIS2_PLACEMENT_3D('',#1664,#1358,#1359);
#1097=AXIS2_PLACEMENT_3D('',#1667,#1362,#1363);
#1098=AXIS2_PLACEMENT_3D('',#1669,#1365,#1366);
#1099=AXIS2_PLACEMENT_3D('',#1672,#1368,#1369);
#1100=AXIS2_PLACEMENT_3D('',#1673,#1370,#1371);
#1101=AXIS2_PLACEMENT_3D('',#1676,#1373,#1374);
#1102=AXIS2_PLACEMENT_3D('',#1677,#1375,#1376);
#1103=AXIS2_PLACEMENT_3D('',#1680,#1378,#1379);
#1104=AXIS2_PLACEMENT_3D('',#1681,#1380,#1381);
#1105=AXIS2_PLACEMENT_3D('',#1684,#1383,#1384);
#1106=AXIS2_PLACEMENT_3D('',#1685,#1385,#1386);
#1107=AXIS2_PLACEMENT_3D('',#1687,#1387,#1388);
#1108=AXIS2_PLACEMENT_3D('',#1688,#1389,#1390);
#1109=AXIS2_PLACEMENT_3D('',#1690,#1391,#1392);
#1110=AXIS2_PLACEMENT_3D('',#1691,#1393,#1394);
#1111=AXIS2_PLACEMENT_3D('',#1693,#1395,#1396);
#1112=AXIS2_PLACEMENT_3D('',#1694,#1397,#1398);
#1113=AXIS2_PLACEMENT_3D('',#1696,#1399,#1400);
#1114=AXIS2_PLACEMENT_3D('',#1697,#1401,#1402);
#1115=AXIS2_PLACEMENT_3D('',#1699,#1404,#1405);
#1116=AXIS2_PLACEMENT_3D('',#1701,#1407,#1408);
#1117=AXIS2_PLACEMENT_3D('',#1702,#1409,#1410);
#1118=AXIS2_PLACEMENT_3D('',#1703,#1411,#1412);
#1119=AXIS2_PLACEMENT_3D('',#1705,#1414,#1415);
#1120=AXIS2_PLACEMENT_3D('',#1707,#1417,#1418);
#1121=AXIS2_PLACEMENT_3D('',#1709,#1420,#1421);
#1122=AXIS2_PLACEMENT_3D('',#1711,#1423,#1424);
#1123=AXIS2_PLACEMENT_3D('',#1713,#1426,#1427);
#1124=AXIS2_PLACEMENT_3D('',#1715,#1429,#1430);
#1125=DIRECTION('axis',(0.,0.,1.));
#1126=DIRECTION('refdir',(1.,0.,0.));
#1127=DIRECTION('axis',(0.,0.,1.));
#1128=DIRECTION('refdir',(1.,0.,0.));
#1129=DIRECTION('center_axis',(-1.1603860709186E-14,1.,5.11914045483893E-16));
#1130=DIRECTION('ref_axis',(1.70578145029092E-15,-5.11914045483873E-16,
1.));
#1131=DIRECTION('',(2.22406790967622E-15,5.11914045483918E-16,-1.));
#1132=DIRECTION('',(1.,1.1603860709186E-14,-1.6442130282781E-15));
#1133=DIRECTION('',(1.70578145029092E-15,-5.11914045483873E-16,1.));
#1134=DIRECTION('',(1.,1.1603860709186E-14,-1.6442130282781E-15));
#1135=DIRECTION('center_axis',(-1.,-1.1603860709186E-14,1.6442130282781E-15));
#1136=DIRECTION('ref_axis',(1.05726359724933E-14,-0.953732511218701,-0.300656443543906));
#1137=DIRECTION('center_axis',(1.,3.72226780037242E-17,2.22406790967622E-15));
#1138=DIRECTION('ref_axis',(1.05726359724933E-14,-0.953732511218701,-0.300656443543906));
#1139=DIRECTION('',(1.,1.1603860709186E-14,-1.6442130282781E-15));
#1140=DIRECTION('center_axis',(-1.,-1.15252000850905E-14,1.70578145029091E-15));
#1141=DIRECTION('ref_axis',(1.05726359724933E-14,-0.953732511218701,-0.300656443543906));
#1142=DIRECTION('center_axis',(1.1603860709186E-14,-1.,-5.11914045483893E-16));
#1143=DIRECTION('ref_axis',(-1.70578145029092E-15,5.11914045483873E-16,
-1.));
#1144=DIRECTION('',(-2.22406790967622E-15,-5.11914045483918E-16,1.));
#1145=DIRECTION('',(1.,1.1603860709186E-14,-1.6442130282781E-15));
#1146=DIRECTION('',(-1.70578145029092E-15,5.11914045483873E-16,-1.));
#1147=DIRECTION('center_axis',(-1.,-1.1603860709186E-14,1.6442130282781E-15));
#1148=DIRECTION('ref_axis',(-1.1603860709186E-14,1.,5.11914045483893E-16));
#1149=DIRECTION('center_axis',(1.,3.72226780037242E-17,2.22406790967622E-15));
#1150=DIRECTION('ref_axis',(-1.1603860709186E-14,1.,5.11914045483893E-16));
#1151=DIRECTION('center_axis',(-1.,-1.15252000850905E-14,1.70578145029091E-15));
#1152=DIRECTION('ref_axis',(-1.1603860709186E-14,1.,5.11914045483893E-16));
#1153=DIRECTION('center_axis',(-1.,-1.15205939823391E-14,1.6442130282781E-15));
#1154=DIRECTION('ref_axis',(1.02041887010238E-14,-0.799841262830912,0.600211591251828));
#1155=DIRECTION('center_axis',(1.,3.72226780037242E-17,2.22406790967622E-15));
#1156=DIRECTION('ref_axis',(1.02041887010238E-14,-0.799841262830912,0.600211591251828));
#1157=DIRECTION('',(1.,1.15205939823391E-14,-1.6442130282781E-15));
#1158=DIRECTION('center_axis',(-1.,-1.15252000850905E-14,1.70578145029091E-15));
#1159=DIRECTION('ref_axis',(1.02041887010238E-14,-0.799841262830912,0.600211591251828));
#1160=DIRECTION('',(-1.,-1.15205939823391E-14,1.6442130282781E-15));
#1161=DIRECTION('center_axis',(-1.,-1.15205939823391E-14,1.6442130282781E-15));
#1162=DIRECTION('ref_axis',(1.15205939823391E-14,-1.,-5.11914045483892E-16));
#1163=DIRECTION('center_axis',(-1.,-1.15252000850905E-14,1.70578145029091E-15));
#1164=DIRECTION('ref_axis',(1.15205939823391E-14,-1.,-5.11914045483892E-16));
#1165=DIRECTION('',(1.,1.15205939823391E-14,-1.6442130282781E-15));
#1166=DIRECTION('center_axis',(1.,3.72226780037242E-17,2.22406790967622E-15));
#1167=DIRECTION('ref_axis',(1.15205939823391E-14,-1.,-5.11914045483892E-16));
#1168=DIRECTION('center_axis',(-1.,-3.72226780037242E-17,-2.22406790967622E-15));
#1169=DIRECTION('ref_axis',(3.72226780037256E-17,-1.,-6.16779505745112E-16));
#1170=DIRECTION('',(1.54633309272107E-15,0.707106781186553,-0.707106781186542));
#1171=DIRECTION('',(-3.72226780037245E-17,1.,2.69834810549751E-16));
#1172=DIRECTION('',(-1.5989739087818E-15,0.707106781186548,0.707106781186547));
#1173=DIRECTION('',(-2.22406790967622E-15,-6.16779505745112E-16,1.));
#1174=DIRECTION('center_axis',(-1.,-3.72226780037242E-17,-2.22406790967622E-15));
#1175=DIRECTION('ref_axis',(-1.05185038992452E-15,-0.707106781186548,0.707106781186547));
#1176=DIRECTION('',(3.72226780037259E-17,-1.,-6.16779505745112E-16));
#1177=DIRECTION('',(-1.59897390878179E-15,0.707106781186547,0.707106781186548));
#1178=DIRECTION('',(2.22406790967622E-15,6.16779505745112E-16,-1.));
#1179=DIRECTION('',(1.9074879705195E-15,0.5,-0.866025403784439));
#1180=DIRECTION('',(-1.07979817008999E-15,-0.866025403784438,0.5));
#1181=DIRECTION('',(-1.22464679914734E-16,-1.,-6.16779505745112E-16));
#1182=DIRECTION('',(1.5989739087818E-15,-0.707106781186547,-0.707106781186548));
#1183=DIRECTION('',(-2.34653258959095E-15,-3.39223749588823E-16,1.));
#1184=DIRECTION('center_axis',(1.,3.72226780037242E-17,2.22406790967622E-15));
#1185=DIRECTION('ref_axis',(2.22406790967622E-15,6.16779505745112E-16,-1.));
#1186=DIRECTION('center_axis',(1.,3.72226780037242E-17,2.22406790967622E-15));
#1187=DIRECTION('ref_axis',(2.22406790967622E-15,6.16779505745112E-16,-1.));
#1188=DIRECTION('center_axis',(-1.,-3.72226780037242E-17,-2.22406790967622E-15));
#1189=DIRECTION('ref_axis',(2.22406790967622E-15,6.16779505745112E-16,-1.));
#1190=DIRECTION('center_axis',(1.,3.72226780037242E-17,2.22406790967622E-15));
#1191=DIRECTION('ref_axis',(2.22406790967622E-15,6.16779505745112E-16,-1.));
#1192=DIRECTION('center_axis',(1.,3.72226780037242E-17,2.22406790967622E-15));
#1193=DIRECTION('ref_axis',(2.22406790967622E-15,6.16779505745112E-16,-1.));
#1194=DIRECTION('center_axis',(1.,3.72226780037242E-17,2.22406790967622E-15));
#1195=DIRECTION('ref_axis',(2.22406790967622E-15,6.16779505745112E-16,-1.));
#1196=DIRECTION('',(3.72226780037254E-17,-1.,-5.11914045483873E-16));
#1197=DIRECTION('center_axis',(1.,3.72226780037242E-17,2.22406790967622E-15));
#1198=DIRECTION('ref_axis',(-1.64421302827811E-15,5.11914045483874E-16,
-1.));
#1199=DIRECTION('',(-3.72226780037254E-17,1.,5.11914045483873E-16));
#1200=DIRECTION('center_axis',(1.,3.72226780037242E-17,2.22406790967622E-15));
#1201=DIRECTION('ref_axis',(1.64421302827809E-15,9.68383298624853E-16,1.));
#1202=DIRECTION('center_axis',(1.,3.72226780037242E-17,2.22406790967622E-15));
#1203=DIRECTION('ref_axis',(9.94815080970628E-15,-0.773908291364347,0.633297683998226));
#1204=DIRECTION('center_axis',(1.,3.72226780037242E-17,2.22406790967622E-15));
#1205=DIRECTION('ref_axis',(1.00549634463492E-14,-0.926489843536284,-0.376319770705862));
#1206=DIRECTION('center_axis',(1.,3.72226780037242E-17,2.22406790967622E-15));
#1207=DIRECTION('ref_axis',(-1.21077614731184E-15,0.244554913812465,0.969635443932501));
#1208=DIRECTION('center_axis',(1.,3.72226780037242E-17,2.22406790967622E-15));
#1209=DIRECTION('ref_axis',(1.15205939823391E-14,-1.,-5.11914045483892E-16));
#1210=DIRECTION('center_axis',(1.,3.72226780037242E-17,2.22406790967622E-15));
#1211=DIRECTION('ref_axis',(-7.76018094816261E-15,0.766036433178616,0.642797155440955));
#1212=DIRECTION('center_axis',(1.,3.72226780037242E-17,2.22406790967622E-15));
#1213=DIRECTION('ref_axis',(1.64421302827811E-15,-5.11914045483874E-16,
1.));
#1214=DIRECTION('center_axis',(1.,3.72226780037242E-17,2.22406790967622E-15));
#1215=DIRECTION('ref_axis',(-6.66333102289495E-17,0.14695385445491,0.989143348893802));
#1216=DIRECTION('center_axis',(-1.,-3.72226780037242E-17,-2.22406790967622E-15));
#1217=DIRECTION('ref_axis',(-3.94890004460184E-15,0.460296649812127,0.887765168370404));
#1218=DIRECTION('center_axis',(1.,3.72226780037242E-17,2.22406790967622E-15));
#1219=DIRECTION('ref_axis',(-8.45504616817362E-15,0.622175203469048,-0.782878034043777));
#1220=DIRECTION('center_axis',(1.,3.72226780037242E-17,2.22406790967622E-15));
#1221=DIRECTION('ref_axis',(-8.23337036868566E-15,0.799841262830908,0.600211591251833));
#1222=DIRECTION('center_axis',(1.,3.72226780037242E-17,2.22406790967622E-15));
#1223=DIRECTION('ref_axis',(1.64421302827811E-15,-5.11914045483873E-16,
1.));
#1224=DIRECTION('',(3.72226780037254E-17,-1.,-5.11914045483873E-16));
#1225=DIRECTION('center_axis',(1.,3.72226780037242E-17,2.22406790967622E-15));
#1226=DIRECTION('ref_axis',(-1.64421302827811E-15,5.11914045483873E-16,
-1.));
#1227=DIRECTION('center_axis',(-1.,-1.15205939823391E-14,1.6442130282781E-15));
#1228=DIRECTION('ref_axis',(-8.23337036868566E-15,0.799841262830908,0.600211591251833));
#1229=DIRECTION('center_axis',(-1.,-1.15252000850905E-14,1.70578145029091E-15));
#1230=DIRECTION('ref_axis',(-8.23337036868566E-15,0.799841262830908,0.600211591251833));
#1231=DIRECTION('',(-1.,-1.15205939823391E-14,1.6442130282781E-15));
#1232=DIRECTION('center_axis',(-1.,-1.15205939823391E-14,1.6442130282781E-15));
#1233=DIRECTION('ref_axis',(1.64421302827811E-15,-5.11914045483873E-16,
1.));
#1234=DIRECTION('center_axis',(-1.,-1.15252000850905E-14,1.70578145029091E-15));
#1235=DIRECTION('ref_axis',(1.64421302827811E-15,-5.11914045483873E-16,
1.));
#1236=DIRECTION('',(1.,1.15205939823391E-14,-1.6442130282781E-15));
#1237=DIRECTION('center_axis',(-1.,-1.15205939823391E-14,1.6442130282781E-15));
#1238=DIRECTION('ref_axis',(-3.94890004460184E-15,0.460296649812127,0.887765168370404));
#1239=DIRECTION('center_axis',(1.,1.15252000850905E-14,-1.70578145029091E-15));
#1240=DIRECTION('ref_axis',(-3.94890004460184E-15,0.460296649812127,0.887765168370404));
#1241=DIRECTION('',(-1.,-1.15205939823391E-14,1.6442130282781E-15));
#1242=DIRECTION('',(1.,1.15205939823391E-14,-1.6442130282781E-15));
#1243=DIRECTION('center_axis',(-1.,-1.15205939823391E-14,1.6442130282781E-15));
#1244=DIRECTION('ref_axis',(-6.66333102289495E-17,0.14695385445491,0.989143348893802));
#1245=DIRECTION('',(1.,1.15205939823391E-14,-1.6442130282781E-15));
#1246=DIRECTION('center_axis',(-1.,-1.15252000850905E-14,1.70578145029091E-15));
#1247=DIRECTION('ref_axis',(-6.66333102289495E-17,0.14695385445491,0.989143348893802));
#1248=DIRECTION('center_axis',(-1.,-1.15205939823391E-14,1.6442130282781E-15));
#1249=DIRECTION('ref_axis',(9.94815080970628E-15,-0.773908291364347,0.633297683998226));
#1250=DIRECTION('',(1.,1.15205939823391E-14,-1.6442130282781E-15));
#1251=DIRECTION('center_axis',(-1.,-1.15252000850905E-14,1.70578145029091E-15));
#1252=DIRECTION('ref_axis',(9.94815080970628E-15,-0.773908291364347,0.633297683998226));
#1253=DIRECTION('',(-1.,-1.15205939823391E-14,1.6442130282781E-15));
#1254=DIRECTION('center_axis',(-1.,-1.15205939823391E-14,1.6442130282781E-15));
#1255=DIRECTION('ref_axis',(1.00549634463492E-14,-0.926489843536284,-0.376319770705862));
#1256=DIRECTION('center_axis',(-1.,-1.15252000850905E-14,1.70578145029091E-15));
#1257=DIRECTION('ref_axis',(1.00549634463492E-14,-0.926489843536284,-0.376319770705862));
#1258=DIRECTION('',(1.,1.15205939823391E-14,-1.6442130282781E-15));
#1259=DIRECTION('center_axis',(-1.,-1.15205939823391E-14,1.6442130282781E-15));
#1260=DIRECTION('ref_axis',(-1.21077614731184E-15,0.244554913812465,0.969635443932501));
#1261=DIRECTION('center_axis',(-1.,-1.15252000850905E-14,1.70578145029091E-15));
#1262=DIRECTION('ref_axis',(-1.21077614731184E-15,0.244554913812465,0.969635443932501));
#1263=DIRECTION('',(-1.,-1.15205939823391E-14,1.6442130282781E-15));
#1264=DIRECTION('center_axis',(-1.,-1.15205939823391E-14,1.6442130282781E-15));
#1265=DIRECTION('ref_axis',(1.15205939823391E-14,-1.,-5.11914045483892E-16));
#1266=DIRECTION('center_axis',(-1.,-1.15252000850905E-14,1.70578145029091E-15));
#1267=DIRECTION('ref_axis',(1.15205939823391E-14,-1.,-5.11914045483892E-16));
#1268=DIRECTION('',(1.,1.15205939823391E-14,-1.6442130282781E-15));
#1269=DIRECTION('center_axis',(-1.,-1.15205939823391E-14,1.6442130282781E-15));
#1270=DIRECTION('ref_axis',(-7.76018094816261E-15,0.766036433178616,0.642797155440955));
#1271=DIRECTION('center_axis',(-1.,-1.15252000850905E-14,1.70578145029091E-15));
#1272=DIRECTION('ref_axis',(-7.76018094816261E-15,0.766036433178616,0.642797155440955));
#1273=DIRECTION('',(-1.,-1.15205939823391E-14,1.6442130282781E-15));
#1274=DIRECTION('center_axis',(-1.,-1.15205939823391E-14,1.6442130282781E-15));
#1275=DIRECTION('ref_axis',(-1.64421302827811E-15,5.11914045483873E-16,
-1.));
#1276=DIRECTION('',(1.,1.15205939823391E-14,-1.6442130282781E-15));
#1277=DIRECTION('center_axis',(-1.,-1.15252000850905E-14,1.70578145029091E-15));
#1278=DIRECTION('ref_axis',(-1.64421302827811E-15,5.11914045483873E-16,
-1.));
#1279=DIRECTION('center_axis',(-1.64421302827811E-15,5.11914045483873E-16,
-1.));
#1280=DIRECTION('ref_axis',(-1.15252000850905E-14,1.,5.11914045483892E-16));
#1281=DIRECTION('',(-1.15252000850905E-14,1.,5.11914045483892E-16));
#1282=DIRECTION('center_axis',(-1.,-1.15205939823391E-14,1.6442130282781E-15));
#1283=DIRECTION('ref_axis',(-8.45504616817362E-15,0.622175203469048,-0.782878034043777));
#1284=DIRECTION('center_axis',(-1.,-1.15252000850905E-14,1.70578145029091E-15));
#1285=DIRECTION('ref_axis',(-8.45504616817362E-15,0.622175203469048,-0.782878034043777));
#1286=DIRECTION('center_axis',(-1.,-1.15205939823391E-14,1.6442130282781E-15));
#1287=DIRECTION('ref_axis',(1.64421302827811E-15,-5.11914045483874E-16,
1.));
#1288=DIRECTION('center_axis',(-1.,-1.15252000850905E-14,1.70578145029091E-15));
#1289=DIRECTION('ref_axis',(1.64421302827811E-15,-5.11914045483874E-16,
1.));
#1290=DIRECTION('center_axis',(1.64421302827811E-15,-5.11914045483873E-16,
1.));
#1291=DIRECTION('ref_axis',(1.15252000850905E-14,-1.,-5.11914045483892E-16));
#1292=DIRECTION('',(1.,1.15205939823391E-14,-1.6442130282781E-15));
#1293=DIRECTION('',(1.15252000850905E-14,-1.,-5.11914045483892E-16));
#1294=DIRECTION('',(1.,1.15205939823391E-14,-1.6442130282781E-15));
#1295=DIRECTION('center_axis',(-1.,-1.15205939823391E-14,1.6442130282781E-15));
#1296=DIRECTION('ref_axis',(-1.64421302827811E-15,5.11914045483874E-16,
-1.));
#1297=DIRECTION('',(1.,1.15205939823391E-14,-1.6442130282781E-15));
#1298=DIRECTION('center_axis',(-1.,-1.15252000850905E-14,1.70578145029091E-15));
#1299=DIRECTION('ref_axis',(-1.64421302827811E-15,5.11914045483874E-16,
-1.));
#1300=DIRECTION('center_axis',(-1.64421302827811E-15,5.11914045483873E-16,
-1.));
#1301=DIRECTION('ref_axis',(-1.15252000850905E-14,1.,5.11914045483892E-16));
#1302=DIRECTION('',(1.,1.15205939823391E-14,-1.6442130282781E-15));
#1303=DIRECTION('',(-1.15252000850905E-14,1.,5.11914045483892E-16));
#1304=DIRECTION('center_axis',(-1.,-1.15205939823391E-14,1.6442130282781E-15));
#1305=DIRECTION('ref_axis',(1.64421302827809E-15,9.68383298624853E-16,1.));
#1306=DIRECTION('center_axis',(-1.,-1.15252000850905E-14,1.70578145029091E-15));
#1307=DIRECTION('ref_axis',(1.64421302827809E-15,9.68383298624853E-16,1.));
#1308=DIRECTION('center_axis',(1.,-1.22464679914735E-16,2.22406790967622E-15));
#1309=DIRECTION('ref_axis',(-1.05185038992452E-15,-0.707106781186548,0.707106781186547));
#1310=DIRECTION('',(1.,-1.22464679914735E-16,2.22406790967622E-15));
#1311=DIRECTION('center_axis',(1.,1.15252000850905E-14,-1.70578145029091E-15));
#1312=DIRECTION('ref_axis',(-1.05185038992452E-15,-0.707106781186548,0.707106781186547));
#1313=DIRECTION('',(-1.,1.22464679914735E-16,-2.22406790967622E-15));
#1314=DIRECTION('center_axis',(-2.22406790967622E-15,-6.16779505745112E-16,
1.));
#1315=DIRECTION('ref_axis',(1.,-1.22464679914735E-16,2.22406790967622E-15));
#1316=DIRECTION('',(1.22464679914733E-16,1.,6.16779505745112E-16));
#1317=DIRECTION('',(-1.,1.22464679914735E-16,-2.22406790967622E-15));
#1318=DIRECTION('center_axis',(-1.48605789512791E-15,0.707106781186542,
0.707106781186553));
#1319=DIRECTION('ref_axis',(1.,6.60904674076557E-32,2.10160322976149E-15));
#1320=DIRECTION('',(9.35571676542222E-15,-0.707106781186553,0.707106781186542));
#1321=DIRECTION('',(-1.,1.22464679914735E-16,-2.22406790967622E-15));
#1322=DIRECTION('',(1.,-1.22464679914735E-16,2.22406790967622E-15));
#1323=DIRECTION('center_axis',(1.,1.15252000850905E-14,-1.70578145029091E-15));
#1324=DIRECTION('ref_axis',(1.70578145029094E-15,-2.25679387742123E-15,
1.));
#1325=DIRECTION('',(2.22406790967622E-15,3.39223749588823E-16,-1.));
#1326=DIRECTION('',(1.48605789512789E-15,-0.707106781186547,-0.707106781186548));
#1327=DIRECTION('',(-1.15252000850905E-14,1.,6.16779505745086E-16));
#1328=DIRECTION('',(-1.21809147871059E-15,-0.866025403784438,0.5));
#1329=DIRECTION('',(-1.98733164947873E-15,-0.5,0.866025403784439));
#1330=DIRECTION('',(-2.22406790967622E-15,-6.16779505745112E-16,1.));
#1331=DIRECTION('',(-1.48605789512789E-15,0.707106781186547,0.707106781186548));
#1332=DIRECTION('',(-1.70578145029092E-15,6.16779505745113E-16,-1.));
#1333=DIRECTION('',(6.94337750397632E-15,-0.707106781186548,-0.707106781186547));
#1334=DIRECTION('',(-1.22464679914734E-16,-1.,-2.69834810549751E-16));
#1335=DIRECTION('center_axis',(-1.,1.22464679914735E-16,-2.22406790967622E-15));
#1336=DIRECTION('ref_axis',(2.22406790967622E-15,6.16779505745112E-16,-1.));
#1337=DIRECTION('center_axis',(-1.,1.22464679914735E-16,-2.22406790967622E-15));
#1338=DIRECTION('ref_axis',(2.22406790967622E-15,6.16779505745112E-16,-1.));
#1339=DIRECTION('center_axis',(-1.,1.22464679914735E-16,-2.22406790967622E-15));
#1340=DIRECTION('ref_axis',(2.22406790967622E-15,6.16779505745112E-16,-1.));
#1341=DIRECTION('center_axis',(-1.,1.22464679914735E-16,-2.22406790967622E-15));
#1342=DIRECTION('ref_axis',(2.22406790967622E-15,6.16779505745112E-16,-1.));
#1343=DIRECTION('center_axis',(-1.,1.22464679914735E-16,-2.22406790967622E-15));
#1344=DIRECTION('ref_axis',(2.22406790967622E-15,6.16779505745112E-16,-1.));
#1345=DIRECTION('center_axis',(-1.,1.22464679914735E-16,-2.22406790967622E-15));
#1346=DIRECTION('ref_axis',(2.22406790967622E-15,6.16779505745112E-16,-1.));
#1347=DIRECTION('center_axis',(-2.22406790967622E-15,-2.69834810549751E-16,
1.));
#1348=DIRECTION('ref_axis',(-1.22464679914734E-16,-1.,-2.69834810549751E-16));
#1349=DIRECTION('',(1.,-1.22464679914735E-16,2.22406790967622E-15));
#1350=DIRECTION('center_axis',(-1.65924910637499E-15,-0.707106781186547,
0.707106781186548));
#1351=DIRECTION('ref_axis',(1.,-6.60904674076564E-32,2.34653258959095E-15));
#1352=DIRECTION('',(-1.,1.22464679914735E-16,-2.22406790967622E-15));
#1353=DIRECTION('center_axis',(1.22464679914734E-16,1.,3.39223749588823E-16));
#1354=DIRECTION('ref_axis',(-2.22406790967622E-15,-3.39223749588823E-16,
1.));
#1355=DIRECTION('',(-1.,1.22464679914735E-16,-2.22406790967622E-15));
#1356=DIRECTION('center_axis',(-1.22464679914733E-16,-1.,-6.16779505745112E-16));
#1357=DIRECTION('ref_axis',(1.,-1.22464679914735E-16,2.22406790967622E-15));
#1358=DIRECTION('center_axis',(-1.22464679914733E-16,-1.,-6.16779505745112E-16));
#1359=DIRECTION('ref_axis',(1.,-1.22464679914735E-16,2.22406790967622E-15));
#1360=DIRECTION('',(1.,-1.22464679914735E-16,2.22406790967622E-15));
#1361=DIRECTION('',(1.,-1.22464679914735E-16,2.22406790967622E-15));
#1362=DIRECTION('center_axis',(1.00597643096561E-15,-0.866025403784439,
-0.5));
#1363=DIRECTION('ref_axis',(1.98733164947872E-15,0.5,-0.866025403784439));
#1364=DIRECTION('',(1.,-1.22464679914735E-16,2.22406790967622E-15));
#1365=DIRECTION('center_axis',(1.,-1.22464679914735E-16,2.22406790967622E-15));
#1366=DIRECTION('ref_axis',(2.22406790967622E-15,6.16779505745112E-16,-1.));
#1367=DIRECTION('',(-1.,1.22464679914735E-16,-2.22406790967622E-15));
#1368=DIRECTION('center_axis',(1.,-1.22464679914735E-16,2.22406790967622E-15));
#1369=DIRECTION('ref_axis',(2.22406790967622E-15,6.16779505745112E-16,-1.));
#1370=DIRECTION('center_axis',(1.,-1.22464679914735E-16,2.22406790967622E-15));
#1371=DIRECTION('ref_axis',(2.22406790967622E-15,6.16779505745112E-16,-1.));
#1372=DIRECTION('',(-1.,1.22464679914735E-16,-2.22406790967622E-15));
#1373=DIRECTION('center_axis',(-1.,1.22464679914735E-16,-2.22406790967622E-15));
#1374=DIRECTION('ref_axis',(2.22406790967622E-15,6.16779505745112E-16,-1.));
#1375=DIRECTION('center_axis',(1.,-1.22464679914735E-16,2.22406790967622E-15));
#1376=DIRECTION('ref_axis',(2.22406790967622E-15,6.16779505745112E-16,-1.));
#1377=DIRECTION('',(-1.,1.22464679914735E-16,-2.22406790967622E-15));
#1378=DIRECTION('center_axis',(-1.,1.22464679914735E-16,-2.22406790967622E-15));
#1379=DIRECTION('ref_axis',(2.22406790967622E-15,6.16779505745112E-16,-1.));
#1380=DIRECTION('center_axis',(1.,-1.22464679914735E-16,2.22406790967622E-15));
#1381=DIRECTION('ref_axis',(2.22406790967622E-15,6.16779505745112E-16,-1.));
#1382=DIRECTION('',(-1.,1.22464679914735E-16,-2.22406790967622E-15));
#1383=DIRECTION('center_axis',(-1.,1.22464679914735E-16,-2.22406790967622E-15));
#1384=DIRECTION('ref_axis',(2.22406790967622E-15,6.16779505745112E-16,-1.));
#1385=DIRECTION('center_axis',(1.,-1.22464679914735E-16,2.22406790967622E-15));
#1386=DIRECTION('ref_axis',(2.22406790967622E-15,6.16779505745112E-16,-1.));
#1387=DIRECTION('center_axis',(-1.,1.22464679914735E-16,-2.22406790967622E-15));
#1388=DIRECTION('ref_axis',(2.22406790967622E-15,6.16779505745112E-16,-1.));
#1389=DIRECTION('center_axis',(1.,-1.22464679914735E-16,2.22406790967622E-15));
#1390=DIRECTION('ref_axis',(2.22406790967622E-15,6.16779505745112E-16,-1.));
#1391=DIRECTION('center_axis',(-1.,1.22464679914735E-16,-2.22406790967622E-15));
#1392=DIRECTION('ref_axis',(2.22406790967622E-15,6.16779505745112E-16,-1.));
#1393=DIRECTION('center_axis',(1.,-1.22464679914735E-16,2.22406790967622E-15));
#1394=DIRECTION('ref_axis',(2.22406790967622E-15,6.16779505745112E-16,-1.));
#1395=DIRECTION('center_axis',(1.,-1.22464679914735E-16,2.22406790967622E-15));
#1396=DIRECTION('ref_axis',(2.22406790967622E-15,6.16779505745112E-16,-1.));
#1397=DIRECTION('center_axis',(1.,-1.22464679914735E-16,2.22406790967622E-15));
#1398=DIRECTION('ref_axis',(2.22406790967622E-15,6.16779505745112E-16,-1.));
#1399=DIRECTION('center_axis',(-1.,1.22464679914735E-16,-2.22406790967622E-15));
#1400=DIRECTION('ref_axis',(2.22406790967622E-15,6.16779505745112E-16,-1.));
#1401=DIRECTION('center_axis',(-1.65924910637498E-15,-0.707106781186548,
0.707106781186547));
#1402=DIRECTION('ref_axis',(1.,-1.2246467991473E-16,2.22406790967621E-15));
#1403=DIRECTION('',(1.,-1.22464679914722E-16,2.22406790967622E-15));
#1404=DIRECTION('center_axis',(2.22406790967622E-15,6.16779505745112E-16,
-1.));
#1405=DIRECTION('ref_axis',(-1.,1.22464679914735E-16,-2.22406790967622E-15));
#1406=DIRECTION('',(-1.,1.22464679914747E-16,-2.22406790967622E-15));
#1407=DIRECTION('center_axis',(-1.86486696956398E-15,0.5,0.866025403784438));
#1408=DIRECTION('ref_axis',(1.,-1.22464679914732E-16,2.22406790967621E-15));
#1409=DIRECTION('center_axis',(1.65924910637498E-15,0.707106781186548,-0.707106781186547));
#1410=DIRECTION('ref_axis',(1.,-1.22464679914731E-16,2.22406790967621E-15));
#1411=DIRECTION('center_axis',(1.,-1.22464679914735E-16,2.22406790967622E-15));
#1412=DIRECTION('ref_axis',(2.22406790967622E-15,6.16779505745112E-16,-1.));
#1413=DIRECTION('',(-1.,1.22464679914735E-16,-2.22406790967622E-15));
#1414=DIRECTION('center_axis',(1.,-1.22464679914735E-16,2.22406790967622E-15));
#1415=DIRECTION('ref_axis',(2.22406790967622E-15,6.16779505745112E-16,-1.));
#1416=DIRECTION('',(-1.,1.22464679914735E-16,-2.22406790967622E-15));
#1417=DIRECTION('center_axis',(1.,-1.22464679914735E-16,2.22406790967622E-15));
#1418=DIRECTION('ref_axis',(2.22406790967622E-15,6.16779505745112E-16,-1.));
#1419=DIRECTION('',(-1.,1.22464679914735E-16,-2.22406790967622E-15));
#1420=DIRECTION('center_axis',(1.,-1.22464679914735E-16,2.22406790967622E-15));
#1421=DIRECTION('ref_axis',(2.22406790967622E-15,6.16779505745112E-16,-1.));
#1422=DIRECTION('',(-1.,1.22464679914735E-16,-2.22406790967622E-15));
#1423=DIRECTION('center_axis',(1.,-1.22464679914735E-16,2.22406790967622E-15));
#1424=DIRECTION('ref_axis',(2.22406790967622E-15,6.16779505745112E-16,-1.));
#1425=DIRECTION('',(-1.,1.22464679914735E-16,-2.22406790967622E-15));
#1426=DIRECTION('center_axis',(1.,-1.22464679914735E-16,2.22406790967622E-15));
#1427=DIRECTION('ref_axis',(2.22406790967622E-15,6.16779505745112E-16,-1.));
#1428=DIRECTION('',(-1.,1.22464679914735E-16,-2.22406790967622E-15));
#1429=DIRECTION('',(1.,2.77555756156277E-17,-3.87190279838023E-15));
#1430=DIRECTION('',(-3.87190279838023E-15,-2.79585858009355E-16,-1.));
#1431=CARTESIAN_POINT('',(0.,0.,0.));
#1432=CARTESIAN_POINT('',(0.,0.,0.));
#1433=CARTESIAN_POINT('Origin',(6.27674972539331,-7.3674985977358,22.9863113676239));
#1434=CARTESIAN_POINT('',(12.8767497253936,-7.36749859773573,30.9863114868331));
#1435=CARTESIAN_POINT('',(12.8767497253936,-7.36749859773572,22.9863113676238));
#1436=CARTESIAN_POINT('',(12.8767497253936,-7.36749859773573,33.4983487045701));
#1437=CARTESIAN_POINT('',(6.27674972539331,-7.3674985977358,22.9863113676239));
#1438=CARTESIAN_POINT('',(6.27674972539331,-7.3674985977358,22.9863113676239));
#1439=CARTESIAN_POINT('',(6.27674972539332,-7.3674985977358,30.9863114868331));
#1440=CARTESIAN_POINT('',(6.27674972539329,-7.36749859773579,14.1483487043549));
#1441=CARTESIAN_POINT('',(6.27674972539332,-7.3674985977358,30.9863114868331));
#1442=CARTESIAN_POINT('Origin',(6.27674972539328,-4.8674985604829,23.7744161152534));
#1443=CARTESIAN_POINT('',(12.8767497253936,-2.36749852322992,22.9863113676238));
#1444=CARTESIAN_POINT('Origin',(12.8767497253933,-4.86749856048282,23.7744161152534));
#1445=CARTESIAN_POINT('',(6.27674972539325,-2.36749852322999,22.9863113676239));
#1446=CARTESIAN_POINT('',(6.27674972539325,-2.36749852322999,22.9863113676239));
#1447=CARTESIAN_POINT('Origin',(6.27674972539327,-4.8674985604829,23.7744161152534));
#1448=CARTESIAN_POINT('Origin',(6.27674972539326,-2.36749852323,30.9863114868332));
#1449=CARTESIAN_POINT('',(12.8767497253936,-2.36749852322992,30.9863114868331));
#1450=CARTESIAN_POINT('',(12.8767497253936,-2.36749852322993,37.4983487641747));
#1451=CARTESIAN_POINT('',(6.27674972539326,-2.36749852323,30.9863114868332));
#1452=CARTESIAN_POINT('',(6.27674972539326,-2.36749852323,30.9863114868332));
#1453=CARTESIAN_POINT('',(6.27674972539324,-2.36749852322999,18.1483487639596));
#1454=CARTESIAN_POINT('Origin',(6.27674972539329,-4.8674985604829,30.9863114868332));
#1455=CARTESIAN_POINT('Origin',(12.8767497253933,-4.86749856048282,30.9863114868331));
#1456=CARTESIAN_POINT('Origin',(6.27674972539329,-4.8674985604829,30.9863114868332));
#1457=CARTESIAN_POINT('Origin',(6.27674972539278,35.8162358081517,5.11884270486224));
#1458=CARTESIAN_POINT('',(12.8767497253934,-9.8077057599737,41.7344944918818));
#1459=CARTESIAN_POINT('',(12.8767497253935,-12.0917396616502,38.6907935922452));
#1460=CARTESIAN_POINT('Origin',(12.8767497253928,35.8162358081518,5.11884270486223));
#1461=CARTESIAN_POINT('',(6.27674972539337,-9.80770575997378,41.7344944918818));
#1462=CARTESIAN_POINT('',(6.27674972539337,-9.80770575997378,41.7344944918818));
#1463=CARTESIAN_POINT('',(6.27674972539339,-12.0917396616503,38.6907935922452));
#1464=CARTESIAN_POINT('Origin',(6.27674972539278,35.8162358081517,5.11884270486224));
#1465=CARTESIAN_POINT('',(6.27674972539339,-12.0917396616503,38.6907935922452));
#1466=CARTESIAN_POINT('Origin',(6.27674972539343,-15.3674987169451,40.9863116358447));
#1467=CARTESIAN_POINT('',(6.27674972539346,-18.6432577722399,38.6907935922451));
#1468=CARTESIAN_POINT('Origin',(6.27674972539343,-15.3674987169451,40.9863116358447));
#1469=CARTESIAN_POINT('',(12.8767497253935,-18.6432577722398,38.6907935922451));
#1470=CARTESIAN_POINT('',(6.27674972539347,-18.6432577722399,38.6907935922451));
#1471=CARTESIAN_POINT('Origin',(12.8767497253935,-15.367498716945,40.9863116358447));
#1472=CARTESIAN_POINT('Origin',(12.8767497253936,-26.5935004793716,44.0103860415162));
#1473=CARTESIAN_POINT('',(12.8767488268536,-48.3199977874756,4.85302672863548));
#1474=CARTESIAN_POINT('',(12.8767497253936,-43.0773571003562,-0.389613958483787));
#1475=CARTESIAN_POINT('',(12.8767497253937,-51.3670531168899,7.90008205804972));
#1476=CARTESIAN_POINT('',(12.8767497253936,-33.5626384745949,-0.389613958483784));
#1477=CARTESIAN_POINT('',(12.8767497253936,-32.4567491334236,-0.389613958483784));
#1478=CARTESIAN_POINT('',(12.8767497253937,-28.3199977874756,4.85302672863551));
#1479=CARTESIAN_POINT('',(12.8767497253937,-19.4096938040092,13.7633307121019));
#1480=CARTESIAN_POINT('',(12.8767497253937,-28.3199977874756,17.5106443417194));
#1481=CARTESIAN_POINT('',(12.8767497253937,-28.3199977874756,8.11664698848239));
#1482=CARTESIAN_POINT('',(12.8767497253937,-26.8199977874756,19.0106443417193));
#1483=CARTESIAN_POINT('Origin',(12.8767497253937,-26.8199977874756,17.5106443417194));
#1484=CARTESIAN_POINT('',(12.8767497253937,-3.21923442388459,19.0106443417193));
#1485=CARTESIAN_POINT('',(12.8767497253937,-18.5722184187186,19.0106443417193));
#1486=CARTESIAN_POINT('',(12.8767497253936,1.68000221252441,23.9098809781282));
#1487=CARTESIAN_POINT('',(12.8767497253937,-2.83812092875559,19.3917578368481));
#1488=CARTESIAN_POINT('',(12.8767497253936,1.68000221252441,37.6706400793603));
#1489=CARTESIAN_POINT('',(12.8767497253936,1.6800022125244,34.0103860415162));
#1490=CARTESIAN_POINT('',(12.8767492759188,-3.42362749829477,46.5103860415162));
#1491=CARTESIAN_POINT('',(12.8767497253936,-3.61353223410301,46.839310692534));
#1492=CARTESIAN_POINT('',(12.8767492759187,-6.02170370964793,48.0103860415162));
#1493=CARTESIAN_POINT('',(12.8767497253935,-11.5710639888336,51.2143106925342));
#1494=CARTESIAN_POINT('',(12.8767492759187,-44.3199977874756,48.0103860415163));
#1495=CARTESIAN_POINT('',(12.8767488268535,-39.3521816119376,48.0103860415162));
#1496=CARTESIAN_POINT('',(12.8767492759188,-48.3199977874756,44.0103860415163));
#1497=CARTESIAN_POINT('',(12.8767497253935,-40.3883734604496,51.9420103685422));
#1498=CARTESIAN_POINT('',(12.8767488268536,-48.3199977874756,29.4603846076522));
#1499=CARTESIAN_POINT('',(12.8767497253936,-38.3199977874756,8.56038604151625));
#1500=CARTESIAN_POINT('Origin',(12.8767497253936,-38.3199977874756,5.91038604151625));
#1501=CARTESIAN_POINT('',(12.8767497253936,-38.3199977874756,23.0603860415162));
#1502=CARTESIAN_POINT('Origin',(12.8767497253937,-38.3199977874756,20.4103860415162));
#1503=CARTESIAN_POINT('',(12.8767497253936,-11.6999977874756,28.3173860415162));
#1504=CARTESIAN_POINT('Origin',(12.8767497253936,-11.6999977874756,25.7173860415162));
#1505=CARTESIAN_POINT('',(12.8767497253936,-38.2552358827136,38.2603860415162));
#1506=CARTESIAN_POINT('Origin',(12.8767497253936,-38.2552358827136,36.6103860415162));
#1507=CARTESIAN_POINT('',(12.8767497253936,-24.8199977874756,41.6103860415163));
#1508=CARTESIAN_POINT('Origin',(12.8767497253936,-24.8199977874756,39.0103860415163));
#1509=CARTESIAN_POINT('',(12.8767497253936,-5.84629101353958,40.5548760192322));
#1510=CARTESIAN_POINT('Origin',(12.8767497253936,-5.84629101353959,38.9048760192322));
#1511=CARTESIAN_POINT('',(12.8767497253936,-29.3674989255613,45.9863117103505));
#1512=CARTESIAN_POINT('',(12.8767497253936,-42.3674991192764,45.9863117103505));
#1513=CARTESIAN_POINT('',(12.8767497253936,-34.480499799324,45.9863117103505));
#1514=CARTESIAN_POINT('',(12.8767497253936,-29.3674989255613,42.9863116656471));
#1515=CARTESIAN_POINT('Origin',(12.8767497253936,-29.3674989255613,44.4863116879988));
#1516=CARTESIAN_POINT('',(12.8767497253936,-42.3674991192764,42.986311665647));
#1517=CARTESIAN_POINT('',(12.8767497253936,-27.9804997024665,42.9863116656471));
#1518=CARTESIAN_POINT('Origin',(12.8767497253938,-42.3674991192764,44.4863116879988));
#1519=CARTESIAN_POINT('',(12.8767497253935,-17.4602068096505,24.8672924595877));
#1520=CARTESIAN_POINT('',(12.8767497253935,-18.830813703081,23.1923707508424));
#1521=CARTESIAN_POINT('Origin',(12.8767497253928,37.1825949245116,-21.2457666304469));
#1522=CARTESIAN_POINT('',(12.8767497253935,-22.6493826990373,22.2313627043249));
#1523=CARTESIAN_POINT('Origin',(12.8767497253935,-21.367498806352,25.204845332807));
#1524=CARTESIAN_POINT('',(12.8767497253936,-27.1284811302666,23.3610507099163));
#1525=CARTESIAN_POINT('Origin',(12.8767497253936,-28.3897025814674,8.91600586917486));
#1526=CARTESIAN_POINT('',(12.8767497253936,-30.6472039710295,25.5024377212717));
#1527=CARTESIAN_POINT('Origin',(12.8767497253936,-26.7246417433225,27.9863114421296));
#1528=CARTESIAN_POINT('',(12.8767497253936,-33.3881501999867,28.7688875725073));
#1529=CARTESIAN_POINT('Origin',(12.8767497253938,-44.1649566773894,16.9426268723278));
#1530=CARTESIAN_POINT('',(12.8767497253936,-31.3674989553636,33.9863115315366));
#1531=CARTESIAN_POINT('Origin',(12.8767497253936,-31.3674989553636,30.9863114868331));
#1532=CARTESIAN_POINT('',(12.8767497253934,-19.1576395958517,34.0964267575212));
#1533=CARTESIAN_POINT('Origin',(12.8767497253935,-24.867498858506,-9.76505441571333));
#1534=CARTESIAN_POINT('',(12.8767497253935,-17.6402555283122,33.3096795098805));
#1535=CARTESIAN_POINT('Origin',(12.8767497253935,-19.4803649091359,31.6173445942669));
#1536=CARTESIAN_POINT('Origin',(12.8767497253935,-22.3411395184754,28.9863114570308));
#1537=CARTESIAN_POINT('',(12.8767497253935,-20.9272916739163,41.7344944918817));
#1538=CARTESIAN_POINT('Origin',(12.876749725394,-66.5512332420416,5.11884270486185));
#1539=CARTESIAN_POINT('',(12.8767497253936,-19.3674987765497,44.9863116954494));
#1540=CARTESIAN_POINT('Origin',(12.8767497253935,-19.3674987765497,42.9863116656471));
#1541=CARTESIAN_POINT('',(12.8767497253936,-11.3674986573404,44.9863116954494));
#1542=CARTESIAN_POINT('',(12.8767497253936,-22.9804996279607,44.9863116954494));
#1543=CARTESIAN_POINT('Origin',(12.8767497253934,-11.3674986573404,42.9863116656471));
#1544=CARTESIAN_POINT('Origin',(6.27674972539396,-66.5512332420417,5.11884270486186));
#1545=CARTESIAN_POINT('',(6.27674972539349,-20.9272916739164,41.7344944918818));
#1546=CARTESIAN_POINT('Origin',(6.27674972539396,-66.5512332420417,5.11884270486186));
#1547=CARTESIAN_POINT('',(6.2767497253935,-20.9272916739164,41.7344944918818));
#1548=CARTESIAN_POINT('Origin',(6.27674972539348,-19.3674987765497,42.9863116656471));
#1549=CARTESIAN_POINT('',(6.27674972539348,-19.3674987765497,44.9863116954494));
#1550=CARTESIAN_POINT('Origin',(6.27674972539348,-19.3674987765497,42.9863116656471));
#1551=CARTESIAN_POINT('',(6.27674972539348,-19.3674987765497,44.9863116954494));
#1552=CARTESIAN_POINT('Origin',(6.27674972539346,-19.4803649091359,31.6173445942669));
#1553=CARTESIAN_POINT('',(6.27674972539344,-17.6402555283123,33.3096795098805));
#1554=CARTESIAN_POINT('',(6.27674972539346,-19.1576395958518,34.0964267575213));
#1555=CARTESIAN_POINT('Origin',(6.27674972539346,-19.4803649091359,31.6173445942669));
#1556=CARTESIAN_POINT('',(6.27674972539344,-17.6402555283123,33.3096795098805));
#1557=CARTESIAN_POINT('',(6.27674972539346,-19.1576395958518,34.0964267575213));
#1558=CARTESIAN_POINT('Origin',(6.27674972539345,-24.8674988585061,-9.76505441571332));
#1559=CARTESIAN_POINT('',(6.2767497253936,-31.3674989553636,33.9863115315366));
#1560=CARTESIAN_POINT('',(6.2767497253936,-31.3674989553636,33.9863115315366));
#1561=CARTESIAN_POINT('Origin',(6.27674972539345,-24.8674988585061,-9.76505441571332));
#1562=CARTESIAN_POINT('Origin',(6.27674972539272,37.1825949245115,-21.2457666304469));
#1563=CARTESIAN_POINT('',(6.27674972539343,-17.4602068096506,24.8672924595878));
#1564=CARTESIAN_POINT('',(6.27674972539343,-17.4602068096506,24.8672924595878));
#1565=CARTESIAN_POINT('',(6.27674972539344,-18.830813703081,23.1923707508424));
#1566=CARTESIAN_POINT('Origin',(6.27674972539272,37.1825949245115,-21.2457666304469));
#1567=CARTESIAN_POINT('',(6.27674972539344,-18.830813703081,23.1923707508424));
#1568=CARTESIAN_POINT('Origin',(6.27674972539347,-21.3674988063521,25.204845332807));
#1569=CARTESIAN_POINT('',(6.27674972539348,-22.6493826990374,22.2313627043249));
#1570=CARTESIAN_POINT('Origin',(6.27674972539347,-21.3674988063521,25.204845332807));
#1571=CARTESIAN_POINT('',(6.27674972539349,-22.6493826990374,22.2313627043249));
#1572=CARTESIAN_POINT('Origin',(6.27674972539353,-28.3897025814675,8.91600586917487));
#1573=CARTESIAN_POINT('',(6.27674972539353,-27.1284811302666,23.3610507099163));
#1574=CARTESIAN_POINT('Origin',(6.27674972539353,-28.3897025814675,8.91600586917487));
#1575=CARTESIAN_POINT('',(6.27674972539354,-27.1284811302666,23.3610507099163));
#1576=CARTESIAN_POINT('Origin',(6.27674972539354,-26.7246417433226,27.9863114421297));
#1577=CARTESIAN_POINT('',(6.27674972539358,-30.6472039710295,25.5024377212717));
#1578=CARTESIAN_POINT('Origin',(6.27674972539354,-26.7246417433226,27.9863114421297));
#1579=CARTESIAN_POINT('',(6.27674972539358,-30.6472039710295,25.5024377212717));
#1580=CARTESIAN_POINT('Origin',(6.27674972539372,-44.1649566773895,16.9426268723278));
#1581=CARTESIAN_POINT('',(6.27674972539362,-33.3881501999867,28.7688875725073));
#1582=CARTESIAN_POINT('Origin',(6.27674972539372,-44.1649566773895,16.9426268723278));
#1583=CARTESIAN_POINT('',(6.27674972539362,-33.3881501999867,28.7688875725073));
#1584=CARTESIAN_POINT('Origin',(6.27674972539339,-11.3674986573405,42.9863116656471));
#1585=CARTESIAN_POINT('',(6.27674972539339,-11.3674986573405,44.9863116954494));
#1586=CARTESIAN_POINT('',(6.27674972539339,-11.3674986573405,44.9863116954494));
#1587=CARTESIAN_POINT('Origin',(6.27674972539339,-11.3674986573405,42.9863116656471));
#1588=CARTESIAN_POINT('Origin',(6.27674972539348,-19.3674987765497,44.9863116954494));
#1589=CARTESIAN_POINT('',(6.27674972539379,-45.849271635576,44.9863116954494));
#1590=CARTESIAN_POINT('Origin',(6.27674972539349,-22.3411395184755,28.9863114570308));
#1591=CARTESIAN_POINT('Origin',(6.27674972539349,-22.3411395184755,28.9863114570308));
#1592=CARTESIAN_POINT('Origin',(6.2767497253936,-31.3674989553637,30.9863114868331));
#1593=CARTESIAN_POINT('Origin',(6.2767497253936,-31.3674989553637,30.9863114868331));
#1594=CARTESIAN_POINT('Origin',(6.27674972539359,-29.3674989255614,42.9863116656471));
#1595=CARTESIAN_POINT('',(6.27674972539359,-29.3674989255614,42.9863116656471));
#1596=CARTESIAN_POINT('',(6.27674972539359,-29.3674989255614,42.9863116656471));
#1597=CARTESIAN_POINT('',(6.27674972539375,-42.3674991192765,42.9863116656471));
#1598=CARTESIAN_POINT('',(6.27674972539384,-50.8492717100818,42.9863116656471));
#1599=CARTESIAN_POINT('',(6.27674972539375,-42.3674991192765,42.9863116656471));
#1600=CARTESIAN_POINT('Origin',(6.2767497253936,-29.3674989255614,44.4863116879988));
#1601=CARTESIAN_POINT('',(6.2767497253936,-29.3674989255614,45.9863117103505));
#1602=CARTESIAN_POINT('',(6.2767497253936,-29.3674989255614,45.9863117103505));
#1603=CARTESIAN_POINT('Origin',(6.2767497253936,-29.3674989255614,44.4863116879988));
#1604=CARTESIAN_POINT('Origin',(6.27674972539375,-42.3674991192765,45.9863117103505));
#1605=CARTESIAN_POINT('',(6.27674972539375,-42.3674991192765,45.9863117103505));
#1606=CARTESIAN_POINT('',(6.27674972539375,-42.3674991192765,45.9863117103505));
#1607=CARTESIAN_POINT('',(6.27674972539392,-57.3492718069393,45.9863117103505));
#1608=CARTESIAN_POINT('Origin',(6.27674972539375,-42.3674991192765,44.4863116879988));
#1609=CARTESIAN_POINT('Origin',(6.27674972539375,-42.3674991192765,44.4863116879988));
#1610=CARTESIAN_POINT('Origin',(9.37574972539367,-26.8199977874756,17.5106443417193));
#1611=CARTESIAN_POINT('',(6.27674972539354,-28.3199977874756,17.5106443417193));
#1612=CARTESIAN_POINT('',(9.37574972539367,-28.3199977874756,17.5106443417193));
#1613=CARTESIAN_POINT('',(6.27674972539366,-26.8199977874756,19.0106443417193));
#1614=CARTESIAN_POINT('Origin',(6.276749725394,-26.8199977874756,17.5106443417193));
#1615=CARTESIAN_POINT('',(9.37574972539366,-26.8199977874756,19.0106443417193));
#1616=CARTESIAN_POINT('Origin',(5.87674972539366,-10.5509363580656,19.0106443417193));
#1617=CARTESIAN_POINT('',(6.27674972539366,-3.21923442388459,19.0106443417193));
#1618=CARTESIAN_POINT('',(6.27674972539366,-15.6854670727706,19.0106443417193));
#1619=CARTESIAN_POINT('',(5.87674972539366,-3.21923442388459,19.0106443417193));
#1620=CARTESIAN_POINT('Origin',(5.87674972539361,-45.6986774439159,2.23170638507587));
#1621=CARTESIAN_POINT('',(6.27674972539362,-43.0773571003563,-0.389613958483783));
#1622=CARTESIAN_POINT('',(6.27674972539365,-48.3199977874756,4.85302672863547));
#1623=CARTESIAN_POINT('',(6.27674972539381,-53.1264391205901,9.65946806174993));
#1624=CARTESIAN_POINT('',(5.87674972539362,-43.0773571003563,-0.389613958483791));
#1625=CARTESIAN_POINT('',(5.8767497253936,-48.3199977874756,4.85302672863546));
#1626=CARTESIAN_POINT('Origin',(6.27674972539403,-72.3310444946022,5.31038604108594));
#1627=CARTESIAN_POINT('',(6.27674972539359,-48.3199977874756,44.0103860415163));
#1628=CARTESIAN_POINT('',(6.27674972539364,-48.3199977874756,11.1812246061506));
#1629=CARTESIAN_POINT('',(6.2767497253936,-44.3199977874756,48.0103860415163));
#1630=CARTESIAN_POINT('',(6.27674972539359,-50.3595785051586,41.9708053238333));
#1631=CARTESIAN_POINT('',(6.27674972539361,-6.02170370964848,48.0103860415163));
#1632=CARTESIAN_POINT('',(6.2767497253939,-51.3577049655009,48.0103860415163));
#1633=CARTESIAN_POINT('',(6.2767497253936,-3.42362749829458,46.5103860415163));
#1634=CARTESIAN_POINT('',(6.2767497253936,0.479316395689413,44.2570203336923));
#1635=CARTESIAN_POINT('',(6.27674972539359,1.68000221252441,37.6706400793593));
#1636=CARTESIAN_POINT('',(6.27674972539357,6.99347247744541,28.4674396160102));
#1637=CARTESIAN_POINT('',(6.27674972539357,1.68000221252441,23.9098809781282));
#1638=CARTESIAN_POINT('',(6.27674972539364,1.68000221252441,11.1812246061506));
#1639=CARTESIAN_POINT('',(6.27674972539364,-12.8093259734646,9.42055279213935));
#1640=CARTESIAN_POINT('',(6.27674972539352,-28.3199977874756,4.8530267286355));
#1641=CARTESIAN_POINT('',(6.27674972539349,-28.3199977874756,-11.2333530117327));
#1642=CARTESIAN_POINT('',(6.27674972539362,-33.5626384745949,-0.38961395848378));
#1643=CARTESIAN_POINT('',(6.27674972539364,-40.5190798079245,-7.34605529181337));
#1644=CARTESIAN_POINT('',(6.27674972539362,-29.5699977874756,-0.389613958483779));
#1645=CARTESIAN_POINT('',(6.27674972539357,-11.6999977874756,28.3173860415163));
#1646=CARTESIAN_POINT('Origin',(6.27674972539357,-11.6999977874756,25.7173860415162));
#1647=CARTESIAN_POINT('',(6.27674972539359,-24.8199977874756,41.6103860415163));
#1648=CARTESIAN_POINT('Origin',(6.27674972539359,-24.8199977874756,39.0103860415162));
#1649=CARTESIAN_POINT('',(6.27674972539364,-38.3199977874756,10.8103860415163));
#1650=CARTESIAN_POINT('Origin',(6.27674972539363,-38.3199977874756,5.91038604151623));
#1651=CARTESIAN_POINT('',(6.27674972539356,-38.3199977874756,25.3103860415163));
#1652=CARTESIAN_POINT('Origin',(6.27674972539365,-38.3199977874756,20.4103860415163));
#1653=CARTESIAN_POINT('',(6.27674972539359,-38.2552358827136,39.6103860415163));
#1654=CARTESIAN_POINT('Origin',(6.27674972539358,-38.2552358827136,36.6103860415163));
#1655=CARTESIAN_POINT('',(6.2767497253936,-5.84629101353958,41.9048760192322));
#1656=CARTESIAN_POINT('Origin',(6.27674972539359,-5.84629101353958,38.9048760192322));
#1657=CARTESIAN_POINT('Origin',(5.87674972539362,-38.3199977874756,-0.38961395848379));
#1658=CARTESIAN_POINT('',(7.62624972539364,-33.5626384745949,-0.389613958483784));
#1659=CARTESIAN_POINT('Origin',(9.37574972539366,-30.9413181310353,2.23170638507586));
#1660=CARTESIAN_POINT('',(11.1252497253937,-28.3199977874756,4.85302672863551));
#1661=CARTESIAN_POINT('Origin',(5.87674972539356,-48.3199977874756,24.0103860415162));
#1662=CARTESIAN_POINT('',(5.87674972539359,-48.3199977874756,44.0103860415163));
#1663=CARTESIAN_POINT('Origin',(12.8747497253938,-28.3199977874756,-27.7770920645515));
#1664=CARTESIAN_POINT('Origin',(5.87674972539356,1.68000221252441,24.0103860415162));
#1665=CARTESIAN_POINT('',(5.87674972539356,1.68000221252441,23.9098809781282));
#1666=CARTESIAN_POINT('',(5.87674972539359,1.68000221252441,37.6706400793602));
#1667=CARTESIAN_POINT('Origin',(5.87674972539359,0.906499520627411,39.0103860415162));
#1668=CARTESIAN_POINT('',(5.8767497253936,-3.42362749829458,46.5103860415163));
#1669=CARTESIAN_POINT('Origin',(39.8767497253936,-5.84629101353959,38.9048760192323));
#1670=CARTESIAN_POINT('',(9.27674972539359,-5.84629101353959,40.5548760192323));
#1671=CARTESIAN_POINT('',(39.8767497253936,-5.84629101353959,40.5548760192323));
#1672=CARTESIAN_POINT('Origin',(9.27674972539359,-5.84629101353959,38.9048760192322));
#1673=CARTESIAN_POINT('Origin',(14.2767497253936,-38.3199977874756,5.91038604151625));
#1674=CARTESIAN_POINT('',(9.67674972539363,-38.3199977874756,8.56038604151622));
#1675=CARTESIAN_POINT('',(14.2767497253936,-38.3199977874756,8.56038604151625));
#1676=CARTESIAN_POINT('Origin',(9.67674972539363,-38.3199977874756,5.91038604151623));
#1677=CARTESIAN_POINT('Origin',(14.2767497253937,-38.3199977874756,20.4103860415162));
#1678=CARTESIAN_POINT('',(9.67674972539356,-38.3199977874756,23.0603860415162));
#1679=CARTESIAN_POINT('',(14.2767497253936,-38.3199977874756,23.0603860415162));
#1680=CARTESIAN_POINT('Origin',(9.67674972539365,-38.3199977874756,20.4103860415162));
#1681=CARTESIAN_POINT('Origin',(39.8767497253936,-38.2552358827136,36.6103860415163));
#1682=CARTESIAN_POINT('',(9.67674972539358,-38.2552358827136,38.2603860415162));
#1683=CARTESIAN_POINT('',(39.8767497253936,-38.2552358827136,38.2603860415163));
#1684=CARTESIAN_POINT('Origin',(9.67674972539358,-38.2552358827136,36.6103860415163));
#1685=CARTESIAN_POINT('Origin',(9.67674972539363,-38.3199977874756,5.91038604151623));
#1686=CARTESIAN_POINT('',(9.67674972539364,-38.3199977874756,10.8103860415162));
#1687=CARTESIAN_POINT('Origin',(9.67674972539363,-38.3199977874756,5.91038604151623));
#1688=CARTESIAN_POINT('Origin',(9.67674972539365,-38.3199977874756,20.4103860415162));
#1689=CARTESIAN_POINT('',(9.67674972539356,-38.3199977874756,25.3103860415162));
#1690=CARTESIAN_POINT('Origin',(9.67674972539365,-38.3199977874756,20.4103860415162));
#1691=CARTESIAN_POINT('Origin',(9.67674972539357,-22.0507634481266,31.0076310303742));
#1692=CARTESIAN_POINT('',(9.67674972539358,-38.2552358827136,39.6103860415163));
#1693=CARTESIAN_POINT('Origin',(9.67674972539358,-38.2552358827136,36.6103860415163));
#1694=CARTESIAN_POINT('Origin',(9.27674972539357,-20.8199977874756,25.5103860415162));
#1695=CARTESIAN_POINT('',(9.2767497253936,-5.84629101353959,41.9048760192322));
#1696=CARTESIAN_POINT('Origin',(9.27674972539359,-5.84629101353959,38.9048760192322));
#1697=CARTESIAN_POINT('Origin',(5.8767497253935,-43.3199977874756,49.0103860415163));
#1698=CARTESIAN_POINT('',(5.8767497253935,-44.3199977874756,48.0103860415163));
#1699=CARTESIAN_POINT('Origin',(5.8767497253935,-30.3843654363996,48.0103860415163));
#1700=CARTESIAN_POINT('',(5.87674972539351,-6.02170370964789,48.0103860415163));
#1701=CARTESIAN_POINT('Origin',(5.8767497253936,-3.42362749829458,46.5103860415163));
#1702=CARTESIAN_POINT('Origin',(5.87674972539366,-3.2697452557816,18.9601335098221));
#1703=CARTESIAN_POINT('Origin',(31.2767497253936,-11.6999977874756,25.7173860415163));
#1704=CARTESIAN_POINT('',(31.2767497253936,-11.6999977874756,28.3173860415163));
#1705=CARTESIAN_POINT('Origin',(31.2767497253936,-24.8199977874756,39.0103860415163));
#1706=CARTESIAN_POINT('',(31.2767497253936,-24.8199977874756,41.6103860415163));
#1707=CARTESIAN_POINT('Origin',(9.27674972539363,-38.3199977874756,5.91038604151624));
#1708=CARTESIAN_POINT('',(9.27674972539362,-38.3199977874756,10.8103860415162));
#1709=CARTESIAN_POINT('Origin',(9.27674972539366,-38.3199977874756,20.4103860415162));
#1710=CARTESIAN_POINT('',(9.27674972539364,-38.3199977874756,25.3103860415162));
#1711=CARTESIAN_POINT('Origin',(9.27674972539358,-38.2552358827136,36.6103860415163));
#1712=CARTESIAN_POINT('',(9.27674972539358,-38.2552358827136,39.6103860415163));
#1713=CARTESIAN_POINT('Origin',(9.27674972539359,-5.84629101353959,38.9048760192322));
#1714=CARTESIAN_POINT('',(9.27674972539358,-5.84629101353959,41.9048760192322));
#1715=CARTESIAN_POINT('',(-0.234461073036438,26.3674988808577,19.4767483519988));
#1716=UNCERTAINTY_MEASURE_WITH_UNIT(LENGTH_MEASURE(0.01),#1722,
'DISTANCE_ACCURACY_VALUE',
'Maximum model space distance between geometric entities at asserted c
onnectivities');
#1717=UNCERTAINTY_MEASURE_WITH_UNIT(LENGTH_MEASURE(0.01),#1722,
'DISTANCE_ACCURACY_VALUE',
'Maximum model space distance between geometric entities at asserted c
onnectivities');
#1718=UNCERTAINTY_MEASURE_WITH_UNIT(LENGTH_MEASURE(0.01),#1722,
'DISTANCE_ACCURACY_VALUE',
'Maximum model space distance between geometric entities at asserted c
onnectivities');
#1719=(
GEOMETRIC_REPRESENTATION_CONTEXT(3)
GLOBAL_UNCERTAINTY_ASSIGNED_CONTEXT((#1716))
GLOBAL_UNIT_ASSIGNED_CONTEXT((#1722,#1724,#1725))
REPRESENTATION_CONTEXT('','3D')
);
#1720=(
GEOMETRIC_REPRESENTATION_CONTEXT(3)
GLOBAL_UNCERTAINTY_ASSIGNED_CONTEXT((#1717))
GLOBAL_UNIT_ASSIGNED_CONTEXT((#1722,#1724,#1725))
REPRESENTATION_CONTEXT('','3D')
);
#1721=(
GEOMETRIC_REPRESENTATION_CONTEXT(3)
GLOBAL_UNCERTAINTY_ASSIGNED_CONTEXT((#1718))
GLOBAL_UNIT_ASSIGNED_CONTEXT((#1722,#1724,#1725))
REPRESENTATION_CONTEXT('','3D')
);
#1722=(
LENGTH_UNIT()
NAMED_UNIT(*)
SI_UNIT(.MILLI.,.METRE.)
);
#1723=(
LENGTH_UNIT()
NAMED_UNIT(*)
SI_UNIT($,.METRE.)
);
#1724=(
NAMED_UNIT(*)
PLANE_ANGLE_UNIT()
SI_UNIT($,.RADIAN.)
);
#1725=(
NAMED_UNIT(*)
SI_UNIT($,.STERADIAN.)
SOLID_ANGLE_UNIT()
);
#1726=SHAPE_DEFINITION_REPRESENTATION(#1728,#1731);
#1727=SHAPE_DEFINITION_REPRESENTATION(#1729,#1732);
#1728=PRODUCT_DEFINITION_SHAPE('',$,#1734);
#1729=PRODUCT_DEFINITION_SHAPE('',$,#1735);
#1730=PRODUCT_DEFINITION_SHAPE($,$,#14);
#1731=SHAPE_REPRESENTATION('',(#1012,#1124),#1719);
#1732=SHAPE_REPRESENTATION('',(#1013),#1720);
#1733=PRODUCT_DEFINITION_CONTEXT('part definition',#1741,'design');
#1734=PRODUCT_DEFINITION('(\X2\672A4FDD5B58\X0\)','(\X2\672A4FDD5B58\X0\)',
#1736,#1733);
#1735=PRODUCT_DEFINITION('MiniSB X Carriage','MiniSB X Carriage V3 v1',
#1737,#1733);
#1736=PRODUCT_DEFINITION_FORMATION('',$,#1743);
#1737=PRODUCT_DEFINITION_FORMATION('',$,#1744);
#1738=PRODUCT_RELATED_PRODUCT_CATEGORY('(\X2\672A4FDD5B58\X0\)',
'(\X2\672A4FDD5B58\X0\)',(#1743));
#1739=PRODUCT_RELATED_PRODUCT_CATEGORY('MiniSB X Carriage V3 v1',
'MiniSB X Carriage V3 v1',(#1744));
#1740=APPLICATION_PROTOCOL_DEFINITION('international standard',
'automotive_design',2009,#1741);
#1741=APPLICATION_CONTEXT(
'Core Data for Automotive Mechanical Design Process');
#1742=PRODUCT_CONTEXT('part definition',#1741,'mechanical');
#1743=PRODUCT('(\X2\672A4FDD5B58\X0\)','(\X2\672A4FDD5B58\X0\)',$,(#1742));
#1744=PRODUCT('MiniSB X Carriage','MiniSB X Carriage V3 v1',$,(#1742));
#1745=PRESENTATION_STYLE_ASSIGNMENT((#1747));
#1746=PRESENTATION_STYLE_ASSIGNMENT((#1748));
#1747=SURFACE_STYLE_USAGE(.BOTH.,#1749);
#1748=SURFACE_STYLE_USAGE(.BOTH.,#1750);
#1749=SURFACE_SIDE_STYLE('',(#1751));
#1750=SURFACE_SIDE_STYLE('',(#1752));
#1751=SURFACE_STYLE_FILL_AREA(#1753);
#1752=SURFACE_STYLE_FILL_AREA(#1754);
#1753=FILL_AREA_STYLE('\X2\94A2\X0\ - \X2\7F0E5149\X0\',(#1755));
#1754=FILL_AREA_STYLE('Opaque(99,102,106)',(#1756));
#1755=FILL_AREA_STYLE_COLOUR('\X2\94A2\X0\ - \X2\7F0E5149\X0\',#1757);
#1756=FILL_AREA_STYLE_COLOUR('Opaque(99,102,106)',#1758);
#1757=COLOUR_RGB('\X2\94A2\X0\ - \X2\7F0E5149\X0\',0.627450980392157,0.627450980392157,
0.627450980392157);
#1758=COLOUR_RGB('Opaque(99,102,106)',0.388235294117647,0.4,0.415686274509804);
ENDSEC;
END-ISO-10303-21;
