ISO-10303-21;
HEADER;
/* Generated by software containing ST-Developer
 * from STEP Tools, Inc. (www.steptools.com) 
 */

FILE_DESCRIPTION(
/* description */ (''),
/* implementation_level */ '2;1');

FILE_NAME(
/* name */ 'Left Bottom.step',
/* time_stamp */ '2024-11-14T15:20:27+08:00',
/* author */ (''),
/* organization */ (''),
/* preprocessor_version */ 'ST-DEVELOPER v20',
/* originating_system */ 'Autodesk Translation Framework v13.20.0.188',

/* authorisation */ '');

FILE_SCHEMA (('AUTOMOTIVE_DESIGN { 1 0 10303 214 3 1 1 }'));
ENDSEC;

DATA;
#10=MECHANICAL_DESIGN_GEOMETRIC_PRESENTATION_REPRESENTATION('',(#17),#1990);
#11=ITEM_DEFINED_TRANSFORMATION($,$,#1178,#1304);
#12=(
REPRESENTATION_RELATIONSHIP($,$,#2001,#2000)
REPRESENTATION_RELATIONSHIP_WITH_TRANSFORMATION(#11)
SHAPE_REPRESENTATION_RELATIONSHIP()
);
#13=CONTEXT_DEPENDENT_SHAPE_REPRESENTATION(#12,#1999);
#14=NEXT_ASSEMBLY_USAGE_OCCURRENCE('left_bottom v1 v2:1',
'left_bottom v1 v2:1','left_bottom v1 v2:1',#2003,#2004,
'left_bottom v1 v2:1');
#15=SHAPE_REPRESENTATION_RELATIONSHIP('SRR','None',#2001,#16);
#16=ADVANCED_BREP_SHAPE_REPRESENTATION('',(#18),#1989);
#17=STYLED_ITEM('',(#2015),#18);
#18=MANIFOLD_SOLID_BREP('\X2\5B9E4F53\X0\3',#1164);
#19=FACE_BOUND('',#218,.T.);
#20=FACE_BOUND('',#219,.T.);
#21=FACE_BOUND('',#220,.T.);
#22=FACE_BOUND('',#221,.T.);
#23=FACE_BOUND('',#222,.T.);
#24=FACE_BOUND('',#223,.T.);
#25=FACE_BOUND('',#224,.T.);
#26=FACE_BOUND('',#225,.T.);
#27=FACE_BOUND('',#226,.T.);
#28=FACE_BOUND('',#227,.T.);
#29=FACE_BOUND('',#228,.T.);
#30=FACE_BOUND('',#229,.T.);
#31=FACE_BOUND('',#230,.T.);
#32=FACE_BOUND('',#243,.T.);
#33=FACE_BOUND('',#244,.T.);
#34=FACE_BOUND('',#245,.T.);
#35=FACE_BOUND('',#246,.T.);
#36=FACE_BOUND('',#247,.T.);
#37=FACE_BOUND('',#248,.T.);
#38=FACE_BOUND('',#249,.T.);
#39=FACE_BOUND('',#250,.T.);
#40=FACE_BOUND('',#251,.T.);
#41=FACE_BOUND('',#252,.T.);
#42=FACE_BOUND('',#253,.T.);
#43=FACE_BOUND('',#254,.T.);
#44=FACE_BOUND('',#255,.T.);
#45=FACE_BOUND('',#266,.T.);
#46=FACE_BOUND('',#268,.T.);
#47=FACE_BOUND('',#270,.T.);
#48=FACE_BOUND('',#272,.T.);
#49=FACE_BOUND('',#274,.T.);
#50=FACE_BOUND('',#276,.T.);
#51=CIRCLE('',#1181,1.62500002421439);
#52=CIRCLE('',#1182,1.62500002421439);
#53=CIRCLE('',#1185,1.58113885364499);
#54=CIRCLE('',#1186,1.58113885364499);
#55=CIRCLE('',#1189,2.08546387772736);
#56=CIRCLE('',#1190,2.08546387772736);
#57=CIRCLE('',#1193,2.249576488513);
#58=CIRCLE('',#1194,2.249576488513);
#59=CIRCLE('',#1196,16.5);
#60=CIRCLE('',#1197,16.5);
#61=CIRCLE('',#1199,2.00000002980232);
#62=CIRCLE('',#1200,2.00000002980232);
#63=CIRCLE('',#1201,3.25000004842877);
#64=CIRCLE('',#1202,18.5);
#65=CIRCLE('',#1203,2.8454332156691);
#66=CIRCLE('',#1204,126.5);
#67=CIRCLE('',#1205,16.1558323895834);
#68=CIRCLE('',#1206,23.5);
#69=CIRCLE('',#1207,4.50000006705523);
#70=CIRCLE('',#1208,4.50000006705523);
#71=CIRCLE('',#1209,23.5);
#72=CIRCLE('',#1210,4.9);
#73=CIRCLE('',#1211,1.25);
#74=CIRCLE('',#1212,1.65);
#75=CIRCLE('',#1213,1.2);
#76=CIRCLE('',#1214,1.2);
#77=CIRCLE('',#1215,1.65);
#78=CIRCLE('',#1216,1.65);
#79=CIRCLE('',#1217,1.25);
#80=CIRCLE('',#1218,3.60737739988607);
#81=CIRCLE('',#1219,3.50000005215406);
#82=CIRCLE('',#1221,23.5);
#83=CIRCLE('',#1223,18.5);
#84=CIRCLE('',#1225,2.8454332156691);
#85=CIRCLE('',#1227,126.5);
#86=CIRCLE('',#1229,16.1558323895834);
#87=CIRCLE('',#1231,23.5);
#88=CIRCLE('',#1234,3.60737739988607);
#89=CIRCLE('',#1237,3.50000005215406);
#90=CIRCLE('',#1239,3.25000004842877);
#91=CIRCLE('',#1241,4.50000006705523);
#92=CIRCLE('',#1242,4.50000006705523);
#93=CIRCLE('',#1243,2.65);
#94=CIRCLE('',#1244,2.95);
#95=CIRCLE('',#1245,2.95);
#96=CIRCLE('',#1246,2.5);
#97=CIRCLE('',#1247,2.95);
#98=CIRCLE('',#1248,1.25);
#99=CIRCLE('',#1249,2.5);
#100=CIRCLE('',#1250,1.25);
#101=CIRCLE('',#1251,2.00000002980232);
#102=CIRCLE('',#1252,2.00000002980232);
#103=CIRCLE('',#1263,4.9);
#104=CIRCLE('',#1264,2.65);
#105=CIRCLE('',#1266,2.95);
#106=CIRCLE('',#1267,1.65);
#107=CIRCLE('',#1269,2.5);
#108=CIRCLE('',#1270,1.2);
#109=CIRCLE('',#1272,2.5);
#110=CIRCLE('',#1273,1.2);
#111=CIRCLE('',#1275,2.95);
#112=CIRCLE('',#1276,1.65);
#113=CIRCLE('',#1278,2.95);
#114=CIRCLE('',#1279,1.65);
#115=CYLINDRICAL_SURFACE('',#1180,1.62500002421439);
#116=CYLINDRICAL_SURFACE('',#1184,1.58113885364499);
#117=CYLINDRICAL_SURFACE('',#1188,2.08546387772736);
#118=CYLINDRICAL_SURFACE('',#1192,2.249576488513);
#119=CYLINDRICAL_SURFACE('',#1195,16.5);
#120=CYLINDRICAL_SURFACE('',#1220,23.5);
#121=CYLINDRICAL_SURFACE('',#1222,18.5);
#122=CYLINDRICAL_SURFACE('',#1224,2.8454332156691);
#123=CYLINDRICAL_SURFACE('',#1226,126.5);
#124=CYLINDRICAL_SURFACE('',#1228,16.1558323895834);
#125=CYLINDRICAL_SURFACE('',#1230,23.5);
#126=CYLINDRICAL_SURFACE('',#1233,3.60737739988607);
#127=CYLINDRICAL_SURFACE('',#1236,3.50000005215406);
#128=CYLINDRICAL_SURFACE('',#1238,3.25000004842877);
#129=CYLINDRICAL_SURFACE('',#1254,2.00000002980232);
#130=CYLINDRICAL_SURFACE('',#1256,2.00000002980232);
#131=CYLINDRICAL_SURFACE('',#1258,4.50000006705523);
#132=CYLINDRICAL_SURFACE('',#1260,4.50000006705523);
#133=CYLINDRICAL_SURFACE('',#1280,2.65);
#134=CYLINDRICAL_SURFACE('',#1281,2.95);
#135=CYLINDRICAL_SURFACE('',#1282,2.95);
#136=CYLINDRICAL_SURFACE('',#1283,2.5);
#137=CYLINDRICAL_SURFACE('',#1284,2.95);
#138=CYLINDRICAL_SURFACE('',#1285,2.5);
#139=CYLINDRICAL_SURFACE('',#1286,4.9);
#140=CYLINDRICAL_SURFACE('',#1287,1.25);
#141=CYLINDRICAL_SURFACE('',#1288,1.65);
#142=CYLINDRICAL_SURFACE('',#1289,1.2);
#143=CYLINDRICAL_SURFACE('',#1290,1.2);
#144=CYLINDRICAL_SURFACE('',#1291,1.65);
#145=CYLINDRICAL_SURFACE('',#1292,1.65);
#146=CYLINDRICAL_SURFACE('',#1293,1.25);
#147=FACE_OUTER_BOUND('',#208,.T.);
#148=FACE_OUTER_BOUND('',#209,.T.);
#149=FACE_OUTER_BOUND('',#210,.T.);
#150=FACE_OUTER_BOUND('',#211,.T.);
#151=FACE_OUTER_BOUND('',#212,.T.);
#152=FACE_OUTER_BOUND('',#213,.T.);
#153=FACE_OUTER_BOUND('',#214,.T.);
#154=FACE_OUTER_BOUND('',#215,.T.);
#155=FACE_OUTER_BOUND('',#216,.T.);
#156=FACE_OUTER_BOUND('',#217,.T.);
#157=FACE_OUTER_BOUND('',#231,.T.);
#158=FACE_OUTER_BOUND('',#232,.T.);
#159=FACE_OUTER_BOUND('',#233,.T.);
#160=FACE_OUTER_BOUND('',#234,.T.);
#161=FACE_OUTER_BOUND('',#235,.T.);
#162=FACE_OUTER_BOUND('',#236,.T.);
#163=FACE_OUTER_BOUND('',#237,.T.);
#164=FACE_OUTER_BOUND('',#238,.T.);
#165=FACE_OUTER_BOUND('',#239,.T.);
#166=FACE_OUTER_BOUND('',#240,.T.);
#167=FACE_OUTER_BOUND('',#241,.T.);
#168=FACE_OUTER_BOUND('',#242,.T.);
#169=FACE_OUTER_BOUND('',#256,.T.);
#170=FACE_OUTER_BOUND('',#257,.T.);
#171=FACE_OUTER_BOUND('',#258,.T.);
#172=FACE_OUTER_BOUND('',#259,.T.);
#173=FACE_OUTER_BOUND('',#260,.T.);
#174=FACE_OUTER_BOUND('',#261,.T.);
#175=FACE_OUTER_BOUND('',#262,.T.);
#176=FACE_OUTER_BOUND('',#263,.T.);
#177=FACE_OUTER_BOUND('',#264,.T.);
#178=FACE_OUTER_BOUND('',#265,.T.);
#179=FACE_OUTER_BOUND('',#267,.T.);
#180=FACE_OUTER_BOUND('',#269,.T.);
#181=FACE_OUTER_BOUND('',#271,.T.);
#182=FACE_OUTER_BOUND('',#273,.T.);
#183=FACE_OUTER_BOUND('',#275,.T.);
#184=FACE_OUTER_BOUND('',#277,.T.);
#185=FACE_OUTER_BOUND('',#278,.T.);
#186=FACE_OUTER_BOUND('',#279,.T.);
#187=FACE_OUTER_BOUND('',#280,.T.);
#188=FACE_OUTER_BOUND('',#281,.T.);
#189=FACE_OUTER_BOUND('',#282,.T.);
#190=FACE_OUTER_BOUND('',#283,.T.);
#191=FACE_OUTER_BOUND('',#284,.T.);
#192=FACE_OUTER_BOUND('',#285,.T.);
#193=FACE_OUTER_BOUND('',#286,.T.);
#194=FACE_OUTER_BOUND('',#287,.T.);
#195=FACE_OUTER_BOUND('',#288,.T.);
#196=FACE_OUTER_BOUND('',#289,.T.);
#197=FACE_OUTER_BOUND('',#290,.T.);
#198=FACE_OUTER_BOUND('',#291,.T.);
#199=FACE_OUTER_BOUND('',#292,.T.);
#200=FACE_OUTER_BOUND('',#293,.T.);
#201=FACE_OUTER_BOUND('',#294,.T.);
#202=FACE_OUTER_BOUND('',#295,.T.);
#203=FACE_OUTER_BOUND('',#296,.T.);
#204=FACE_OUTER_BOUND('',#297,.T.);
#205=FACE_OUTER_BOUND('',#298,.T.);
#206=FACE_OUTER_BOUND('',#299,.T.);
#207=FACE_OUTER_BOUND('',#300,.T.);
#208=EDGE_LOOP('',(#756,#757,#758,#759));
#209=EDGE_LOOP('',(#760,#761,#762,#763));
#210=EDGE_LOOP('',(#764,#765,#766,#767));
#211=EDGE_LOOP('',(#768,#769,#770,#771));
#212=EDGE_LOOP('',(#772,#773,#774,#775));
#213=EDGE_LOOP('',(#776,#777,#778,#779));
#214=EDGE_LOOP('',(#780,#781,#782,#783));
#215=EDGE_LOOP('',(#784,#785,#786,#787));
#216=EDGE_LOOP('',(#788,#789,#790,#791));
#217=EDGE_LOOP('',(#792,#793,#794,#795,#796,#797,#798,#799,#800,#801,#802));
#218=EDGE_LOOP('',(#803,#804,#805,#806));
#219=EDGE_LOOP('',(#807,#808,#809,#810));
#220=EDGE_LOOP('',(#811,#812,#813,#814));
#221=EDGE_LOOP('',(#815,#816,#817,#818,#819,#820,#821,#822,#823,#824,#825,
#826));
#222=EDGE_LOOP('',(#827));
#223=EDGE_LOOP('',(#828));
#224=EDGE_LOOP('',(#829));
#225=EDGE_LOOP('',(#830));
#226=EDGE_LOOP('',(#831));
#227=EDGE_LOOP('',(#832));
#228=EDGE_LOOP('',(#833));
#229=EDGE_LOOP('',(#834));
#230=EDGE_LOOP('',(#835,#836,#837,#838));
#231=EDGE_LOOP('',(#839,#840,#841,#842));
#232=EDGE_LOOP('',(#843,#844,#845,#846));
#233=EDGE_LOOP('',(#847,#848,#849,#850));
#234=EDGE_LOOP('',(#851,#852,#853,#854));
#235=EDGE_LOOP('',(#855,#856,#857,#858));
#236=EDGE_LOOP('',(#859,#860,#861,#862));
#237=EDGE_LOOP('',(#863,#864,#865,#866));
#238=EDGE_LOOP('',(#867,#868,#869,#870));
#239=EDGE_LOOP('',(#871,#872,#873,#874));
#240=EDGE_LOOP('',(#875,#876,#877,#878));
#241=EDGE_LOOP('',(#879,#880,#881,#882));
#242=EDGE_LOOP('',(#883,#884,#885,#886,#887,#888,#889,#890,#891,#892,#893));
#243=EDGE_LOOP('',(#894,#895,#896,#897));
#244=EDGE_LOOP('',(#898,#899,#900,#901));
#245=EDGE_LOOP('',(#902,#903,#904,#905,#906,#907,#908,#909,#910,#911,#912,
#913));
#246=EDGE_LOOP('',(#914,#915,#916,#917));
#247=EDGE_LOOP('',(#918));
#248=EDGE_LOOP('',(#919));
#249=EDGE_LOOP('',(#920));
#250=EDGE_LOOP('',(#921));
#251=EDGE_LOOP('',(#922));
#252=EDGE_LOOP('',(#923));
#253=EDGE_LOOP('',(#924));
#254=EDGE_LOOP('',(#925));
#255=EDGE_LOOP('',(#926,#927,#928,#929));
#256=EDGE_LOOP('',(#930,#931,#932,#933));
#257=EDGE_LOOP('',(#934,#935,#936,#937));
#258=EDGE_LOOP('',(#938,#939,#940,#941));
#259=EDGE_LOOP('',(#942,#943,#944,#945));
#260=EDGE_LOOP('',(#946,#947,#948,#949));
#261=EDGE_LOOP('',(#950,#951,#952,#953));
#262=EDGE_LOOP('',(#954,#955,#956,#957));
#263=EDGE_LOOP('',(#958,#959,#960,#961));
#264=EDGE_LOOP('',(#962,#963,#964,#965));
#265=EDGE_LOOP('',(#966));
#266=EDGE_LOOP('',(#967));
#267=EDGE_LOOP('',(#968));
#268=EDGE_LOOP('',(#969));
#269=EDGE_LOOP('',(#970));
#270=EDGE_LOOP('',(#971));
#271=EDGE_LOOP('',(#972));
#272=EDGE_LOOP('',(#973));
#273=EDGE_LOOP('',(#974));
#274=EDGE_LOOP('',(#975));
#275=EDGE_LOOP('',(#976));
#276=EDGE_LOOP('',(#977));
#277=EDGE_LOOP('',(#978,#979,#980,#981));
#278=EDGE_LOOP('',(#982,#983,#984,#985));
#279=EDGE_LOOP('',(#986,#987,#988,#989));
#280=EDGE_LOOP('',(#990,#991,#992,#993));
#281=EDGE_LOOP('',(#994,#995,#996,#997));
#282=EDGE_LOOP('',(#998,#999,#1000,#1001));
#283=EDGE_LOOP('',(#1002,#1003,#1004,#1005));
#284=EDGE_LOOP('',(#1006,#1007,#1008,#1009));
#285=EDGE_LOOP('',(#1010,#1011,#1012,#1013));
#286=EDGE_LOOP('',(#1014,#1015,#1016,#1017));
#287=EDGE_LOOP('',(#1018,#1019,#1020,#1021));
#288=EDGE_LOOP('',(#1022,#1023,#1024,#1025));
#289=EDGE_LOOP('',(#1026,#1027,#1028,#1029));
#290=EDGE_LOOP('',(#1030,#1031,#1032,#1033));
#291=EDGE_LOOP('',(#1034,#1035,#1036,#1037));
#292=EDGE_LOOP('',(#1038,#1039,#1040,#1041));
#293=EDGE_LOOP('',(#1042,#1043,#1044,#1045));
#294=EDGE_LOOP('',(#1046,#1047,#1048,#1049));
#295=EDGE_LOOP('',(#1050,#1051,#1052,#1053));
#296=EDGE_LOOP('',(#1054,#1055,#1056,#1057));
#297=EDGE_LOOP('',(#1058,#1059,#1060,#1061));
#298=EDGE_LOOP('',(#1062,#1063,#1064,#1065));
#299=EDGE_LOOP('',(#1066,#1067,#1068,#1069));
#300=EDGE_LOOP('',(#1070,#1071,#1072,#1073));
#301=LINE('',#1661,#396);
#302=LINE('',#1663,#397);
#303=LINE('',#1665,#398);
#304=LINE('',#1666,#399);
#305=LINE('',#1671,#400);
#306=LINE('',#1675,#401);
#307=LINE('',#1677,#402);
#308=LINE('',#1678,#403);
#309=LINE('',#1685,#404);
#310=LINE('',#1687,#405);
#311=LINE('',#1689,#406);
#312=LINE('',#1690,#407);
#313=LINE('',#1695,#408);
#314=LINE('',#1699,#409);
#315=LINE('',#1701,#410);
#316=LINE('',#1702,#411);
#317=LINE('',#1711,#412);
#318=LINE('',#1714,#413);
#319=LINE('',#1718,#414);
#320=LINE('',#1720,#415);
#321=LINE('',#1722,#416);
#322=LINE('',#1724,#417);
#323=LINE('',#1726,#418);
#324=LINE('',#1728,#419);
#325=LINE('',#1730,#420);
#326=LINE('',#1732,#421);
#327=LINE('',#1734,#422);
#328=LINE('',#1736,#423);
#329=LINE('',#1737,#424);
#330=LINE('',#1740,#425);
#331=LINE('',#1744,#426);
#332=LINE('',#1761,#427);
#333=LINE('',#1765,#428);
#334=LINE('',#1785,#429);
#335=LINE('',#1789,#430);
#336=LINE('',#1793,#431);
#337=LINE('',#1797,#432);
#338=LINE('',#1800,#433);
#339=LINE('',#1804,#434);
#340=LINE('',#1808,#435);
#341=LINE('',#1812,#436);
#342=LINE('',#1816,#437);
#343=LINE('',#1819,#438);
#344=LINE('',#1821,#439);
#345=LINE('',#1822,#440);
#346=LINE('',#1825,#441);
#347=LINE('',#1829,#442);
#348=LINE('',#1830,#443);
#349=LINE('',#1838,#444);
#350=LINE('',#1840,#445);
#351=LINE('',#1842,#446);
#352=LINE('',#1844,#447);
#353=LINE('',#1846,#448);
#354=LINE('',#1848,#449);
#355=LINE('',#1850,#450);
#356=LINE('',#1852,#451);
#357=LINE('',#1854,#452);
#358=LINE('',#1856,#453);
#359=LINE('',#1857,#454);
#360=LINE('',#1859,#455);
#361=LINE('',#1863,#456);
#362=LINE('',#1883,#457);
#363=LINE('',#1887,#458);
#364=LINE('',#1890,#459);
#365=LINE('',#1891,#460);
#366=LINE('',#1893,#461);
#367=LINE('',#1895,#462);
#368=LINE('',#1898,#463);
#369=LINE('',#1900,#464);
#370=LINE('',#1902,#465);
#371=LINE('',#1905,#466);
#372=LINE('',#1906,#467);
#373=LINE('',#1938,#468);
#374=LINE('',#1940,#469);
#375=LINE('',#1942,#470);
#376=LINE('',#1944,#471);
#377=LINE('',#1946,#472);
#378=LINE('',#1948,#473);
#379=LINE('',#1950,#474);
#380=LINE('',#1952,#475);
#381=LINE('',#1954,#476);
#382=LINE('',#1956,#477);
#383=LINE('',#1958,#478);
#384=LINE('',#1960,#479);
#385=LINE('',#1962,#480);
#386=LINE('',#1964,#481);
#387=LINE('',#1966,#482);
#388=LINE('',#1967,#483);
#389=LINE('',#1969,#484);
#390=LINE('',#1971,#485);
#391=LINE('',#1973,#486);
#392=LINE('',#1975,#487);
#393=LINE('',#1977,#488);
#394=LINE('',#1980,#489);
#395=LINE('',#1982,#490);
#396=VECTOR('',#1311,10.);
#397=VECTOR('',#1312,10.);
#398=VECTOR('',#1313,10.);
#399=VECTOR('',#1314,10.);
#400=VECTOR('',#1319,10.);
#401=VECTOR('',#1324,10.);
#402=VECTOR('',#1325,10.);
#403=VECTOR('',#1326,10.);
#404=VECTOR('',#1335,10.);
#405=VECTOR('',#1336,10.);
#406=VECTOR('',#1337,10.);
#407=VECTOR('',#1338,10.);
#408=VECTOR('',#1343,10.);
#409=VECTOR('',#1348,10.);
#410=VECTOR('',#1349,10.);
#411=VECTOR('',#1350,10.);
#412=VECTOR('',#1361,10.);
#413=VECTOR('',#1364,10.);
#414=VECTOR('',#1367,10.);
#415=VECTOR('',#1368,1000.);
#416=VECTOR('',#1369,10.);
#417=VECTOR('',#1370,10.);
#418=VECTOR('',#1371,1000.);
#419=VECTOR('',#1372,1000.);
#420=VECTOR('',#1373,1000.);
#421=VECTOR('',#1374,10.);
#422=VECTOR('',#1375,9.99999999999998);
#423=VECTOR('',#1376,10.);
#424=VECTOR('',#1377,10.);
#425=VECTOR('',#1378,10.);
#426=VECTOR('',#1381,10.);
#427=VECTOR('',#1398,10.);
#428=VECTOR('',#1401,10.);
#429=VECTOR('',#1420,10.);
#430=VECTOR('',#1423,10.);
#431=VECTOR('',#1428,23.5);
#432=VECTOR('',#1433,10.);
#433=VECTOR('',#1436,10.);
#434=VECTOR('',#1441,10.);
#435=VECTOR('',#1446,10.);
#436=VECTOR('',#1451,10.);
#437=VECTOR('',#1456,10.);
#438=VECTOR('',#1459,10.);
#439=VECTOR('',#1460,10.);
#440=VECTOR('',#1461,10.);
#441=VECTOR('',#1464,10.);
#442=VECTOR('',#1469,10.);
#443=VECTOR('',#1470,10.);
#444=VECTOR('',#1481,10.);
#445=VECTOR('',#1482,10.);
#446=VECTOR('',#1483,10.);
#447=VECTOR('',#1484,10.);
#448=VECTOR('',#1485,10.);
#449=VECTOR('',#1486,10.);
#450=VECTOR('',#1487,9.99999999999999);
#451=VECTOR('',#1488,10.);
#452=VECTOR('',#1489,10.);
#453=VECTOR('',#1490,10.);
#454=VECTOR('',#1491,9.99999999999998);
#455=VECTOR('',#1492,10.);
#456=VECTOR('',#1495,10.);
#457=VECTOR('',#1514,10.);
#458=VECTOR('',#1517,10.);
#459=VECTOR('',#1522,10.);
#460=VECTOR('',#1523,10.);
#461=VECTOR('',#1526,10.);
#462=VECTOR('',#1529,10.);
#463=VECTOR('',#1534,10.);
#464=VECTOR('',#1537,10.);
#465=VECTOR('',#1540,10.);
#466=VECTOR('',#1545,1000.);
#467=VECTOR('',#1546,1000.);
#468=VECTOR('',#1585,2.65);
#469=VECTOR('',#1588,2.95);
#470=VECTOR('',#1591,2.95);
#471=VECTOR('',#1594,2.6);
#472=VECTOR('',#1597,2.95);
#473=VECTOR('',#1600,2.6);
#474=VECTOR('',#1603,4.9);
#475=VECTOR('',#1606,1.25);
#476=VECTOR('',#1609,1.65);
#477=VECTOR('',#1612,1.2);
#478=VECTOR('',#1615,1.2);
#479=VECTOR('',#1618,1.65);
#480=VECTOR('',#1621,1.65);
#481=VECTOR('',#1624,1.25);
#482=VECTOR('',#1627,10.);
#483=VECTOR('',#1628,1000.);
#484=VECTOR('',#1631,1000.);
#485=VECTOR('',#1634,1000.);
#486=VECTOR('',#1637,1000.);
#487=VECTOR('',#1640,10.);
#488=VECTOR('',#1643,10.);
#489=VECTOR('',#1648,10.);
#490=VECTOR('',#1651,10.);
#491=VERTEX_POINT('',#1659);
#492=VERTEX_POINT('',#1660);
#493=VERTEX_POINT('',#1662);
#494=VERTEX_POINT('',#1664);
#495=VERTEX_POINT('',#1668);
#496=VERTEX_POINT('',#1670);
#497=VERTEX_POINT('',#1674);
#498=VERTEX_POINT('',#1676);
#499=VERTEX_POINT('',#1683);
#500=VERTEX_POINT('',#1684);
#501=VERTEX_POINT('',#1686);
#502=VERTEX_POINT('',#1688);
#503=VERTEX_POINT('',#1692);
#504=VERTEX_POINT('',#1694);
#505=VERTEX_POINT('',#1698);
#506=VERTEX_POINT('',#1700);
#507=VERTEX_POINT('',#1707);
#508=VERTEX_POINT('',#1708);
#509=VERTEX_POINT('',#1710);
#510=VERTEX_POINT('',#1712);
#511=VERTEX_POINT('',#1716);
#512=VERTEX_POINT('',#1717);
#513=VERTEX_POINT('',#1719);
#514=VERTEX_POINT('',#1721);
#515=VERTEX_POINT('',#1723);
#516=VERTEX_POINT('',#1725);
#517=VERTEX_POINT('',#1727);
#518=VERTEX_POINT('',#1729);
#519=VERTEX_POINT('',#1731);
#520=VERTEX_POINT('',#1733);
#521=VERTEX_POINT('',#1735);
#522=VERTEX_POINT('',#1738);
#523=VERTEX_POINT('',#1739);
#524=VERTEX_POINT('',#1741);
#525=VERTEX_POINT('',#1743);
#526=VERTEX_POINT('',#1746);
#527=VERTEX_POINT('',#1748);
#528=VERTEX_POINT('',#1750);
#529=VERTEX_POINT('',#1752);
#530=VERTEX_POINT('',#1754);
#531=VERTEX_POINT('',#1756);
#532=VERTEX_POINT('',#1758);
#533=VERTEX_POINT('',#1760);
#534=VERTEX_POINT('',#1762);
#535=VERTEX_POINT('',#1764);
#536=VERTEX_POINT('',#1767);
#537=VERTEX_POINT('',#1769);
#538=VERTEX_POINT('',#1771);
#539=VERTEX_POINT('',#1773);
#540=VERTEX_POINT('',#1775);
#541=VERTEX_POINT('',#1777);
#542=VERTEX_POINT('',#1779);
#543=VERTEX_POINT('',#1781);
#544=VERTEX_POINT('',#1783);
#545=VERTEX_POINT('',#1784);
#546=VERTEX_POINT('',#1786);
#547=VERTEX_POINT('',#1788);
#548=VERTEX_POINT('',#1792);
#549=VERTEX_POINT('',#1796);
#550=VERTEX_POINT('',#1798);
#551=VERTEX_POINT('',#1802);
#552=VERTEX_POINT('',#1806);
#553=VERTEX_POINT('',#1810);
#554=VERTEX_POINT('',#1814);
#555=VERTEX_POINT('',#1818);
#556=VERTEX_POINT('',#1820);
#557=VERTEX_POINT('',#1824);
#558=VERTEX_POINT('',#1828);
#559=VERTEX_POINT('',#1836);
#560=VERTEX_POINT('',#1837);
#561=VERTEX_POINT('',#1839);
#562=VERTEX_POINT('',#1841);
#563=VERTEX_POINT('',#1843);
#564=VERTEX_POINT('',#1845);
#565=VERTEX_POINT('',#1847);
#566=VERTEX_POINT('',#1849);
#567=VERTEX_POINT('',#1851);
#568=VERTEX_POINT('',#1853);
#569=VERTEX_POINT('',#1855);
#570=VERTEX_POINT('',#1858);
#571=VERTEX_POINT('',#1860);
#572=VERTEX_POINT('',#1862);
#573=VERTEX_POINT('',#1865);
#574=VERTEX_POINT('',#1867);
#575=VERTEX_POINT('',#1869);
#576=VERTEX_POINT('',#1871);
#577=VERTEX_POINT('',#1873);
#578=VERTEX_POINT('',#1875);
#579=VERTEX_POINT('',#1877);
#580=VERTEX_POINT('',#1879);
#581=VERTEX_POINT('',#1881);
#582=VERTEX_POINT('',#1882);
#583=VERTEX_POINT('',#1884);
#584=VERTEX_POINT('',#1886);
#585=VERTEX_POINT('',#1908);
#586=VERTEX_POINT('',#1910);
#587=VERTEX_POINT('',#1913);
#588=VERTEX_POINT('',#1915);
#589=VERTEX_POINT('',#1918);
#590=VERTEX_POINT('',#1920);
#591=VERTEX_POINT('',#1923);
#592=VERTEX_POINT('',#1925);
#593=VERTEX_POINT('',#1928);
#594=VERTEX_POINT('',#1930);
#595=VERTEX_POINT('',#1933);
#596=VERTEX_POINT('',#1935);
#597=EDGE_CURVE('',#491,#492,#301,.T.);
#598=EDGE_CURVE('',#493,#492,#302,.T.);
#599=EDGE_CURVE('',#493,#494,#303,.T.);
#600=EDGE_CURVE('',#494,#491,#304,.T.);
#601=EDGE_CURVE('',#492,#495,#51,.T.);
#602=EDGE_CURVE('',#496,#495,#305,.T.);
#603=EDGE_CURVE('',#496,#493,#52,.T.);
#604=EDGE_CURVE('',#495,#497,#306,.T.);
#605=EDGE_CURVE('',#498,#497,#307,.T.);
#606=EDGE_CURVE('',#498,#496,#308,.T.);
#607=EDGE_CURVE('',#497,#491,#53,.T.);
#608=EDGE_CURVE('',#494,#498,#54,.T.);
#609=EDGE_CURVE('',#499,#500,#309,.T.);
#610=EDGE_CURVE('',#501,#500,#310,.T.);
#611=EDGE_CURVE('',#501,#502,#311,.T.);
#612=EDGE_CURVE('',#502,#499,#312,.T.);
#613=EDGE_CURVE('',#500,#503,#55,.T.);
#614=EDGE_CURVE('',#504,#503,#313,.T.);
#615=EDGE_CURVE('',#504,#501,#56,.T.);
#616=EDGE_CURVE('',#503,#505,#314,.T.);
#617=EDGE_CURVE('',#506,#505,#315,.T.);
#618=EDGE_CURVE('',#506,#504,#316,.T.);
#619=EDGE_CURVE('',#505,#499,#57,.T.);
#620=EDGE_CURVE('',#502,#506,#58,.T.);
#621=EDGE_CURVE('',#507,#508,#59,.T.);
#622=EDGE_CURVE('',#509,#507,#317,.T.);
#623=EDGE_CURVE('',#510,#509,#60,.T.);
#624=EDGE_CURVE('',#508,#510,#318,.T.);
#625=EDGE_CURVE('',#511,#512,#319,.T.);
#626=EDGE_CURVE('',#513,#512,#320,.T.);
#627=EDGE_CURVE('',#514,#513,#321,.T.);
#628=EDGE_CURVE('',#514,#515,#322,.T.);
#629=EDGE_CURVE('',#515,#516,#323,.T.);
#630=EDGE_CURVE('',#516,#517,#324,.F.);
#631=EDGE_CURVE('',#517,#518,#325,.F.);
#632=EDGE_CURVE('',#519,#518,#326,.T.);
#633=EDGE_CURVE('',#520,#519,#327,.T.);
#634=EDGE_CURVE('',#521,#520,#328,.T.);
#635=EDGE_CURVE('',#511,#521,#329,.T.);
#636=EDGE_CURVE('',#522,#523,#330,.T.);
#637=EDGE_CURVE('',#524,#522,#61,.T.);
#638=EDGE_CURVE('',#525,#524,#331,.T.);
#639=EDGE_CURVE('',#523,#525,#62,.T.);
#640=EDGE_CURVE('',#526,#508,#63,.T.);
#641=EDGE_CURVE('',#526,#527,#64,.T.);
#642=EDGE_CURVE('',#528,#527,#65,.T.);
#643=EDGE_CURVE('',#528,#529,#66,.T.);
#644=EDGE_CURVE('',#530,#529,#67,.T.);
#645=EDGE_CURVE('',#530,#531,#68,.T.);
#646=EDGE_CURVE('',#532,#531,#69,.T.);
#647=EDGE_CURVE('',#533,#532,#332,.T.);
#648=EDGE_CURVE('',#534,#533,#70,.T.);
#649=EDGE_CURVE('',#535,#534,#333,.T.);
#650=EDGE_CURVE('',#535,#507,#71,.T.);
#651=EDGE_CURVE('',#536,#536,#72,.T.);
#652=EDGE_CURVE('',#537,#537,#73,.T.);
#653=EDGE_CURVE('',#538,#538,#74,.F.);
#654=EDGE_CURVE('',#539,#539,#75,.T.);
#655=EDGE_CURVE('',#540,#540,#76,.T.);
#656=EDGE_CURVE('',#541,#541,#77,.F.);
#657=EDGE_CURVE('',#542,#542,#78,.F.);
#658=EDGE_CURVE('',#543,#543,#79,.F.);
#659=EDGE_CURVE('',#544,#545,#334,.T.);
#660=EDGE_CURVE('',#546,#544,#80,.T.);
#661=EDGE_CURVE('',#547,#546,#335,.T.);
#662=EDGE_CURVE('',#545,#547,#81,.T.);
#663=EDGE_CURVE('',#548,#535,#336,.T.);
#664=EDGE_CURVE('',#509,#548,#82,.T.);
#665=EDGE_CURVE('',#549,#526,#337,.T.);
#666=EDGE_CURVE('',#550,#549,#83,.T.);
#667=EDGE_CURVE('',#527,#550,#338,.T.);
#668=EDGE_CURVE('',#550,#551,#84,.T.);
#669=EDGE_CURVE('',#551,#528,#339,.T.);
#670=EDGE_CURVE('',#552,#551,#85,.T.);
#671=EDGE_CURVE('',#529,#552,#340,.T.);
#672=EDGE_CURVE('',#552,#553,#86,.T.);
#673=EDGE_CURVE('',#553,#530,#341,.T.);
#674=EDGE_CURVE('',#554,#553,#87,.T.);
#675=EDGE_CURVE('',#531,#554,#342,.T.);
#676=EDGE_CURVE('',#555,#546,#343,.T.);
#677=EDGE_CURVE('',#555,#556,#344,.T.);
#678=EDGE_CURVE('',#556,#547,#345,.T.);
#679=EDGE_CURVE('',#557,#544,#346,.T.);
#680=EDGE_CURVE('',#557,#555,#88,.T.);
#681=EDGE_CURVE('',#558,#545,#347,.T.);
#682=EDGE_CURVE('',#558,#557,#348,.T.);
#683=EDGE_CURVE('',#556,#558,#89,.T.);
#684=EDGE_CURVE('',#510,#549,#90,.T.);
#685=EDGE_CURVE('',#559,#560,#349,.T.);
#686=EDGE_CURVE('',#561,#560,#350,.T.);
#687=EDGE_CURVE('',#561,#562,#351,.T.);
#688=EDGE_CURVE('',#563,#562,#352,.T.);
#689=EDGE_CURVE('',#564,#563,#353,.T.);
#690=EDGE_CURVE('',#565,#564,#354,.F.);
#691=EDGE_CURVE('',#566,#565,#355,.T.);
#692=EDGE_CURVE('',#567,#566,#356,.T.);
#693=EDGE_CURVE('',#568,#567,#357,.T.);
#694=EDGE_CURVE('',#569,#568,#358,.F.);
#695=EDGE_CURVE('',#559,#569,#359,.T.);
#696=EDGE_CURVE('',#570,#548,#360,.T.);
#697=EDGE_CURVE('',#571,#570,#91,.T.);
#698=EDGE_CURVE('',#572,#571,#361,.T.);
#699=EDGE_CURVE('',#554,#572,#92,.T.);
#700=EDGE_CURVE('',#573,#573,#93,.T.);
#701=EDGE_CURVE('',#574,#574,#94,.T.);
#702=EDGE_CURVE('',#575,#575,#95,.T.);
#703=EDGE_CURVE('',#576,#576,#96,.T.);
#704=EDGE_CURVE('',#577,#577,#97,.T.);
#705=EDGE_CURVE('',#578,#578,#98,.T.);
#706=EDGE_CURVE('',#579,#579,#99,.T.);
#707=EDGE_CURVE('',#580,#580,#100,.T.);
#708=EDGE_CURVE('',#581,#582,#362,.T.);
#709=EDGE_CURVE('',#583,#581,#101,.T.);
#710=EDGE_CURVE('',#584,#583,#363,.T.);
#711=EDGE_CURVE('',#582,#584,#102,.T.);
#712=EDGE_CURVE('',#584,#524,#364,.T.);
#713=EDGE_CURVE('',#583,#525,#365,.T.);
#714=EDGE_CURVE('',#582,#522,#366,.T.);
#715=EDGE_CURVE('',#581,#523,#367,.T.);
#716=EDGE_CURVE('',#570,#534,#368,.T.);
#717=EDGE_CURVE('',#571,#533,#369,.T.);
#718=EDGE_CURVE('',#572,#532,#370,.T.);
#719=EDGE_CURVE('',#511,#567,#371,.T.);
#720=EDGE_CURVE('',#566,#512,#372,.F.);
#721=EDGE_CURVE('',#585,#585,#103,.T.);
#722=EDGE_CURVE('',#586,#586,#104,.T.);
#723=EDGE_CURVE('',#587,#587,#105,.T.);
#724=EDGE_CURVE('',#588,#588,#106,.F.);
#725=EDGE_CURVE('',#589,#589,#107,.T.);
#726=EDGE_CURVE('',#590,#590,#108,.T.);
#727=EDGE_CURVE('',#591,#591,#109,.T.);
#728=EDGE_CURVE('',#592,#592,#110,.T.);
#729=EDGE_CURVE('',#593,#593,#111,.T.);
#730=EDGE_CURVE('',#594,#594,#112,.F.);
#731=EDGE_CURVE('',#595,#595,#113,.T.);
#732=EDGE_CURVE('',#596,#596,#114,.F.);
#733=EDGE_CURVE('',#573,#586,#373,.T.);
#734=EDGE_CURVE('',#593,#574,#374,.T.);
#735=EDGE_CURVE('',#595,#575,#375,.T.);
#736=EDGE_CURVE('',#576,#591,#376,.T.);
#737=EDGE_CURVE('',#587,#577,#377,.T.);
#738=EDGE_CURVE('',#589,#579,#378,.T.);
#739=EDGE_CURVE('',#536,#585,#379,.T.);
#740=EDGE_CURVE('',#537,#578,#380,.T.);
#741=EDGE_CURVE('',#588,#538,#381,.T.);
#742=EDGE_CURVE('',#590,#539,#382,.T.);
#743=EDGE_CURVE('',#592,#540,#383,.T.);
#744=EDGE_CURVE('',#594,#541,#384,.T.);
#745=EDGE_CURVE('',#596,#542,#385,.T.);
#746=EDGE_CURVE('',#543,#580,#386,.T.);
#747=EDGE_CURVE('',#563,#515,#387,.F.);
#748=EDGE_CURVE('',#562,#516,#388,.T.);
#749=EDGE_CURVE('',#517,#561,#389,.F.);
#750=EDGE_CURVE('',#518,#560,#390,.T.);
#751=EDGE_CURVE('',#559,#519,#391,.T.);
#752=EDGE_CURVE('',#520,#569,#392,.T.);
#753=EDGE_CURVE('',#568,#521,#393,.T.);
#754=EDGE_CURVE('',#513,#565,#394,.T.);
#755=EDGE_CURVE('',#564,#514,#395,.T.);
#756=ORIENTED_EDGE('',*,*,#597,.T.);
#757=ORIENTED_EDGE('',*,*,#598,.F.);
#758=ORIENTED_EDGE('',*,*,#599,.T.);
#759=ORIENTED_EDGE('',*,*,#600,.T.);
#760=ORIENTED_EDGE('',*,*,#601,.T.);
#761=ORIENTED_EDGE('',*,*,#602,.F.);
#762=ORIENTED_EDGE('',*,*,#603,.T.);
#763=ORIENTED_EDGE('',*,*,#598,.T.);
#764=ORIENTED_EDGE('',*,*,#604,.T.);
#765=ORIENTED_EDGE('',*,*,#605,.F.);
#766=ORIENTED_EDGE('',*,*,#606,.T.);
#767=ORIENTED_EDGE('',*,*,#602,.T.);
#768=ORIENTED_EDGE('',*,*,#607,.T.);
#769=ORIENTED_EDGE('',*,*,#600,.F.);
#770=ORIENTED_EDGE('',*,*,#608,.T.);
#771=ORIENTED_EDGE('',*,*,#605,.T.);
#772=ORIENTED_EDGE('',*,*,#609,.T.);
#773=ORIENTED_EDGE('',*,*,#610,.F.);
#774=ORIENTED_EDGE('',*,*,#611,.T.);
#775=ORIENTED_EDGE('',*,*,#612,.T.);
#776=ORIENTED_EDGE('',*,*,#613,.T.);
#777=ORIENTED_EDGE('',*,*,#614,.F.);
#778=ORIENTED_EDGE('',*,*,#615,.T.);
#779=ORIENTED_EDGE('',*,*,#610,.T.);
#780=ORIENTED_EDGE('',*,*,#616,.T.);
#781=ORIENTED_EDGE('',*,*,#617,.F.);
#782=ORIENTED_EDGE('',*,*,#618,.T.);
#783=ORIENTED_EDGE('',*,*,#614,.T.);
#784=ORIENTED_EDGE('',*,*,#619,.T.);
#785=ORIENTED_EDGE('',*,*,#612,.F.);
#786=ORIENTED_EDGE('',*,*,#620,.T.);
#787=ORIENTED_EDGE('',*,*,#617,.T.);
#788=ORIENTED_EDGE('',*,*,#621,.F.);
#789=ORIENTED_EDGE('',*,*,#622,.F.);
#790=ORIENTED_EDGE('',*,*,#623,.F.);
#791=ORIENTED_EDGE('',*,*,#624,.F.);
#792=ORIENTED_EDGE('',*,*,#625,.T.);
#793=ORIENTED_EDGE('',*,*,#626,.F.);
#794=ORIENTED_EDGE('',*,*,#627,.F.);
#795=ORIENTED_EDGE('',*,*,#628,.T.);
#796=ORIENTED_EDGE('',*,*,#629,.T.);
#797=ORIENTED_EDGE('',*,*,#630,.T.);
#798=ORIENTED_EDGE('',*,*,#631,.T.);
#799=ORIENTED_EDGE('',*,*,#632,.F.);
#800=ORIENTED_EDGE('',*,*,#633,.F.);
#801=ORIENTED_EDGE('',*,*,#634,.F.);
#802=ORIENTED_EDGE('',*,*,#635,.F.);
#803=ORIENTED_EDGE('',*,*,#604,.F.);
#804=ORIENTED_EDGE('',*,*,#601,.F.);
#805=ORIENTED_EDGE('',*,*,#597,.F.);
#806=ORIENTED_EDGE('',*,*,#607,.F.);
#807=ORIENTED_EDGE('',*,*,#616,.F.);
#808=ORIENTED_EDGE('',*,*,#613,.F.);
#809=ORIENTED_EDGE('',*,*,#609,.F.);
#810=ORIENTED_EDGE('',*,*,#619,.F.);
#811=ORIENTED_EDGE('',*,*,#636,.F.);
#812=ORIENTED_EDGE('',*,*,#637,.F.);
#813=ORIENTED_EDGE('',*,*,#638,.F.);
#814=ORIENTED_EDGE('',*,*,#639,.F.);
#815=ORIENTED_EDGE('',*,*,#621,.T.);
#816=ORIENTED_EDGE('',*,*,#640,.F.);
#817=ORIENTED_EDGE('',*,*,#641,.T.);
#818=ORIENTED_EDGE('',*,*,#642,.F.);
#819=ORIENTED_EDGE('',*,*,#643,.T.);
#820=ORIENTED_EDGE('',*,*,#644,.F.);
#821=ORIENTED_EDGE('',*,*,#645,.T.);
#822=ORIENTED_EDGE('',*,*,#646,.F.);
#823=ORIENTED_EDGE('',*,*,#647,.F.);
#824=ORIENTED_EDGE('',*,*,#648,.F.);
#825=ORIENTED_EDGE('',*,*,#649,.F.);
#826=ORIENTED_EDGE('',*,*,#650,.T.);
#827=ORIENTED_EDGE('',*,*,#651,.F.);
#828=ORIENTED_EDGE('',*,*,#652,.T.);
#829=ORIENTED_EDGE('',*,*,#653,.F.);
#830=ORIENTED_EDGE('',*,*,#654,.T.);
#831=ORIENTED_EDGE('',*,*,#655,.T.);
#832=ORIENTED_EDGE('',*,*,#656,.F.);
#833=ORIENTED_EDGE('',*,*,#657,.F.);
#834=ORIENTED_EDGE('',*,*,#658,.F.);
#835=ORIENTED_EDGE('',*,*,#659,.F.);
#836=ORIENTED_EDGE('',*,*,#660,.F.);
#837=ORIENTED_EDGE('',*,*,#661,.F.);
#838=ORIENTED_EDGE('',*,*,#662,.F.);
#839=ORIENTED_EDGE('',*,*,#622,.T.);
#840=ORIENTED_EDGE('',*,*,#650,.F.);
#841=ORIENTED_EDGE('',*,*,#663,.F.);
#842=ORIENTED_EDGE('',*,*,#664,.F.);
#843=ORIENTED_EDGE('',*,*,#641,.F.);
#844=ORIENTED_EDGE('',*,*,#665,.F.);
#845=ORIENTED_EDGE('',*,*,#666,.F.);
#846=ORIENTED_EDGE('',*,*,#667,.F.);
#847=ORIENTED_EDGE('',*,*,#667,.T.);
#848=ORIENTED_EDGE('',*,*,#668,.T.);
#849=ORIENTED_EDGE('',*,*,#669,.T.);
#850=ORIENTED_EDGE('',*,*,#642,.T.);
#851=ORIENTED_EDGE('',*,*,#643,.F.);
#852=ORIENTED_EDGE('',*,*,#669,.F.);
#853=ORIENTED_EDGE('',*,*,#670,.F.);
#854=ORIENTED_EDGE('',*,*,#671,.F.);
#855=ORIENTED_EDGE('',*,*,#671,.T.);
#856=ORIENTED_EDGE('',*,*,#672,.T.);
#857=ORIENTED_EDGE('',*,*,#673,.T.);
#858=ORIENTED_EDGE('',*,*,#644,.T.);
#859=ORIENTED_EDGE('',*,*,#645,.F.);
#860=ORIENTED_EDGE('',*,*,#673,.F.);
#861=ORIENTED_EDGE('',*,*,#674,.F.);
#862=ORIENTED_EDGE('',*,*,#675,.F.);
#863=ORIENTED_EDGE('',*,*,#661,.T.);
#864=ORIENTED_EDGE('',*,*,#676,.F.);
#865=ORIENTED_EDGE('',*,*,#677,.T.);
#866=ORIENTED_EDGE('',*,*,#678,.T.);
#867=ORIENTED_EDGE('',*,*,#660,.T.);
#868=ORIENTED_EDGE('',*,*,#679,.F.);
#869=ORIENTED_EDGE('',*,*,#680,.T.);
#870=ORIENTED_EDGE('',*,*,#676,.T.);
#871=ORIENTED_EDGE('',*,*,#659,.T.);
#872=ORIENTED_EDGE('',*,*,#681,.F.);
#873=ORIENTED_EDGE('',*,*,#682,.T.);
#874=ORIENTED_EDGE('',*,*,#679,.T.);
#875=ORIENTED_EDGE('',*,*,#662,.T.);
#876=ORIENTED_EDGE('',*,*,#678,.F.);
#877=ORIENTED_EDGE('',*,*,#683,.T.);
#878=ORIENTED_EDGE('',*,*,#681,.T.);
#879=ORIENTED_EDGE('',*,*,#624,.T.);
#880=ORIENTED_EDGE('',*,*,#684,.T.);
#881=ORIENTED_EDGE('',*,*,#665,.T.);
#882=ORIENTED_EDGE('',*,*,#640,.T.);
#883=ORIENTED_EDGE('',*,*,#685,.T.);
#884=ORIENTED_EDGE('',*,*,#686,.F.);
#885=ORIENTED_EDGE('',*,*,#687,.T.);
#886=ORIENTED_EDGE('',*,*,#688,.F.);
#887=ORIENTED_EDGE('',*,*,#689,.F.);
#888=ORIENTED_EDGE('',*,*,#690,.F.);
#889=ORIENTED_EDGE('',*,*,#691,.F.);
#890=ORIENTED_EDGE('',*,*,#692,.F.);
#891=ORIENTED_EDGE('',*,*,#693,.F.);
#892=ORIENTED_EDGE('',*,*,#694,.F.);
#893=ORIENTED_EDGE('',*,*,#695,.F.);
#894=ORIENTED_EDGE('',*,*,#606,.F.);
#895=ORIENTED_EDGE('',*,*,#608,.F.);
#896=ORIENTED_EDGE('',*,*,#599,.F.);
#897=ORIENTED_EDGE('',*,*,#603,.F.);
#898=ORIENTED_EDGE('',*,*,#618,.F.);
#899=ORIENTED_EDGE('',*,*,#620,.F.);
#900=ORIENTED_EDGE('',*,*,#611,.F.);
#901=ORIENTED_EDGE('',*,*,#615,.F.);
#902=ORIENTED_EDGE('',*,*,#623,.T.);
#903=ORIENTED_EDGE('',*,*,#664,.T.);
#904=ORIENTED_EDGE('',*,*,#696,.F.);
#905=ORIENTED_EDGE('',*,*,#697,.F.);
#906=ORIENTED_EDGE('',*,*,#698,.F.);
#907=ORIENTED_EDGE('',*,*,#699,.F.);
#908=ORIENTED_EDGE('',*,*,#674,.T.);
#909=ORIENTED_EDGE('',*,*,#672,.F.);
#910=ORIENTED_EDGE('',*,*,#670,.T.);
#911=ORIENTED_EDGE('',*,*,#668,.F.);
#912=ORIENTED_EDGE('',*,*,#666,.T.);
#913=ORIENTED_EDGE('',*,*,#684,.F.);
#914=ORIENTED_EDGE('',*,*,#682,.F.);
#915=ORIENTED_EDGE('',*,*,#683,.F.);
#916=ORIENTED_EDGE('',*,*,#677,.F.);
#917=ORIENTED_EDGE('',*,*,#680,.F.);
#918=ORIENTED_EDGE('',*,*,#700,.F.);
#919=ORIENTED_EDGE('',*,*,#701,.F.);
#920=ORIENTED_EDGE('',*,*,#702,.F.);
#921=ORIENTED_EDGE('',*,*,#703,.F.);
#922=ORIENTED_EDGE('',*,*,#704,.F.);
#923=ORIENTED_EDGE('',*,*,#705,.F.);
#924=ORIENTED_EDGE('',*,*,#706,.F.);
#925=ORIENTED_EDGE('',*,*,#707,.F.);
#926=ORIENTED_EDGE('',*,*,#708,.F.);
#927=ORIENTED_EDGE('',*,*,#709,.F.);
#928=ORIENTED_EDGE('',*,*,#710,.F.);
#929=ORIENTED_EDGE('',*,*,#711,.F.);
#930=ORIENTED_EDGE('',*,*,#638,.T.);
#931=ORIENTED_EDGE('',*,*,#712,.F.);
#932=ORIENTED_EDGE('',*,*,#710,.T.);
#933=ORIENTED_EDGE('',*,*,#713,.T.);
#934=ORIENTED_EDGE('',*,*,#637,.T.);
#935=ORIENTED_EDGE('',*,*,#714,.F.);
#936=ORIENTED_EDGE('',*,*,#711,.T.);
#937=ORIENTED_EDGE('',*,*,#712,.T.);
#938=ORIENTED_EDGE('',*,*,#636,.T.);
#939=ORIENTED_EDGE('',*,*,#715,.F.);
#940=ORIENTED_EDGE('',*,*,#708,.T.);
#941=ORIENTED_EDGE('',*,*,#714,.T.);
#942=ORIENTED_EDGE('',*,*,#639,.T.);
#943=ORIENTED_EDGE('',*,*,#713,.F.);
#944=ORIENTED_EDGE('',*,*,#709,.T.);
#945=ORIENTED_EDGE('',*,*,#715,.T.);
#946=ORIENTED_EDGE('',*,*,#663,.T.);
#947=ORIENTED_EDGE('',*,*,#649,.T.);
#948=ORIENTED_EDGE('',*,*,#716,.F.);
#949=ORIENTED_EDGE('',*,*,#696,.T.);
#950=ORIENTED_EDGE('',*,*,#648,.T.);
#951=ORIENTED_EDGE('',*,*,#717,.F.);
#952=ORIENTED_EDGE('',*,*,#697,.T.);
#953=ORIENTED_EDGE('',*,*,#716,.T.);
#954=ORIENTED_EDGE('',*,*,#647,.T.);
#955=ORIENTED_EDGE('',*,*,#718,.F.);
#956=ORIENTED_EDGE('',*,*,#698,.T.);
#957=ORIENTED_EDGE('',*,*,#717,.T.);
#958=ORIENTED_EDGE('',*,*,#675,.T.);
#959=ORIENTED_EDGE('',*,*,#699,.T.);
#960=ORIENTED_EDGE('',*,*,#718,.T.);
#961=ORIENTED_EDGE('',*,*,#646,.T.);
#962=ORIENTED_EDGE('',*,*,#625,.F.);
#963=ORIENTED_EDGE('',*,*,#719,.T.);
#964=ORIENTED_EDGE('',*,*,#692,.T.);
#965=ORIENTED_EDGE('',*,*,#720,.T.);
#966=ORIENTED_EDGE('',*,*,#721,.F.);
#967=ORIENTED_EDGE('',*,*,#722,.T.);
#968=ORIENTED_EDGE('',*,*,#723,.T.);
#969=ORIENTED_EDGE('',*,*,#724,.T.);
#970=ORIENTED_EDGE('',*,*,#725,.F.);
#971=ORIENTED_EDGE('',*,*,#726,.F.);
#972=ORIENTED_EDGE('',*,*,#727,.F.);
#973=ORIENTED_EDGE('',*,*,#728,.F.);
#974=ORIENTED_EDGE('',*,*,#729,.T.);
#975=ORIENTED_EDGE('',*,*,#730,.T.);
#976=ORIENTED_EDGE('',*,*,#731,.T.);
#977=ORIENTED_EDGE('',*,*,#732,.T.);
#978=ORIENTED_EDGE('',*,*,#700,.T.);
#979=ORIENTED_EDGE('',*,*,#733,.T.);
#980=ORIENTED_EDGE('',*,*,#722,.F.);
#981=ORIENTED_EDGE('',*,*,#733,.F.);
#982=ORIENTED_EDGE('',*,*,#729,.F.);
#983=ORIENTED_EDGE('',*,*,#734,.T.);
#984=ORIENTED_EDGE('',*,*,#701,.T.);
#985=ORIENTED_EDGE('',*,*,#734,.F.);
#986=ORIENTED_EDGE('',*,*,#731,.F.);
#987=ORIENTED_EDGE('',*,*,#735,.T.);
#988=ORIENTED_EDGE('',*,*,#702,.T.);
#989=ORIENTED_EDGE('',*,*,#735,.F.);
#990=ORIENTED_EDGE('',*,*,#703,.T.);
#991=ORIENTED_EDGE('',*,*,#736,.T.);
#992=ORIENTED_EDGE('',*,*,#727,.T.);
#993=ORIENTED_EDGE('',*,*,#736,.F.);
#994=ORIENTED_EDGE('',*,*,#723,.F.);
#995=ORIENTED_EDGE('',*,*,#737,.T.);
#996=ORIENTED_EDGE('',*,*,#704,.T.);
#997=ORIENTED_EDGE('',*,*,#737,.F.);
#998=ORIENTED_EDGE('',*,*,#725,.T.);
#999=ORIENTED_EDGE('',*,*,#738,.T.);
#1000=ORIENTED_EDGE('',*,*,#706,.T.);
#1001=ORIENTED_EDGE('',*,*,#738,.F.);
#1002=ORIENTED_EDGE('',*,*,#651,.T.);
#1003=ORIENTED_EDGE('',*,*,#739,.T.);
#1004=ORIENTED_EDGE('',*,*,#721,.T.);
#1005=ORIENTED_EDGE('',*,*,#739,.F.);
#1006=ORIENTED_EDGE('',*,*,#652,.F.);
#1007=ORIENTED_EDGE('',*,*,#740,.T.);
#1008=ORIENTED_EDGE('',*,*,#705,.T.);
#1009=ORIENTED_EDGE('',*,*,#740,.F.);
#1010=ORIENTED_EDGE('',*,*,#724,.F.);
#1011=ORIENTED_EDGE('',*,*,#741,.T.);
#1012=ORIENTED_EDGE('',*,*,#653,.T.);
#1013=ORIENTED_EDGE('',*,*,#741,.F.);
#1014=ORIENTED_EDGE('',*,*,#726,.T.);
#1015=ORIENTED_EDGE('',*,*,#742,.T.);
#1016=ORIENTED_EDGE('',*,*,#654,.F.);
#1017=ORIENTED_EDGE('',*,*,#742,.F.);
#1018=ORIENTED_EDGE('',*,*,#728,.T.);
#1019=ORIENTED_EDGE('',*,*,#743,.T.);
#1020=ORIENTED_EDGE('',*,*,#655,.F.);
#1021=ORIENTED_EDGE('',*,*,#743,.F.);
#1022=ORIENTED_EDGE('',*,*,#730,.F.);
#1023=ORIENTED_EDGE('',*,*,#744,.T.);
#1024=ORIENTED_EDGE('',*,*,#656,.T.);
#1025=ORIENTED_EDGE('',*,*,#744,.F.);
#1026=ORIENTED_EDGE('',*,*,#732,.F.);
#1027=ORIENTED_EDGE('',*,*,#745,.T.);
#1028=ORIENTED_EDGE('',*,*,#657,.T.);
#1029=ORIENTED_EDGE('',*,*,#745,.F.);
#1030=ORIENTED_EDGE('',*,*,#658,.T.);
#1031=ORIENTED_EDGE('',*,*,#746,.T.);
#1032=ORIENTED_EDGE('',*,*,#707,.T.);
#1033=ORIENTED_EDGE('',*,*,#746,.F.);
#1034=ORIENTED_EDGE('',*,*,#747,.F.);
#1035=ORIENTED_EDGE('',*,*,#688,.T.);
#1036=ORIENTED_EDGE('',*,*,#748,.T.);
#1037=ORIENTED_EDGE('',*,*,#629,.F.);
#1038=ORIENTED_EDGE('',*,*,#749,.F.);
#1039=ORIENTED_EDGE('',*,*,#630,.F.);
#1040=ORIENTED_EDGE('',*,*,#748,.F.);
#1041=ORIENTED_EDGE('',*,*,#687,.F.);
#1042=ORIENTED_EDGE('',*,*,#686,.T.);
#1043=ORIENTED_EDGE('',*,*,#750,.F.);
#1044=ORIENTED_EDGE('',*,*,#631,.F.);
#1045=ORIENTED_EDGE('',*,*,#749,.T.);
#1046=ORIENTED_EDGE('',*,*,#685,.F.);
#1047=ORIENTED_EDGE('',*,*,#751,.T.);
#1048=ORIENTED_EDGE('',*,*,#632,.T.);
#1049=ORIENTED_EDGE('',*,*,#750,.T.);
#1050=ORIENTED_EDGE('',*,*,#751,.F.);
#1051=ORIENTED_EDGE('',*,*,#695,.T.);
#1052=ORIENTED_EDGE('',*,*,#752,.F.);
#1053=ORIENTED_EDGE('',*,*,#633,.T.);
#1054=ORIENTED_EDGE('',*,*,#752,.T.);
#1055=ORIENTED_EDGE('',*,*,#694,.T.);
#1056=ORIENTED_EDGE('',*,*,#753,.T.);
#1057=ORIENTED_EDGE('',*,*,#634,.T.);
#1058=ORIENTED_EDGE('',*,*,#753,.F.);
#1059=ORIENTED_EDGE('',*,*,#693,.T.);
#1060=ORIENTED_EDGE('',*,*,#719,.F.);
#1061=ORIENTED_EDGE('',*,*,#635,.T.);
#1062=ORIENTED_EDGE('',*,*,#691,.T.);
#1063=ORIENTED_EDGE('',*,*,#754,.F.);
#1064=ORIENTED_EDGE('',*,*,#626,.T.);
#1065=ORIENTED_EDGE('',*,*,#720,.F.);
#1066=ORIENTED_EDGE('',*,*,#747,.T.);
#1067=ORIENTED_EDGE('',*,*,#628,.F.);
#1068=ORIENTED_EDGE('',*,*,#755,.F.);
#1069=ORIENTED_EDGE('',*,*,#689,.T.);
#1070=ORIENTED_EDGE('',*,*,#690,.T.);
#1071=ORIENTED_EDGE('',*,*,#755,.T.);
#1072=ORIENTED_EDGE('',*,*,#627,.T.);
#1073=ORIENTED_EDGE('',*,*,#754,.T.);
#1074=PLANE('',#1179);
#1075=PLANE('',#1183);
#1076=PLANE('',#1187);
#1077=PLANE('',#1191);
#1078=PLANE('',#1198);
#1079=PLANE('',#1232);
#1080=PLANE('',#1235);
#1081=PLANE('',#1240);
#1082=PLANE('',#1253);
#1083=PLANE('',#1255);
#1084=PLANE('',#1257);
#1085=PLANE('',#1259);
#1086=PLANE('',#1261);
#1087=PLANE('',#1262);
#1088=PLANE('',#1265);
#1089=PLANE('',#1268);
#1090=PLANE('',#1271);
#1091=PLANE('',#1274);
#1092=PLANE('',#1277);
#1093=PLANE('',#1294);
#1094=PLANE('',#1295);
#1095=PLANE('',#1296);
#1096=PLANE('',#1297);
#1097=PLANE('',#1298);
#1098=PLANE('',#1299);
#1099=PLANE('',#1300);
#1100=PLANE('',#1301);
#1101=PLANE('',#1302);
#1102=PLANE('',#1303);
#1103=ADVANCED_FACE('',(#147),#1074,.T.);
#1104=ADVANCED_FACE('',(#148),#115,.F.);
#1105=ADVANCED_FACE('',(#149),#1075,.T.);
#1106=ADVANCED_FACE('',(#150),#116,.F.);
#1107=ADVANCED_FACE('',(#151),#1076,.T.);
#1108=ADVANCED_FACE('',(#152),#117,.F.);
#1109=ADVANCED_FACE('',(#153),#1077,.T.);
#1110=ADVANCED_FACE('',(#154),#118,.F.);
#1111=ADVANCED_FACE('',(#155),#119,.T.);
#1112=ADVANCED_FACE('',(#156,#19,#20,#21,#22,#23,#24,#25,#26,#27,#28,#29,
#30,#31),#1078,.T.);
#1113=ADVANCED_FACE('',(#157),#120,.T.);
#1114=ADVANCED_FACE('',(#158),#121,.T.);
#1115=ADVANCED_FACE('',(#159),#122,.F.);
#1116=ADVANCED_FACE('',(#160),#123,.T.);
#1117=ADVANCED_FACE('',(#161),#124,.F.);
#1118=ADVANCED_FACE('',(#162),#125,.T.);
#1119=ADVANCED_FACE('',(#163),#1079,.T.);
#1120=ADVANCED_FACE('',(#164),#126,.F.);
#1121=ADVANCED_FACE('',(#165),#1080,.T.);
#1122=ADVANCED_FACE('',(#166),#127,.F.);
#1123=ADVANCED_FACE('',(#167),#128,.F.);
#1124=ADVANCED_FACE('',(#168,#32,#33,#34,#35,#36,#37,#38,#39,#40,#41,#42,
#43,#44),#1081,.F.);
#1125=ADVANCED_FACE('',(#169),#1082,.T.);
#1126=ADVANCED_FACE('',(#170),#129,.F.);
#1127=ADVANCED_FACE('',(#171),#1083,.T.);
#1128=ADVANCED_FACE('',(#172),#130,.F.);
#1129=ADVANCED_FACE('',(#173),#1084,.T.);
#1130=ADVANCED_FACE('',(#174),#131,.F.);
#1131=ADVANCED_FACE('',(#175),#1085,.T.);
#1132=ADVANCED_FACE('',(#176),#132,.F.);
#1133=ADVANCED_FACE('',(#177),#1086,.F.);
#1134=ADVANCED_FACE('',(#178,#45),#1087,.T.);
#1135=ADVANCED_FACE('',(#179,#46),#1088,.F.);
#1136=ADVANCED_FACE('',(#180,#47),#1089,.T.);
#1137=ADVANCED_FACE('',(#181,#48),#1090,.T.);
#1138=ADVANCED_FACE('',(#182,#49),#1091,.F.);
#1139=ADVANCED_FACE('',(#183,#50),#1092,.F.);
#1140=ADVANCED_FACE('',(#184),#133,.F.);
#1141=ADVANCED_FACE('',(#185),#134,.F.);
#1142=ADVANCED_FACE('',(#186),#135,.F.);
#1143=ADVANCED_FACE('',(#187),#136,.F.);
#1144=ADVANCED_FACE('',(#188),#137,.F.);
#1145=ADVANCED_FACE('',(#189),#138,.F.);
#1146=ADVANCED_FACE('',(#190),#139,.F.);
#1147=ADVANCED_FACE('',(#191),#140,.F.);
#1148=ADVANCED_FACE('',(#192),#141,.F.);
#1149=ADVANCED_FACE('',(#193),#142,.F.);
#1150=ADVANCED_FACE('',(#194),#143,.F.);
#1151=ADVANCED_FACE('',(#195),#144,.F.);
#1152=ADVANCED_FACE('',(#196),#145,.F.);
#1153=ADVANCED_FACE('',(#197),#146,.F.);
#1154=ADVANCED_FACE('',(#198),#1093,.F.);
#1155=ADVANCED_FACE('',(#199),#1094,.T.);
#1156=ADVANCED_FACE('',(#200),#1095,.F.);
#1157=ADVANCED_FACE('',(#201),#1096,.F.);
#1158=ADVANCED_FACE('',(#202),#1097,.T.);
#1159=ADVANCED_FACE('',(#203),#1098,.F.);
#1160=ADVANCED_FACE('',(#204),#1099,.T.);
#1161=ADVANCED_FACE('',(#205),#1100,.T.);
#1162=ADVANCED_FACE('',(#206),#1101,.T.);
#1163=ADVANCED_FACE('',(#207),#1102,.F.);
#1164=CLOSED_SHELL('',(#1103,#1104,#1105,#1106,#1107,#1108,#1109,#1110,
#1111,#1112,#1113,#1114,#1115,#1116,#1117,#1118,#1119,#1120,#1121,#1122,
#1123,#1124,#1125,#1126,#1127,#1128,#1129,#1130,#1131,#1132,#1133,#1134,
#1135,#1136,#1137,#1138,#1139,#1140,#1141,#1142,#1143,#1144,#1145,#1146,
#1147,#1148,#1149,#1150,#1151,#1152,#1153,#1154,#1155,#1156,#1157,#1158,
#1159,#1160,#1161,#1162,#1163));
#1165=DERIVED_UNIT_ELEMENT(#1167,1.);
#1166=DERIVED_UNIT_ELEMENT(#1992,-3.);
#1167=(
MASS_UNIT()
NAMED_UNIT(*)
SI_UNIT(.KILO.,.GRAM.)
);
#1168=DERIVED_UNIT((#1165,#1166));
#1169=MEASURE_REPRESENTATION_ITEM('density measure',
POSITIVE_RATIO_MEASURE(7850.),#1168);
#1170=PROPERTY_DEFINITION_REPRESENTATION(#1175,#1172);
#1171=PROPERTY_DEFINITION_REPRESENTATION(#1176,#1173);
#1172=REPRESENTATION('material name',(#1174),#1989);
#1173=REPRESENTATION('density',(#1169),#1989);
#1174=DESCRIPTIVE_REPRESENTATION_ITEM('\X2\94A2\X0\','\X2\94A2\X0\');
#1175=PROPERTY_DEFINITION('material property','material name',#2004);
#1176=PROPERTY_DEFINITION('material property','density of part',#2004);
#1177=AXIS2_PLACEMENT_3D('',#1656,#1305,#1306);
#1178=AXIS2_PLACEMENT_3D('',#1657,#1307,#1308);
#1179=AXIS2_PLACEMENT_3D('',#1658,#1309,#1310);
#1180=AXIS2_PLACEMENT_3D('',#1667,#1315,#1316);
#1181=AXIS2_PLACEMENT_3D('',#1669,#1317,#1318);
#1182=AXIS2_PLACEMENT_3D('',#1672,#1320,#1321);
#1183=AXIS2_PLACEMENT_3D('',#1673,#1322,#1323);
#1184=AXIS2_PLACEMENT_3D('',#1679,#1327,#1328);
#1185=AXIS2_PLACEMENT_3D('',#1680,#1329,#1330);
#1186=AXIS2_PLACEMENT_3D('',#1681,#1331,#1332);
#1187=AXIS2_PLACEMENT_3D('',#1682,#1333,#1334);
#1188=AXIS2_PLACEMENT_3D('',#1691,#1339,#1340);
#1189=AXIS2_PLACEMENT_3D('',#1693,#1341,#1342);
#1190=AXIS2_PLACEMENT_3D('',#1696,#1344,#1345);
#1191=AXIS2_PLACEMENT_3D('',#1697,#1346,#1347);
#1192=AXIS2_PLACEMENT_3D('',#1703,#1351,#1352);
#1193=AXIS2_PLACEMENT_3D('',#1704,#1353,#1354);
#1194=AXIS2_PLACEMENT_3D('',#1705,#1355,#1356);
#1195=AXIS2_PLACEMENT_3D('',#1706,#1357,#1358);
#1196=AXIS2_PLACEMENT_3D('',#1709,#1359,#1360);
#1197=AXIS2_PLACEMENT_3D('',#1713,#1362,#1363);
#1198=AXIS2_PLACEMENT_3D('',#1715,#1365,#1366);
#1199=AXIS2_PLACEMENT_3D('',#1742,#1379,#1380);
#1200=AXIS2_PLACEMENT_3D('',#1745,#1382,#1383);
#1201=AXIS2_PLACEMENT_3D('',#1747,#1384,#1385);
#1202=AXIS2_PLACEMENT_3D('',#1749,#1386,#1387);
#1203=AXIS2_PLACEMENT_3D('',#1751,#1388,#1389);
#1204=AXIS2_PLACEMENT_3D('',#1753,#1390,#1391);
#1205=AXIS2_PLACEMENT_3D('',#1755,#1392,#1393);
#1206=AXIS2_PLACEMENT_3D('',#1757,#1394,#1395);
#1207=AXIS2_PLACEMENT_3D('',#1759,#1396,#1397);
#1208=AXIS2_PLACEMENT_3D('',#1763,#1399,#1400);
#1209=AXIS2_PLACEMENT_3D('',#1766,#1402,#1403);
#1210=AXIS2_PLACEMENT_3D('',#1768,#1404,#1405);
#1211=AXIS2_PLACEMENT_3D('',#1770,#1406,#1407);
#1212=AXIS2_PLACEMENT_3D('',#1772,#1408,#1409);
#1213=AXIS2_PLACEMENT_3D('',#1774,#1410,#1411);
#1214=AXIS2_PLACEMENT_3D('',#1776,#1412,#1413);
#1215=AXIS2_PLACEMENT_3D('',#1778,#1414,#1415);
#1216=AXIS2_PLACEMENT_3D('',#1780,#1416,#1417);
#1217=AXIS2_PLACEMENT_3D('',#1782,#1418,#1419);
#1218=AXIS2_PLACEMENT_3D('',#1787,#1421,#1422);
#1219=AXIS2_PLACEMENT_3D('',#1790,#1424,#1425);
#1220=AXIS2_PLACEMENT_3D('',#1791,#1426,#1427);
#1221=AXIS2_PLACEMENT_3D('',#1794,#1429,#1430);
#1222=AXIS2_PLACEMENT_3D('',#1795,#1431,#1432);
#1223=AXIS2_PLACEMENT_3D('',#1799,#1434,#1435);
#1224=AXIS2_PLACEMENT_3D('',#1801,#1437,#1438);
#1225=AXIS2_PLACEMENT_3D('',#1803,#1439,#1440);
#1226=AXIS2_PLACEMENT_3D('',#1805,#1442,#1443);
#1227=AXIS2_PLACEMENT_3D('',#1807,#1444,#1445);
#1228=AXIS2_PLACEMENT_3D('',#1809,#1447,#1448);
#1229=AXIS2_PLACEMENT_3D('',#1811,#1449,#1450);
#1230=AXIS2_PLACEMENT_3D('',#1813,#1452,#1453);
#1231=AXIS2_PLACEMENT_3D('',#1815,#1454,#1455);
#1232=AXIS2_PLACEMENT_3D('',#1817,#1457,#1458);
#1233=AXIS2_PLACEMENT_3D('',#1823,#1462,#1463);
#1234=AXIS2_PLACEMENT_3D('',#1826,#1465,#1466);
#1235=AXIS2_PLACEMENT_3D('',#1827,#1467,#1468);
#1236=AXIS2_PLACEMENT_3D('',#1831,#1471,#1472);
#1237=AXIS2_PLACEMENT_3D('',#1832,#1473,#1474);
#1238=AXIS2_PLACEMENT_3D('',#1833,#1475,#1476);
#1239=AXIS2_PLACEMENT_3D('',#1834,#1477,#1478);
#1240=AXIS2_PLACEMENT_3D('',#1835,#1479,#1480);
#1241=AXIS2_PLACEMENT_3D('',#1861,#1493,#1494);
#1242=AXIS2_PLACEMENT_3D('',#1864,#1496,#1497);
#1243=AXIS2_PLACEMENT_3D('',#1866,#1498,#1499);
#1244=AXIS2_PLACEMENT_3D('',#1868,#1500,#1501);
#1245=AXIS2_PLACEMENT_3D('',#1870,#1502,#1503);
#1246=AXIS2_PLACEMENT_3D('',#1872,#1504,#1505);
#1247=AXIS2_PLACEMENT_3D('',#1874,#1506,#1507);
#1248=AXIS2_PLACEMENT_3D('',#1876,#1508,#1509);
#1249=AXIS2_PLACEMENT_3D('',#1878,#1510,#1511);
#1250=AXIS2_PLACEMENT_3D('',#1880,#1512,#1513);
#1251=AXIS2_PLACEMENT_3D('',#1885,#1515,#1516);
#1252=AXIS2_PLACEMENT_3D('',#1888,#1518,#1519);
#1253=AXIS2_PLACEMENT_3D('',#1889,#1520,#1521);
#1254=AXIS2_PLACEMENT_3D('',#1892,#1524,#1525);
#1255=AXIS2_PLACEMENT_3D('',#1894,#1527,#1528);
#1256=AXIS2_PLACEMENT_3D('',#1896,#1530,#1531);
#1257=AXIS2_PLACEMENT_3D('',#1897,#1532,#1533);
#1258=AXIS2_PLACEMENT_3D('',#1899,#1535,#1536);
#1259=AXIS2_PLACEMENT_3D('',#1901,#1538,#1539);
#1260=AXIS2_PLACEMENT_3D('',#1903,#1541,#1542);
#1261=AXIS2_PLACEMENT_3D('',#1904,#1543,#1544);
#1262=AXIS2_PLACEMENT_3D('',#1907,#1547,#1548);
#1263=AXIS2_PLACEMENT_3D('',#1909,#1549,#1550);
#1264=AXIS2_PLACEMENT_3D('',#1911,#1551,#1552);
#1265=AXIS2_PLACEMENT_3D('',#1912,#1553,#1554);
#1266=AXIS2_PLACEMENT_3D('',#1914,#1555,#1556);
#1267=AXIS2_PLACEMENT_3D('',#1916,#1557,#1558);
#1268=AXIS2_PLACEMENT_3D('',#1917,#1559,#1560);
#1269=AXIS2_PLACEMENT_3D('',#1919,#1561,#1562);
#1270=AXIS2_PLACEMENT_3D('',#1921,#1563,#1564);
#1271=AXIS2_PLACEMENT_3D('',#1922,#1565,#1566);
#1272=AXIS2_PLACEMENT_3D('',#1924,#1567,#1568);
#1273=AXIS2_PLACEMENT_3D('',#1926,#1569,#1570);
#1274=AXIS2_PLACEMENT_3D('',#1927,#1571,#1572);
#1275=AXIS2_PLACEMENT_3D('',#1929,#1573,#1574);
#1276=AXIS2_PLACEMENT_3D('',#1931,#1575,#1576);
#1277=AXIS2_PLACEMENT_3D('',#1932,#1577,#1578);
#1278=AXIS2_PLACEMENT_3D('',#1934,#1579,#1580);
#1279=AXIS2_PLACEMENT_3D('',#1936,#1581,#1582);
#1280=AXIS2_PLACEMENT_3D('',#1937,#1583,#1584);
#1281=AXIS2_PLACEMENT_3D('',#1939,#1586,#1587);
#1282=AXIS2_PLACEMENT_3D('',#1941,#1589,#1590);
#1283=AXIS2_PLACEMENT_3D('',#1943,#1592,#1593);
#1284=AXIS2_PLACEMENT_3D('',#1945,#1595,#1596);
#1285=AXIS2_PLACEMENT_3D('',#1947,#1598,#1599);
#1286=AXIS2_PLACEMENT_3D('',#1949,#1601,#1602);
#1287=AXIS2_PLACEMENT_3D('',#1951,#1604,#1605);
#1288=AXIS2_PLACEMENT_3D('',#1953,#1607,#1608);
#1289=AXIS2_PLACEMENT_3D('',#1955,#1610,#1611);
#1290=AXIS2_PLACEMENT_3D('',#1957,#1613,#1614);
#1291=AXIS2_PLACEMENT_3D('',#1959,#1616,#1617);
#1292=AXIS2_PLACEMENT_3D('',#1961,#1619,#1620);
#1293=AXIS2_PLACEMENT_3D('',#1963,#1622,#1623);
#1294=AXIS2_PLACEMENT_3D('',#1965,#1625,#1626);
#1295=AXIS2_PLACEMENT_3D('',#1968,#1629,#1630);
#1296=AXIS2_PLACEMENT_3D('',#1970,#1632,#1633);
#1297=AXIS2_PLACEMENT_3D('',#1972,#1635,#1636);
#1298=AXIS2_PLACEMENT_3D('',#1974,#1638,#1639);
#1299=AXIS2_PLACEMENT_3D('',#1976,#1641,#1642);
#1300=AXIS2_PLACEMENT_3D('',#1978,#1644,#1645);
#1301=AXIS2_PLACEMENT_3D('',#1979,#1646,#1647);
#1302=AXIS2_PLACEMENT_3D('',#1981,#1649,#1650);
#1303=AXIS2_PLACEMENT_3D('',#1983,#1652,#1653);
#1304=AXIS2_PLACEMENT_3D('',#1984,#1654,#1655);
#1305=DIRECTION('axis',(0.,0.,1.));
#1306=DIRECTION('refdir',(1.,0.,0.));
#1307=DIRECTION('axis',(0.,0.,1.));
#1308=DIRECTION('refdir',(1.,0.,0.));
#1309=DIRECTION('center_axis',(1.,1.38777878078145E-15,0.));
#1310=DIRECTION('ref_axis',(1.38777878078145E-15,-1.,0.));
#1311=DIRECTION('',(-1.38777878078145E-15,1.,0.));
#1312=DIRECTION('',(0.,0.,-1.));
#1313=DIRECTION('',(1.38777878078145E-15,-1.,0.));
#1314=DIRECTION('',(0.,0.,-1.));
#1315=DIRECTION('center_axis',(0.,0.,1.));
#1316=DIRECTION('ref_axis',(-0.923076923076924,0.384615384615383,0.));
#1317=DIRECTION('center_axis',(0.,0.,-1.));
#1318=DIRECTION('ref_axis',(-0.923076923076924,0.384615384615383,0.));
#1319=DIRECTION('',(0.,0.,-1.));
#1320=DIRECTION('center_axis',(0.,0.,1.));
#1321=DIRECTION('ref_axis',(-0.923076923076924,0.384615384615383,0.));
#1322=DIRECTION('center_axis',(-1.,-1.38777878078145E-15,0.));
#1323=DIRECTION('ref_axis',(-1.38777878078145E-15,1.,0.));
#1324=DIRECTION('',(1.38777878078145E-15,-1.,0.));
#1325=DIRECTION('',(0.,0.,-1.));
#1326=DIRECTION('',(-1.38777878078145E-15,1.,0.));
#1327=DIRECTION('center_axis',(0.,0.,1.));
#1328=DIRECTION('ref_axis',(0.948683298050514,-0.316227766016837,0.));
#1329=DIRECTION('center_axis',(0.,0.,-1.));
#1330=DIRECTION('ref_axis',(0.948683298050514,-0.316227766016837,0.));
#1331=DIRECTION('center_axis',(0.,0.,1.));
#1332=DIRECTION('ref_axis',(0.948683298050514,-0.316227766016837,0.));
#1333=DIRECTION('center_axis',(1.,1.38777878078145E-15,0.));
#1334=DIRECTION('ref_axis',(1.38777878078145E-15,-1.,0.));
#1335=DIRECTION('',(-1.38777878078145E-15,1.,0.));
#1336=DIRECTION('',(0.,0.,-1.));
#1337=DIRECTION('',(1.38777878078145E-15,-1.,0.));
#1338=DIRECTION('',(0.,0.,-1.));
#1339=DIRECTION('center_axis',(0.,0.,1.));
#1340=DIRECTION('ref_axis',(-0.959019262410735,0.283340880081165,0.));
#1341=DIRECTION('center_axis',(0.,0.,-1.));
#1342=DIRECTION('ref_axis',(-0.959019262410735,0.283340880081165,0.));
#1343=DIRECTION('',(0.,0.,-1.));
#1344=DIRECTION('center_axis',(0.,0.,1.));
#1345=DIRECTION('ref_axis',(-0.959019262410735,0.283340880081165,0.));
#1346=DIRECTION('center_axis',(-1.,-1.38777878078145E-15,0.));
#1347=DIRECTION('ref_axis',(-1.38777878078145E-15,1.,0.));
#1348=DIRECTION('',(1.38777878078145E-15,-1.,0.));
#1349=DIRECTION('',(0.,0.,-1.));
#1350=DIRECTION('',(-1.38777878078145E-15,1.,0.));
#1351=DIRECTION('center_axis',(0.,0.,1.));
#1352=DIRECTION('ref_axis',(0.88905624681575,-0.457797979460256,0.));
#1353=DIRECTION('center_axis',(0.,0.,-1.));
#1354=DIRECTION('ref_axis',(0.88905624681575,-0.457797979460256,0.));
#1355=DIRECTION('center_axis',(0.,0.,1.));
#1356=DIRECTION('ref_axis',(0.88905624681575,-0.457797979460256,0.));
#1357=DIRECTION('center_axis',(0.,0.,1.));
#1358=DIRECTION('ref_axis',(-0.907938831328963,0.41910270646346,0.));
#1359=DIRECTION('center_axis',(0.,0.,-1.));
#1360=DIRECTION('ref_axis',(-0.907938831328963,0.41910270646346,0.));
#1361=DIRECTION('',(0.,0.,-1.));
#1362=DIRECTION('center_axis',(0.,0.,1.));
#1363=DIRECTION('ref_axis',(-0.907938831328963,0.41910270646346,0.));
#1364=DIRECTION('',(0.,0.,1.));
#1365=DIRECTION('center_axis',(0.,0.,-1.));
#1366=DIRECTION('ref_axis',(-1.,-1.38777878078145E-15,0.));
#1367=DIRECTION('',(1.,9.71445146547012E-16,0.));
#1368=DIRECTION('',(-0.707106781186548,0.707106781186547,0.));
#1369=DIRECTION('',(-6.93889390390723E-16,1.,0.));
#1370=DIRECTION('',(-0.707106781186546,-0.707106781186548,0.));
#1371=DIRECTION('',(6.93889390390723E-16,-1.,0.));
#1372=DIRECTION('',(0.707106781186545,0.70710678118655,0.));
#1373=DIRECTION('',(1.,6.93889390390723E-16,0.));
#1374=DIRECTION('',(0.866025403784439,-0.499999999999999,0.));
#1375=DIRECTION('',(0.500000000000001,-0.866025403784438,0.));
#1376=DIRECTION('',(6.93889390390723E-16,-1.,0.));
#1377=DIRECTION('',(-0.707106781186547,-0.707106781186547,0.));
#1378=DIRECTION('',(1.38777878078145E-15,-1.,0.));
#1379=DIRECTION('center_axis',(0.,0.,-1.));
#1380=DIRECTION('ref_axis',(-1.,-1.38777878078145E-15,0.));
#1381=DIRECTION('',(-1.38777878078145E-15,1.,0.));
#1382=DIRECTION('center_axis',(0.,0.,-1.));
#1383=DIRECTION('ref_axis',(1.,3.60822479694454E-15,0.));
#1384=DIRECTION('center_axis',(0.,0.,-1.));
#1385=DIRECTION('ref_axis',(0.923076923076924,-0.384615384615383,0.));
#1386=DIRECTION('center_axis',(0.,0.,-1.));
#1387=DIRECTION('ref_axis',(-0.750019683547478,0.66141550805174,0.));
#1388=DIRECTION('center_axis',(0.,0.,-1.));
#1389=DIRECTION('ref_axis',(0.477556854471015,0.878600848365029,0.));
#1390=DIRECTION('center_axis',(0.,0.,-1.));
#1391=DIRECTION('ref_axis',(-0.597218976016963,-0.802078234765943,0.));
#1392=DIRECTION('center_axis',(0.,0.,-1.));
#1393=DIRECTION('ref_axis',(0.162770120321811,0.986664019781011,0.));
#1394=DIRECTION('center_axis',(0.,0.,-1.));
#1395=DIRECTION('ref_axis',(-0.330320531689311,-0.943868818398241,0.));
#1396=DIRECTION('center_axis',(0.,0.,-1.));
#1397=DIRECTION('ref_axis',(-1.,-1.38777878078145E-15,0.));
#1398=DIRECTION('',(-1.38777878078145E-15,1.,0.));
#1399=DIRECTION('center_axis',(0.,0.,-1.));
#1400=DIRECTION('ref_axis',(1.,4.00913884708962E-16,0.));
#1401=DIRECTION('',(1.38777878078145E-15,-1.,0.));
#1402=DIRECTION('center_axis',(0.,0.,-1.));
#1403=DIRECTION('ref_axis',(-0.87234042362964,0.488898952035757,0.));
#1404=DIRECTION('center_axis',(0.,0.,-1.));
#1405=DIRECTION('ref_axis',(1.,6.93889390390723E-16,0.));
#1406=DIRECTION('center_axis',(0.,0.,1.));
#1407=DIRECTION('ref_axis',(1.,6.93889390390723E-16,0.));
#1408=DIRECTION('center_axis',(0.,0.,1.));
#1409=DIRECTION('ref_axis',(1.,6.93889390390723E-16,0.));
#1410=DIRECTION('center_axis',(0.,0.,1.));
#1411=DIRECTION('ref_axis',(1.,1.38777878078145E-15,0.));
#1412=DIRECTION('center_axis',(0.,0.,1.));
#1413=DIRECTION('ref_axis',(1.,1.38777878078145E-15,0.));
#1414=DIRECTION('center_axis',(0.,0.,1.));
#1415=DIRECTION('ref_axis',(1.,6.93889390390723E-16,0.));
#1416=DIRECTION('center_axis',(0.,0.,1.));
#1417=DIRECTION('ref_axis',(1.,6.93889390390723E-16,0.));
#1418=DIRECTION('center_axis',(0.,0.,1.));
#1419=DIRECTION('ref_axis',(1.,6.93889390390723E-16,0.));
#1420=DIRECTION('',(-1.,-1.38777878078145E-15,0.));
#1421=DIRECTION('center_axis',(0.,0.,-1.));
#1422=DIRECTION('ref_axis',(0.242169500624241,0.970233957851098,0.));
#1423=DIRECTION('',(1.,1.38777878078145E-15,0.));
#1424=DIRECTION('center_axis',(0.,0.,-1.));
#1425=DIRECTION('ref_axis',(-5.15460661644059E-16,-1.,0.));
#1426=DIRECTION('center_axis',(0.,0.,1.));
#1427=DIRECTION('ref_axis',(-0.87234042362964,0.488898952035757,0.));
#1428=DIRECTION('',(0.,0.,-1.));
#1429=DIRECTION('center_axis',(0.,0.,1.));
#1430=DIRECTION('ref_axis',(-0.87234042362964,0.488898952035757,0.));
#1431=DIRECTION('center_axis',(0.,0.,1.));
#1432=DIRECTION('ref_axis',(-0.750019683547478,0.66141550805174,0.));
#1433=DIRECTION('',(0.,0.,-1.));
#1434=DIRECTION('center_axis',(0.,0.,1.));
#1435=DIRECTION('ref_axis',(-0.750019683547478,0.66141550805174,0.));
#1436=DIRECTION('',(0.,0.,1.));
#1437=DIRECTION('center_axis',(0.,0.,1.));
#1438=DIRECTION('ref_axis',(0.477556854471015,0.878600848365029,0.));
#1439=DIRECTION('center_axis',(0.,0.,1.));
#1440=DIRECTION('ref_axis',(0.477556854471015,0.878600848365029,0.));
#1441=DIRECTION('',(0.,0.,-1.));
#1442=DIRECTION('center_axis',(0.,0.,1.));
#1443=DIRECTION('ref_axis',(-0.597218976016963,-0.802078234765943,0.));
#1444=DIRECTION('center_axis',(0.,0.,1.));
#1445=DIRECTION('ref_axis',(-0.597218976016963,-0.802078234765943,0.));
#1446=DIRECTION('',(0.,0.,1.));
#1447=DIRECTION('center_axis',(0.,0.,1.));
#1448=DIRECTION('ref_axis',(0.162770120321811,0.986664019781011,0.));
#1449=DIRECTION('center_axis',(0.,0.,1.));
#1450=DIRECTION('ref_axis',(0.162770120321811,0.986664019781011,0.));
#1451=DIRECTION('',(0.,0.,-1.));
#1452=DIRECTION('center_axis',(0.,0.,1.));
#1453=DIRECTION('ref_axis',(-0.330320531689311,-0.943868818398241,0.));
#1454=DIRECTION('center_axis',(0.,0.,1.));
#1455=DIRECTION('ref_axis',(-0.330320531689311,-0.943868818398241,0.));
#1456=DIRECTION('',(0.,0.,1.));
#1457=DIRECTION('center_axis',(1.38777878078145E-15,-1.,0.));
#1458=DIRECTION('ref_axis',(-1.,-1.38777878078145E-15,0.));
#1459=DIRECTION('',(0.,0.,-1.));
#1460=DIRECTION('',(-1.,-1.38777878078145E-15,0.));
#1461=DIRECTION('',(0.,0.,-1.));
#1462=DIRECTION('center_axis',(0.,0.,1.));
#1463=DIRECTION('ref_axis',(0.242169500624241,0.970233957851098,0.));
#1464=DIRECTION('',(0.,0.,-1.));
#1465=DIRECTION('center_axis',(0.,0.,1.));
#1466=DIRECTION('ref_axis',(0.242169500624241,0.970233957851098,0.));
#1467=DIRECTION('center_axis',(-1.38777878078145E-15,1.,0.));
#1468=DIRECTION('ref_axis',(1.,1.38777878078145E-15,0.));
#1469=DIRECTION('',(0.,0.,-1.));
#1470=DIRECTION('',(1.,1.38777878078145E-15,0.));
#1471=DIRECTION('center_axis',(0.,0.,1.));
#1472=DIRECTION('ref_axis',(-5.15460661644059E-16,-1.,0.));
#1473=DIRECTION('center_axis',(0.,0.,1.));
#1474=DIRECTION('ref_axis',(-5.15460661644059E-16,-1.,0.));
#1475=DIRECTION('center_axis',(0.,0.,1.));
#1476=DIRECTION('ref_axis',(0.923076923076924,-0.384615384615383,0.));
#1477=DIRECTION('center_axis',(0.,0.,1.));
#1478=DIRECTION('ref_axis',(0.923076923076924,-0.384615384615383,0.));
#1479=DIRECTION('center_axis',(0.,0.,-1.));
#1480=DIRECTION('ref_axis',(1.,6.93889390390723E-16,0.));
#1481=DIRECTION('',(0.866025403784439,-0.499999999999999,0.));
#1482=DIRECTION('',(-1.,-6.93889390390723E-16,0.));
#1483=DIRECTION('',(0.707106781186545,0.70710678118655,0.));
#1484=DIRECTION('',(6.93889390390723E-16,-1.,0.));
#1485=DIRECTION('',(-0.707106781186546,-0.707106781186548,0.));
#1486=DIRECTION('',(-6.93889390390723E-16,1.,0.));
#1487=DIRECTION('',(0.707106781186548,-0.707106781186547,0.));
#1488=DIRECTION('',(1.,9.71445146547012E-16,0.));
#1489=DIRECTION('',(0.707106781186547,0.707106781186547,0.));
#1490=DIRECTION('',(6.93889390390723E-16,-1.,0.));
#1491=DIRECTION('',(-0.500000000000001,0.866025403784438,0.));
#1492=DIRECTION('',(-1.38777878078145E-15,1.,0.));
#1493=DIRECTION('center_axis',(0.,0.,1.));
#1494=DIRECTION('ref_axis',(1.,4.00913884708962E-16,0.));
#1495=DIRECTION('',(1.38777878078145E-15,-1.,0.));
#1496=DIRECTION('center_axis',(0.,0.,1.));
#1497=DIRECTION('ref_axis',(-1.,-1.38777878078145E-15,0.));
#1498=DIRECTION('center_axis',(0.,0.,1.));
#1499=DIRECTION('ref_axis',(-1.,-6.93889390390723E-16,0.));
#1500=DIRECTION('center_axis',(0.,0.,1.));
#1501=DIRECTION('ref_axis',(1.,6.93889390390723E-16,0.));
#1502=DIRECTION('center_axis',(0.,0.,1.));
#1503=DIRECTION('ref_axis',(1.,6.93889390390723E-16,0.));
#1504=DIRECTION('center_axis',(0.,0.,1.));
#1505=DIRECTION('ref_axis',(1.,6.93889390390723E-16,8.75811540203011E-47));
#1506=DIRECTION('center_axis',(0.,0.,1.));
#1507=DIRECTION('ref_axis',(1.,6.93889390390723E-16,0.));
#1508=DIRECTION('center_axis',(0.,0.,1.));
#1509=DIRECTION('ref_axis',(1.,6.93889390390723E-16,0.));
#1510=DIRECTION('center_axis',(0.,0.,1.));
#1511=DIRECTION('ref_axis',(1.,6.93889390390723E-16,0.));
#1512=DIRECTION('center_axis',(0.,0.,1.));
#1513=DIRECTION('ref_axis',(1.,6.93889390390723E-16,0.));
#1514=DIRECTION('',(-1.38777878078145E-15,1.,0.));
#1515=DIRECTION('center_axis',(0.,0.,1.));
#1516=DIRECTION('ref_axis',(1.,3.60822479694454E-15,0.));
#1517=DIRECTION('',(1.38777878078145E-15,-1.,0.));
#1518=DIRECTION('center_axis',(0.,0.,1.));
#1519=DIRECTION('ref_axis',(-1.,-1.38777878078145E-15,0.));
#1520=DIRECTION('center_axis',(1.,1.38777878078145E-15,0.));
#1521=DIRECTION('ref_axis',(1.38777878078145E-15,-1.,0.));
#1522=DIRECTION('',(0.,0.,-1.));
#1523=DIRECTION('',(0.,0.,-1.));
#1524=DIRECTION('center_axis',(0.,0.,1.));
#1525=DIRECTION('ref_axis',(-1.,-1.38777878078145E-15,0.));
#1526=DIRECTION('',(0.,0.,-1.));
#1527=DIRECTION('center_axis',(-1.,-1.38777878078145E-15,0.));
#1528=DIRECTION('ref_axis',(-1.38777878078145E-15,1.,0.));
#1529=DIRECTION('',(0.,0.,-1.));
#1530=DIRECTION('center_axis',(0.,0.,1.));
#1531=DIRECTION('ref_axis',(1.,3.60822479694454E-15,0.));
#1532=DIRECTION('center_axis',(-1.,-1.38777878078145E-15,0.));
#1533=DIRECTION('ref_axis',(-1.38777878078145E-15,1.,0.));
#1534=DIRECTION('',(0.,0.,-1.));
#1535=DIRECTION('center_axis',(0.,0.,1.));
#1536=DIRECTION('ref_axis',(1.,4.00913884708962E-16,0.));
#1537=DIRECTION('',(0.,0.,-1.));
#1538=DIRECTION('center_axis',(1.,1.38777878078145E-15,0.));
#1539=DIRECTION('ref_axis',(1.38777878078145E-15,-1.,0.));
#1540=DIRECTION('',(0.,0.,-1.));
#1541=DIRECTION('center_axis',(0.,0.,1.));
#1542=DIRECTION('ref_axis',(-1.,-1.38777878078145E-15,0.));
#1543=DIRECTION('center_axis',(9.71445146547012E-16,-1.,0.));
#1544=DIRECTION('ref_axis',(-1.,-9.71445146547012E-16,0.));
#1545=DIRECTION('',(0.,0.,1.));
#1546=DIRECTION('',(0.,0.,1.));
#1547=DIRECTION('center_axis',(0.,0.,-1.));
#1548=DIRECTION('ref_axis',(1.,6.93889390390723E-16,0.));
#1549=DIRECTION('center_axis',(0.,0.,1.));
#1550=DIRECTION('ref_axis',(1.,6.93889390390723E-16,0.));
#1551=DIRECTION('center_axis',(0.,0.,1.));
#1552=DIRECTION('ref_axis',(-1.,-6.93889390390723E-16,0.));
#1553=DIRECTION('center_axis',(0.,0.,-1.));
#1554=DIRECTION('ref_axis',(1.,6.93889390390723E-16,0.));
#1555=DIRECTION('center_axis',(0.,0.,1.));
#1556=DIRECTION('ref_axis',(1.,6.93889390390723E-16,0.));
#1557=DIRECTION('center_axis',(0.,0.,1.));
#1558=DIRECTION('ref_axis',(1.,6.93889390390723E-16,0.));
#1559=DIRECTION('center_axis',(0.,0.,1.));
#1560=DIRECTION('ref_axis',(-1.,-1.38777878078145E-15,0.));
#1561=DIRECTION('center_axis',(0.,0.,-1.));
#1562=DIRECTION('ref_axis',(1.,6.93889390390723E-16,0.));
#1563=DIRECTION('center_axis',(0.,0.,1.));
#1564=DIRECTION('ref_axis',(1.,1.38777878078145E-15,0.));
#1565=DIRECTION('center_axis',(0.,0.,1.));
#1566=DIRECTION('ref_axis',(-1.,-1.38777878078145E-15,0.));
#1567=DIRECTION('center_axis',(0.,0.,-1.));
#1568=DIRECTION('ref_axis',(1.,6.93889390390723E-16,8.75811540203011E-47));
#1569=DIRECTION('center_axis',(0.,0.,1.));
#1570=DIRECTION('ref_axis',(1.,1.38777878078145E-15,0.));
#1571=DIRECTION('center_axis',(0.,0.,-1.));
#1572=DIRECTION('ref_axis',(1.,6.93889390390723E-16,0.));
#1573=DIRECTION('center_axis',(0.,0.,1.));
#1574=DIRECTION('ref_axis',(1.,6.93889390390723E-16,0.));
#1575=DIRECTION('center_axis',(0.,0.,1.));
#1576=DIRECTION('ref_axis',(1.,6.93889390390723E-16,0.));
#1577=DIRECTION('center_axis',(0.,0.,-1.));
#1578=DIRECTION('ref_axis',(1.,6.93889390390723E-16,0.));
#1579=DIRECTION('center_axis',(0.,0.,1.));
#1580=DIRECTION('ref_axis',(1.,6.93889390390723E-16,0.));
#1581=DIRECTION('center_axis',(0.,0.,1.));
#1582=DIRECTION('ref_axis',(1.,6.93889390390723E-16,0.));
#1583=DIRECTION('center_axis',(0.,0.,1.));
#1584=DIRECTION('ref_axis',(-1.,-6.93889390390723E-16,0.));
#1585=DIRECTION('',(0.,0.,-1.));
#1586=DIRECTION('center_axis',(0.,0.,-1.));
#1587=DIRECTION('ref_axis',(1.,6.93889390390723E-16,0.));
#1588=DIRECTION('',(0.,0.,1.));
#1589=DIRECTION('center_axis',(0.,0.,-1.));
#1590=DIRECTION('ref_axis',(1.,6.93889390390723E-16,0.));
#1591=DIRECTION('',(0.,0.,1.));
#1592=DIRECTION('center_axis',(-2.2161072687829E-31,3.19374715836919E-16,
1.));
#1593=DIRECTION('ref_axis',(1.,6.93889390390723E-16,8.75811540203011E-47));
#1594=DIRECTION('',(2.2161072687829E-31,-3.19374715836919E-16,-1.));
#1595=DIRECTION('center_axis',(0.,0.,-1.));
#1596=DIRECTION('ref_axis',(1.,6.93889390390723E-16,0.));
#1597=DIRECTION('',(0.,0.,1.));
#1598=DIRECTION('center_axis',(0.,0.,-1.));
#1599=DIRECTION('ref_axis',(1.,6.93889390390723E-16,0.));
#1600=DIRECTION('',(0.,0.,1.));
#1601=DIRECTION('center_axis',(0.,0.,-1.));
#1602=DIRECTION('ref_axis',(1.,6.93889390390723E-16,0.));
#1603=DIRECTION('',(0.,0.,1.));
#1604=DIRECTION('center_axis',(0.,0.,-1.));
#1605=DIRECTION('ref_axis',(1.,6.93889390390723E-16,0.));
#1606=DIRECTION('',(0.,0.,1.));
#1607=DIRECTION('center_axis',(0.,0.,1.));
#1608=DIRECTION('ref_axis',(-1.,-6.93889390390723E-16,0.));
#1609=DIRECTION('',(0.,0.,-1.));
#1610=DIRECTION('center_axis',(0.,0.,1.));
#1611=DIRECTION('ref_axis',(1.,1.38777878078145E-15,0.));
#1612=DIRECTION('',(0.,0.,-1.));
#1613=DIRECTION('center_axis',(0.,0.,1.));
#1614=DIRECTION('ref_axis',(1.,1.38777878078145E-15,0.));
#1615=DIRECTION('',(0.,0.,-1.));
#1616=DIRECTION('center_axis',(0.,0.,1.));
#1617=DIRECTION('ref_axis',(-1.,-6.93889390390723E-16,0.));
#1618=DIRECTION('',(0.,0.,-1.));
#1619=DIRECTION('center_axis',(0.,0.,1.));
#1620=DIRECTION('ref_axis',(-1.,-6.93889390390723E-16,0.));
#1621=DIRECTION('',(0.,0.,-1.));
#1622=DIRECTION('center_axis',(0.,0.,-1.));
#1623=DIRECTION('ref_axis',(1.,6.93889390390723E-16,0.));
#1624=DIRECTION('',(0.,0.,1.));
#1625=DIRECTION('center_axis',(-1.,-6.93889390390723E-16,0.));
#1626=DIRECTION('ref_axis',(0.,0.,-1.));
#1627=DIRECTION('',(0.,0.,1.));
#1628=DIRECTION('',(0.,0.,-1.));
#1629=DIRECTION('center_axis',(0.70710678118655,-0.707106781186545,0.));
#1630=DIRECTION('ref_axis',(0.,0.,-1.));
#1631=DIRECTION('',(0.,0.,-1.));
#1632=DIRECTION('center_axis',(-6.93889390390723E-16,1.,0.));
#1633=DIRECTION('ref_axis',(0.,0.,-1.));
#1634=DIRECTION('',(0.,0.,1.));
#1635=DIRECTION('center_axis',(0.499999999999999,0.866025403784439,-2.76586617241208E-16));
#1636=DIRECTION('ref_axis',(0.866025403784439,-0.499999999999999,1.59687357918459E-16));
#1637=DIRECTION('',(0.,0.,-1.));
#1638=DIRECTION('center_axis',(-0.866025403784438,-0.500000000000002,0.));
#1639=DIRECTION('ref_axis',(0.,0.,-1.));
#1640=DIRECTION('',(0.,0.,1.));
#1641=DIRECTION('center_axis',(1.,6.93889390390723E-16,0.));
#1642=DIRECTION('ref_axis',(0.,0.,1.));
#1643=DIRECTION('',(0.,0.,-1.));
#1644=DIRECTION('center_axis',(-0.707106781186548,0.707106781186548,0.));
#1645=DIRECTION('ref_axis',(0.,0.,-1.));
#1646=DIRECTION('center_axis',(0.707106781186547,0.707106781186549,0.));
#1647=DIRECTION('ref_axis',(0.,0.,-1.));
#1648=DIRECTION('',(0.,0.,1.));
#1649=DIRECTION('center_axis',(0.707106781186549,-0.707106781186547,0.));
#1650=DIRECTION('ref_axis',(0.,0.,-1.));
#1651=DIRECTION('',(0.,0.,-1.));
#1652=DIRECTION('center_axis',(-1.,-6.93889390390723E-16,0.));
#1653=DIRECTION('ref_axis',(0.,0.,-1.));
#1654=DIRECTION('',(0.,0.,1.));
#1655=DIRECTION('',(1.,0.,0.));
#1656=CARTESIAN_POINT('',(0.,0.,0.));
#1657=CARTESIAN_POINT('',(0.,0.,0.));
#1658=CARTESIAN_POINT('Origin',(-53.9488284789261,69.9999997019767,6.6));
#1659=CARTESIAN_POINT('',(-53.948828478926,53.9999994635581,0.));
#1660=CARTESIAN_POINT('',(-53.9488284789261,69.9999997019767,0.));
#1661=CARTESIAN_POINT('',(-53.9488284789261,83.7499998509883,0.));
#1662=CARTESIAN_POINT('',(-53.9488284789261,69.9999997019767,6.6));
#1663=CARTESIAN_POINT('',(-53.9488284789261,69.9999997019767,6.6));
#1664=CARTESIAN_POINT('',(-53.948828478926,53.9999994635581,6.6));
#1665=CARTESIAN_POINT('',(-53.9488284789261,68.7499998509883,6.6));
#1666=CARTESIAN_POINT('',(-53.948828478926,53.9999994635581,6.6));
#1667=CARTESIAN_POINT('Origin',(-52.4488284565743,69.3749996926635,6.6));
#1668=CARTESIAN_POINT('',(-50.9488284342226,69.9999997019767,0.));
#1669=CARTESIAN_POINT('Origin',(-52.4488284565743,69.3749996926635,0.));
#1670=CARTESIAN_POINT('',(-50.9488284342226,69.9999997019767,6.6));
#1671=CARTESIAN_POINT('',(-50.9488284342226,69.9999997019767,6.6));
#1672=CARTESIAN_POINT('Origin',(-52.4488284565743,69.3749996926635,6.6));
#1673=CARTESIAN_POINT('Origin',(-50.9488284342226,53.9999994635581,6.6));
#1674=CARTESIAN_POINT('',(-50.9488284342226,53.9999994635581,0.));
#1675=CARTESIAN_POINT('',(-50.9488284342226,75.749999731779,0.));
#1676=CARTESIAN_POINT('',(-50.9488284342226,53.9999994635581,6.6));
#1677=CARTESIAN_POINT('',(-50.9488284342226,53.9999994635581,6.6));
#1678=CARTESIAN_POINT('',(-50.9488284342226,60.749999731779,6.6));
#1679=CARTESIAN_POINT('Origin',(-52.4488284565743,54.4999994710087,6.6));
#1680=CARTESIAN_POINT('Origin',(-52.4488284565743,54.4999994710087,0.));
#1681=CARTESIAN_POINT('Origin',(-52.4488284565743,54.4999994710087,6.6));
#1682=CARTESIAN_POINT('Origin',(-52.9488284640249,88.9999999850988,6.6));
#1683=CARTESIAN_POINT('',(-52.9488284640249,77.999999821186,0.));
#1684=CARTESIAN_POINT('',(-52.9488284640249,88.9999999850988,0.));
#1685=CARTESIAN_POINT('',(-52.9488284640249,93.2499999925493,0.));
#1686=CARTESIAN_POINT('',(-52.9488284640249,88.9999999850988,6.6));
#1687=CARTESIAN_POINT('',(-52.9488284640249,88.9999999850988,6.6));
#1688=CARTESIAN_POINT('',(-52.9488284640249,77.999999821186,6.6));
#1689=CARTESIAN_POINT('',(-52.9488284640249,78.2499999925494,6.6));
#1690=CARTESIAN_POINT('',(-52.9488284640249,77.999999821186,6.6));
#1691=CARTESIAN_POINT('Origin',(-50.9488284342226,88.409102814606,6.6));
#1692=CARTESIAN_POINT('',(-48.9488284044203,88.9999999850988,0.));
#1693=CARTESIAN_POINT('Origin',(-50.9488284342226,88.409102814606,0.));
#1694=CARTESIAN_POINT('',(-48.9488284044203,88.9999999850988,6.6));
#1695=CARTESIAN_POINT('',(-48.9488284044203,88.9999999850988,6.6));
#1696=CARTESIAN_POINT('Origin',(-50.9488284342226,88.409102814606,6.6));
#1697=CARTESIAN_POINT('Origin',(-48.9488284044203,77.999999821186,6.6));
#1698=CARTESIAN_POINT('',(-48.9488284044203,77.999999821186,0.));
#1699=CARTESIAN_POINT('',(-48.9488284044203,87.749999910593,0.));
#1700=CARTESIAN_POINT('',(-48.9488284044203,77.999999821186,6.6));
#1701=CARTESIAN_POINT('',(-48.9488284044203,77.999999821186,6.6));
#1702=CARTESIAN_POINT('',(-48.9488284044203,72.749999910593,6.6));
#1703=CARTESIAN_POINT('Origin',(-50.9488284342226,79.0298513922686,6.6));
#1704=CARTESIAN_POINT('Origin',(-50.9488284342226,79.0298513922686,0.));
#1705=CARTESIAN_POINT('Origin',(-50.9488284342226,79.0298513922686,6.6));
#1706=CARTESIAN_POINT('Origin',(-13.4410098974635,69.8416221446848,6.6));
#1707=CARTESIAN_POINT('',(-29.9225812269959,70.6212416092545,0.));
#1708=CARTESIAN_POINT('',(-24.7260225257747,81.8790010113176,0.));
#1709=CARTESIAN_POINT('Origin',(-13.4410098974635,69.8416221446848,0.));
#1710=CARTESIAN_POINT('',(-29.9225812269959,70.6212416092545,6.6));
#1711=CARTESIAN_POINT('',(-29.9225812269959,70.6212416092545,6.6));
#1712=CARTESIAN_POINT('',(-24.7260225257747,81.8790010113176,6.6));
#1713=CARTESIAN_POINT('Origin',(-13.4410098974635,69.8416221446848,6.6));
#1714=CARTESIAN_POINT('',(-24.7260225257747,81.8790010113176,6.6));
#1715=CARTESIAN_POINT('Origin',(-16.7071508430182,97.5,0.));
#1716=CARTESIAN_POINT('',(-51.9744139861432,94.9999999999999,2.94902990916057E-16));
#1717=CARTESIAN_POINT('',(-13.3886275485158,95.,2.94902990916057E-16));
#1718=CARTESIAN_POINT('',(-19.1452525507776,95.,2.94902990916057E-16));
#1719=CARTESIAN_POINT('',(-9.97441398614331,91.5857864376275,0.));
#1720=CARTESIAN_POINT('',(-12.6815207673298,94.292893218814,0.));
#1721=CARTESIAN_POINT('',(-9.97441398614331,78.4636898779671,1.11022302462516E-15));
#1722=CARTESIAN_POINT('',(-9.97441398614331,85.25,0.));
#1723=CARTESIAN_POINT('',(-18.9744139861433,69.4636898779671,0.));
#1724=CARTESIAN_POINT('',(-8.62944313934558,79.8086607247648,2.22044604925031E-15));
#1725=CARTESIAN_POINT('',(-18.9744139861433,42.4,0.));
#1726=CARTESIAN_POINT('',(-18.9744139861433,57.23093857059,0.));
#1727=CARTESIAN_POINT('',(-20.3744139861432,41.,0.));
#1728=CARTESIAN_POINT('',(-18.9744139861433,42.4,0.));
#1729=CARTESIAN_POINT('',(-38.7064647937108,41.,0.));
#1730=CARTESIAN_POINT('',(-6.31609111541186,41.,0.));
#1731=CARTESIAN_POINT('',(-54.4744139861435,50.1036297108189,2.94902990916057E-16));
#1732=CARTESIAN_POINT('',(-36.4314675606369,39.6865297350789,0.));
#1733=CARTESIAN_POINT('',(-55.9744139861433,52.7017059221721,1.47451495458029E-16));
#1734=CARTESIAN_POINT('',(-52.2210482783197,46.2006858168349,2.94902990916057E-16));
#1735=CARTESIAN_POINT('',(-55.9744139861433,91.0000000000001,1.47451495458029E-16));
#1736=CARTESIAN_POINT('',(-55.9744139861433,87.2821838244619,0.));
#1737=CARTESIAN_POINT('',(-49.9348332684605,97.039580717683,2.94902990916057E-16));
#1738=CARTESIAN_POINT('',(-44.9488283448156,65.9999996423721,0.));
#1739=CARTESIAN_POINT('',(-44.9488283448156,56.9999995082616,0.));
#1740=CARTESIAN_POINT('',(-44.9488283448156,77.2499997541308,0.));
#1741=CARTESIAN_POINT('',(-48.9488284044203,65.9999996423721,0.));
#1742=CARTESIAN_POINT('Origin',(-46.9488283746179,65.9999996423721,0.));
#1743=CARTESIAN_POINT('',(-48.9488284044203,56.9999995082616,0.));
#1744=CARTESIAN_POINT('',(-48.9488284044203,81.749999821186,0.));
#1745=CARTESIAN_POINT('Origin',(-46.9488283746179,56.9999995082616,0.));
#1746=CARTESIAN_POINT('',(-24.4130438607003,82.2171942853396,0.));
#1747=CARTESIAN_POINT('Origin',(-26.9488280765947,84.2499999143183,0.));
#1748=CARTESIAN_POINT('',(-23.2642521371298,83.5198798052367,0.));
#1749=CARTESIAN_POINT('Origin',(-9.9785800776222,70.6458393389643,0.));
#1750=CARTESIAN_POINT('',(-23.6198420862186,87.7907813044183,0.));
#1751=CARTESIAN_POINT('Origin',(-25.3076841679735,85.4999999329447,0.));
#1752=CARTESIAN_POINT('',(-24.6408568134686,88.5510180786833,0.));
#1753=CARTESIAN_POINT('Origin',(51.4168947334138,189.632512080467,0.));
#1754=CARTESIAN_POINT('',(-29.9682247397157,91.1904896001486,0.));
#1755=CARTESIAN_POINT('Origin',(-34.3545033424805,75.6414870527425,0.));
#1756=CARTESIAN_POINT('',(-32.7033408499672,92.14768300474,0.));
#1757=CARTESIAN_POINT('Origin',(-23.5880182186681,113.8078051957,0.));
#1758=CARTESIAN_POINT('',(-38.9488282554087,87.9999999701976,0.));
#1759=CARTESIAN_POINT('Origin',(-34.4488281883535,87.9999999701976,0.));
#1760=CARTESIAN_POINT('',(-38.9488282554087,65.9999996423721,0.));
#1761=CARTESIAN_POINT('',(-38.9488282554087,92.7499999850988,0.));
#1762=CARTESIAN_POINT('',(-29.9488281212982,65.9999996423721,0.));
#1763=CARTESIAN_POINT('Origin',(-34.4488281883534,65.9999996423721,0.));
#1764=CARTESIAN_POINT('',(-29.9488281212982,69.5108744930492,0.));
#1765=CARTESIAN_POINT('',(-29.9488281212982,81.749999821186,0.));
#1766=CARTESIAN_POINT('Origin',(-6.44882812129821,69.5108744930492,0.));
#1767=CARTESIAN_POINT('',(-21.3744139861433,85.,0.));
#1768=CARTESIAN_POINT('Origin',(-16.4744139861433,85.,0.));
#1769=CARTESIAN_POINT('',(-45.8244139861432,84.9352380952379,0.));
#1770=CARTESIAN_POINT('Origin',(-44.5744139861432,84.9352380952379,0.));
#1771=CARTESIAN_POINT('',(-21.3244139861433,77.001137550498,0.));
#1772=CARTESIAN_POINT('Origin',(-22.9744139861433,77.001137550498,0.));
#1773=CARTESIAN_POINT('',(-48.1744139861432,71.4999999999999,0.));
#1774=CARTESIAN_POINT('Origin',(-46.9744139861432,71.4999999999999,0.));
#1775=CARTESIAN_POINT('',(-34.8814139861433,58.38,0.));
#1776=CARTESIAN_POINT('Origin',(-33.6814139861433,58.38,0.));
#1777=CARTESIAN_POINT('',(-21.3244139861433,44.998862449502,0.));
#1778=CARTESIAN_POINT('Origin',(-22.9744139861433,44.998862449502,0.));
#1779=CARTESIAN_POINT('',(-21.3244139861433,61.,0.));
#1780=CARTESIAN_POINT('Origin',(-22.9744139861433,61.,0.));
#1781=CARTESIAN_POINT('',(-48.1189039638591,52.5262932260639,0.));
#1782=CARTESIAN_POINT('Origin',(-46.8689039638591,52.5262932260639,0.));
#1783=CARTESIAN_POINT('',(-29.9488281212982,44.9999993294477,0.));
#1784=CARTESIAN_POINT('',(-38.9488282554086,44.9999993294477,0.));
#1785=CARTESIAN_POINT('',(-27.8279895492134,44.9999993294477,0.));
#1786=CARTESIAN_POINT('',(-29.9488281212982,51.9999994337558,0.));
#1787=CARTESIAN_POINT('Origin',(-30.8224249047918,48.4999993816018,0.));
#1788=CARTESIAN_POINT('',(-38.9488282554086,51.9999994337558,0.));
#1789=CARTESIAN_POINT('',(-23.3279894821582,51.9999994337559,0.));
#1790=CARTESIAN_POINT('Origin',(-38.9488282554086,48.4999993816018,0.));
#1791=CARTESIAN_POINT('Origin',(-6.44882812129821,69.5108744930492,6.6));
#1792=CARTESIAN_POINT('',(-29.9488281212982,69.5108744930492,6.6));
#1793=CARTESIAN_POINT('',(-29.9488281212982,69.5108744930492,6.6));
#1794=CARTESIAN_POINT('Origin',(-6.44882812129821,69.5108744930492,6.6));
#1795=CARTESIAN_POINT('Origin',(-9.9785800776222,70.6458393389643,6.6));
#1796=CARTESIAN_POINT('',(-24.4130438607003,82.2171942853396,6.6));
#1797=CARTESIAN_POINT('',(-24.4130438607003,82.2171942853396,6.6));
#1798=CARTESIAN_POINT('',(-23.2642521371298,83.5198798052367,6.6));
#1799=CARTESIAN_POINT('Origin',(-9.9785800776222,70.6458393389643,6.6));
#1800=CARTESIAN_POINT('',(-23.2642521371298,83.5198798052367,6.6));
#1801=CARTESIAN_POINT('Origin',(-25.3076841679735,85.4999999329447,6.6));
#1802=CARTESIAN_POINT('',(-23.6198420862186,87.7907813044183,6.6));
#1803=CARTESIAN_POINT('Origin',(-25.3076841679735,85.4999999329447,6.6));
#1804=CARTESIAN_POINT('',(-23.6198420862186,87.7907813044183,6.6));
#1805=CARTESIAN_POINT('Origin',(51.4168947334138,189.632512080467,6.6));
#1806=CARTESIAN_POINT('',(-24.6408568134686,88.5510180786833,6.6));
#1807=CARTESIAN_POINT('Origin',(51.4168947334138,189.632512080467,6.6));
#1808=CARTESIAN_POINT('',(-24.6408568134686,88.5510180786833,6.6));
#1809=CARTESIAN_POINT('Origin',(-34.3545033424805,75.6414870527425,6.6));
#1810=CARTESIAN_POINT('',(-29.9682247397157,91.1904896001486,6.6));
#1811=CARTESIAN_POINT('Origin',(-34.3545033424805,75.6414870527425,6.6));
#1812=CARTESIAN_POINT('',(-29.9682247397157,91.1904896001486,6.6));
#1813=CARTESIAN_POINT('Origin',(-23.5880182186681,113.8078051957,6.6));
#1814=CARTESIAN_POINT('',(-32.7033408499672,92.14768300474,6.6));
#1815=CARTESIAN_POINT('Origin',(-23.5880182186681,113.8078051957,6.6));
#1816=CARTESIAN_POINT('',(-32.7033408499672,92.14768300474,6.6));
#1817=CARTESIAN_POINT('Origin',(-29.9488281212982,51.9999994337558,6.6));
#1818=CARTESIAN_POINT('',(-29.9488281212982,51.9999994337558,6.6));
#1819=CARTESIAN_POINT('',(-29.9488281212982,51.9999994337558,6.6));
#1820=CARTESIAN_POINT('',(-38.9488282554086,51.9999994337558,6.6));
#1821=CARTESIAN_POINT('',(-30.9616210537207,51.9999994337558,6.6));
#1822=CARTESIAN_POINT('',(-38.9488282554086,51.9999994337558,6.6));
#1823=CARTESIAN_POINT('Origin',(-30.8224249047918,48.4999993816018,6.6));
#1824=CARTESIAN_POINT('',(-29.9488281212982,44.9999993294477,6.6));
#1825=CARTESIAN_POINT('',(-29.9488281212982,44.9999993294477,6.6));
#1826=CARTESIAN_POINT('Origin',(-30.8224249047918,48.4999993816018,6.6));
#1827=CARTESIAN_POINT('Origin',(-38.9488282554086,44.9999993294477,6.6));
#1828=CARTESIAN_POINT('',(-38.9488282554086,44.9999993294477,6.6));
#1829=CARTESIAN_POINT('',(-38.9488282554086,44.9999993294477,6.6));
#1830=CARTESIAN_POINT('',(-35.4616211207759,44.9999993294477,6.6));
#1831=CARTESIAN_POINT('Origin',(-38.9488282554086,48.4999993816018,6.6));
#1832=CARTESIAN_POINT('Origin',(-38.9488282554086,48.4999993816018,6.6));
#1833=CARTESIAN_POINT('Origin',(-26.9488280765947,84.2499999143183,6.6));
#1834=CARTESIAN_POINT('Origin',(-26.9488280765947,84.2499999143183,6.6));
#1835=CARTESIAN_POINT('Origin',(-31.9744139861433,67.5,6.6));
#1836=CARTESIAN_POINT('',(-54.4744139861433,50.103629710819,6.59999992208529));
#1837=CARTESIAN_POINT('',(-38.7064647937108,41.,6.60000000000001));
#1838=CARTESIAN_POINT('',(-46.0533386371611,45.2417195912179,6.6));
#1839=CARTESIAN_POINT('',(-20.3744139861433,41.,6.60000000000001));
#1840=CARTESIAN_POINT('',(-31.9744139861433,41.,6.60000000000001));
#1841=CARTESIAN_POINT('',(-18.9744139861433,42.4,6.60000000000001));
#1842=CARTESIAN_POINT('',(-15.9494139861432,45.425,6.60000000000001));
#1843=CARTESIAN_POINT('',(-18.9744139861433,69.4636898779671,6.60000000000001));
#1844=CARTESIAN_POINT('',(-18.9744139861433,62.365469285295,6.60000000000001));
#1845=CARTESIAN_POINT('',(-9.97441398614331,78.4636898779671,6.6));
#1846=CARTESIAN_POINT('',(-19.9462589251269,68.4918449389835,6.6));
#1847=CARTESIAN_POINT('',(-9.97441398614331,91.5857864376277,6.60000000000001));
#1848=CARTESIAN_POINT('',(-9.9744139861433,70.25,6.6));
#1849=CARTESIAN_POINT('',(-13.3886275485161,95.0000000000001,6.600000051945));
#1850=CARTESIAN_POINT('',(-10.8065207673296,92.417893218814,6.60000000000001));
#1851=CARTESIAN_POINT('',(-51.9744139861432,94.9999999999999,6.5999999220853));
#1852=CARTESIAN_POINT('',(-20.2244142245618,95.,6.60000010430813));
#1853=CARTESIAN_POINT('',(-55.9744139861433,90.9999999999998,6.60000000000001));
#1854=CARTESIAN_POINT('',(-56.3494139861432,90.6249999999999,6.60000000000001));
#1855=CARTESIAN_POINT('',(-55.9744139861433,52.7017059221718,6.60000000000001));
#1856=CARTESIAN_POINT('',(-55.9744139861433,72.2821838244619,6.6));
#1857=CARTESIAN_POINT('',(-55.4283386371612,51.7558756729739,6.60000000000001));
#1858=CARTESIAN_POINT('',(-29.9488281212982,65.9999996423721,6.6));
#1859=CARTESIAN_POINT('',(-29.9488281212982,66.749999821186,6.6));
#1860=CARTESIAN_POINT('',(-38.9488282554087,65.9999996423721,6.6));
#1861=CARTESIAN_POINT('Origin',(-34.4488281883534,65.9999996423721,6.6));
#1862=CARTESIAN_POINT('',(-38.9488282554087,87.9999999701976,6.6));
#1863=CARTESIAN_POINT('',(-38.9488282554087,77.7499999850988,6.6));
#1864=CARTESIAN_POINT('Origin',(-34.4488281883535,87.9999999701976,6.6));
#1865=CARTESIAN_POINT('',(-13.8244139861433,85.,6.6));
#1866=CARTESIAN_POINT('Origin',(-16.4744139861433,85.,6.6));
#1867=CARTESIAN_POINT('',(-25.9244139861433,44.998862449502,6.6));
#1868=CARTESIAN_POINT('Origin',(-22.9744139861433,44.998862449502,6.6));
#1869=CARTESIAN_POINT('',(-25.9244139861433,61.,6.6));
#1870=CARTESIAN_POINT('Origin',(-22.9744139861433,61.,6.6));
#1871=CARTESIAN_POINT('',(-36.1814139861433,58.38,6.6));
#1872=CARTESIAN_POINT('Origin',(-33.6814139861433,58.38,6.6));
#1873=CARTESIAN_POINT('',(-25.9244139861433,77.001137550498,6.60000010430813));
#1874=CARTESIAN_POINT('Origin',(-22.9744139861433,77.001137550498,6.60000010430813));
#1875=CARTESIAN_POINT('',(-45.8244139861432,84.9352380952379,6.6));
#1876=CARTESIAN_POINT('Origin',(-44.5744139861432,84.9352380952379,6.6));
#1877=CARTESIAN_POINT('',(-49.4744139861432,71.4999999999999,6.6));
#1878=CARTESIAN_POINT('Origin',(-46.9744139861432,71.4999999999999,6.6));
#1879=CARTESIAN_POINT('',(-48.1189039638591,52.5262932260639,6.6));
#1880=CARTESIAN_POINT('Origin',(-46.8689039638591,52.5262932260639,6.6));
#1881=CARTESIAN_POINT('',(-44.9488283448156,56.9999995082616,6.6));
#1882=CARTESIAN_POINT('',(-44.9488283448156,65.9999996423721,6.6));
#1883=CARTESIAN_POINT('',(-44.9488283448156,62.2499997541308,6.6));
#1884=CARTESIAN_POINT('',(-48.9488284044203,56.9999995082616,6.6));
#1885=CARTESIAN_POINT('Origin',(-46.9488283746179,56.9999995082616,6.6));
#1886=CARTESIAN_POINT('',(-48.9488284044203,65.9999996423721,6.6));
#1887=CARTESIAN_POINT('',(-48.9488284044203,66.749999821186,6.6));
#1888=CARTESIAN_POINT('Origin',(-46.9488283746179,65.9999996423721,6.6));
#1889=CARTESIAN_POINT('Origin',(-48.9488284044203,65.9999996423721,6.6));
#1890=CARTESIAN_POINT('',(-48.9488284044203,65.9999996423721,6.6));
#1891=CARTESIAN_POINT('',(-48.9488284044203,56.9999995082616,6.6));
#1892=CARTESIAN_POINT('Origin',(-46.9488283746179,65.9999996423721,6.6));
#1893=CARTESIAN_POINT('',(-44.9488283448156,65.9999996423721,6.6));
#1894=CARTESIAN_POINT('Origin',(-44.9488283448156,56.9999995082616,6.6));
#1895=CARTESIAN_POINT('',(-44.9488283448156,56.9999995082616,6.6));
#1896=CARTESIAN_POINT('Origin',(-46.9488283746179,56.9999995082616,6.6));
#1897=CARTESIAN_POINT('Origin',(-29.9488281212982,65.9999996423721,6.6));
#1898=CARTESIAN_POINT('',(-29.9488281212982,65.9999996423721,6.6));
#1899=CARTESIAN_POINT('Origin',(-34.4488281883534,65.9999996423721,6.6));
#1900=CARTESIAN_POINT('',(-38.9488282554087,65.9999996423721,6.6));
#1901=CARTESIAN_POINT('Origin',(-38.9488282554087,87.9999999701976,6.6));
#1902=CARTESIAN_POINT('',(-38.9488282554087,87.9999999701976,6.6));
#1903=CARTESIAN_POINT('Origin',(-34.4488281883535,87.9999999701976,6.6));
#1904=CARTESIAN_POINT('Origin',(-31.9744139861433,95.,33.6));
#1905=CARTESIAN_POINT('',(-51.9744139861432,94.9999999999999,33.6));
#1906=CARTESIAN_POINT('',(-13.3886275485164,95.,33.6));
#1907=CARTESIAN_POINT('Origin',(-31.9744139861433,68.5,3.));
#1908=CARTESIAN_POINT('',(-21.3744139861433,85.,3.));
#1909=CARTESIAN_POINT('Origin',(-16.4744139861433,85.,3.));
#1910=CARTESIAN_POINT('',(-13.8244139861433,85.,3.));
#1911=CARTESIAN_POINT('Origin',(-16.4744139861433,85.,3.));
#1912=CARTESIAN_POINT('Origin',(-32.4744139861433,67.999431224751,3.6));
#1913=CARTESIAN_POINT('',(-25.9244139861433,77.001137550498,3.6));
#1914=CARTESIAN_POINT('Origin',(-22.9744139861433,77.001137550498,3.6));
#1915=CARTESIAN_POINT('',(-21.3244139861433,77.001137550498,3.6));
#1916=CARTESIAN_POINT('Origin',(-22.9744139861433,77.001137550498,3.6));
#1917=CARTESIAN_POINT('Origin',(-31.8744139861433,66.9975125,3.));
#1918=CARTESIAN_POINT('',(-49.4744139861432,71.4999999999999,3.));
#1919=CARTESIAN_POINT('Origin',(-46.9744139861432,71.4999999999999,3.));
#1920=CARTESIAN_POINT('',(-48.1744139861432,71.4999999999999,3.));
#1921=CARTESIAN_POINT('Origin',(-46.9744139861432,71.4999999999999,3.));
#1922=CARTESIAN_POINT('Origin',(-31.8744139861433,66.9975125,3.));
#1923=CARTESIAN_POINT('',(-36.1814139861433,58.38,3.));
#1924=CARTESIAN_POINT('Origin',(-33.6814139861433,58.38,3.));
#1925=CARTESIAN_POINT('',(-34.8814139861433,58.38,3.));
#1926=CARTESIAN_POINT('Origin',(-33.6814139861433,58.38,3.));
#1927=CARTESIAN_POINT('Origin',(-32.4744139861433,67.999431224751,3.2));
#1928=CARTESIAN_POINT('',(-25.9244139861433,44.998862449502,3.2));
#1929=CARTESIAN_POINT('Origin',(-22.9744139861433,44.998862449502,3.2));
#1930=CARTESIAN_POINT('',(-21.3244139861433,44.998862449502,3.2));
#1931=CARTESIAN_POINT('Origin',(-22.9744139861433,44.998862449502,3.2));
#1932=CARTESIAN_POINT('Origin',(-32.4744139861433,67.999431224751,3.2));
#1933=CARTESIAN_POINT('',(-25.9244139861433,61.,3.2));
#1934=CARTESIAN_POINT('Origin',(-22.9744139861433,61.,3.2));
#1935=CARTESIAN_POINT('',(-21.3244139861433,61.,3.2));
#1936=CARTESIAN_POINT('Origin',(-22.9744139861433,61.,3.2));
#1937=CARTESIAN_POINT('Origin',(-16.4744139861433,85.,33.6));
#1938=CARTESIAN_POINT('',(-13.8244139861433,85.,33.6));
#1939=CARTESIAN_POINT('Origin',(-22.9744139861433,44.998862449502,3.6));
#1940=CARTESIAN_POINT('',(-25.9244139861433,44.998862449502,3.6));
#1941=CARTESIAN_POINT('Origin',(-22.9744139861433,61.,3.6));
#1942=CARTESIAN_POINT('',(-25.9244139861433,61.,3.6));
#1943=CARTESIAN_POINT('Origin',(-33.6814139861433,58.38,25.));
#1944=CARTESIAN_POINT('',(-36.1814139861433,58.38,25.));
#1945=CARTESIAN_POINT('Origin',(-22.9744139861433,77.001137550498,3.6));
#1946=CARTESIAN_POINT('',(-25.9244139861433,77.001137550498,3.6));
#1947=CARTESIAN_POINT('Origin',(-46.9744139861432,71.4999999999999,-8.4));
#1948=CARTESIAN_POINT('',(-49.4744139861432,71.4999999999999,-8.4));
#1949=CARTESIAN_POINT('Origin',(-16.4744139861433,85.,-18.4));
#1950=CARTESIAN_POINT('',(-21.3744139861433,85.,-18.4));
#1951=CARTESIAN_POINT('Origin',(-44.5744139861432,84.9352380952379,-0.4));
#1952=CARTESIAN_POINT('',(-45.8244139861432,84.9352380952379,-0.4));
#1953=CARTESIAN_POINT('Origin',(-22.9744139861433,77.001137550498,6.602));
#1954=CARTESIAN_POINT('',(-21.3244139861433,77.001137550498,6.602));
#1955=CARTESIAN_POINT('Origin',(-46.9744139861432,71.4999999999999,3.));
#1956=CARTESIAN_POINT('',(-48.1744139861432,71.4999999999999,3.));
#1957=CARTESIAN_POINT('Origin',(-33.6814139861433,58.38,3.));
#1958=CARTESIAN_POINT('',(-34.8814139861433,58.38,3.));
#1959=CARTESIAN_POINT('Origin',(-22.9744139861433,44.998862449502,6.602));
#1960=CARTESIAN_POINT('',(-21.3244139861433,44.998862449502,6.602));
#1961=CARTESIAN_POINT('Origin',(-22.9744139861433,61.,6.602));
#1962=CARTESIAN_POINT('',(-21.3244139861433,61.,6.602));
#1963=CARTESIAN_POINT('Origin',(-46.8689039638591,52.5262932260639,-0.4));
#1964=CARTESIAN_POINT('',(-48.1189039638591,52.5262932260639,-0.4));
#1965=CARTESIAN_POINT('Origin',(-18.9744139861433,57.23093857059,33.6));
#1966=CARTESIAN_POINT('',(-18.9744139861433,69.4636898779671,33.6));
#1967=CARTESIAN_POINT('',(-18.9744139861433,42.4,33.6));
#1968=CARTESIAN_POINT('Origin',(-18.9744139861433,42.4,33.6));
#1969=CARTESIAN_POINT('',(-20.3744139861432,41.,33.6));
#1970=CARTESIAN_POINT('Origin',(-31.9744139861433,41.,33.6));
#1971=CARTESIAN_POINT('',(-38.7064647937122,41.,33.6));
#1972=CARTESIAN_POINT('Origin',(-46.9744139861432,45.7735026918969,-0.399999999999993));
#1973=CARTESIAN_POINT('',(-54.4744139861432,50.1036297108189,33.6));
#1974=CARTESIAN_POINT('Origin',(-54.4744139861432,50.1036297108189,33.6));
#1975=CARTESIAN_POINT('',(-55.9744139861433,52.7017059221724,33.6));
#1976=CARTESIAN_POINT('Origin',(-55.9744139861433,77.0643676489239,33.6));
#1977=CARTESIAN_POINT('',(-55.9744139861433,90.9999999999999,33.6));
#1978=CARTESIAN_POINT('Origin',(-56.9744139861433,89.9999999999999,33.6));
#1979=CARTESIAN_POINT('Origin',(-12.6815207673298,94.292893218814,33.6));
#1980=CARTESIAN_POINT('',(-9.97441398614331,91.5857864376275,33.6));
#1981=CARTESIAN_POINT('Origin',(-13.4362589251269,75.0018449389836,33.6));
#1982=CARTESIAN_POINT('',(-9.97441398614331,78.4636898779671,33.6));
#1983=CARTESIAN_POINT('Origin',(-9.9744139861433,73.,33.6));
#1984=CARTESIAN_POINT('',(0.,-60.,0.));
#1985=UNCERTAINTY_MEASURE_WITH_UNIT(LENGTH_MEASURE(0.01),#1991,
'DISTANCE_ACCURACY_VALUE',
'Maximum model space distance between geometric entities at asserted c
onnectivities');
#1986=UNCERTAINTY_MEASURE_WITH_UNIT(LENGTH_MEASURE(0.01),#1991,
'DISTANCE_ACCURACY_VALUE',
'Maximum model space distance between geometric entities at asserted c
onnectivities');
#1987=UNCERTAINTY_MEASURE_WITH_UNIT(LENGTH_MEASURE(0.01),#1991,
'DISTANCE_ACCURACY_VALUE',
'Maximum model space distance between geometric entities at asserted c
onnectivities');
#1988=(
GEOMETRIC_REPRESENTATION_CONTEXT(3)
GLOBAL_UNCERTAINTY_ASSIGNED_CONTEXT((#1985))
GLOBAL_UNIT_ASSIGNED_CONTEXT((#1991,#1993,#1994))
REPRESENTATION_CONTEXT('','3D')
);
#1989=(
GEOMETRIC_REPRESENTATION_CONTEXT(3)
GLOBAL_UNCERTAINTY_ASSIGNED_CONTEXT((#1986))
GLOBAL_UNIT_ASSIGNED_CONTEXT((#1991,#1993,#1994))
REPRESENTATION_CONTEXT('','3D')
);
#1990=(
GEOMETRIC_REPRESENTATION_CONTEXT(3)
GLOBAL_UNCERTAINTY_ASSIGNED_CONTEXT((#1987))
GLOBAL_UNIT_ASSIGNED_CONTEXT((#1991,#1993,#1994))
REPRESENTATION_CONTEXT('','3D')
);
#1991=(
LENGTH_UNIT()
NAMED_UNIT(*)
SI_UNIT(.MILLI.,.METRE.)
);
#1992=(
LENGTH_UNIT()
NAMED_UNIT(*)
SI_UNIT($,.METRE.)
);
#1993=(
NAMED_UNIT(*)
PLANE_ANGLE_UNIT()
SI_UNIT($,.RADIAN.)
);
#1994=(
NAMED_UNIT(*)
SI_UNIT($,.STERADIAN.)
SOLID_ANGLE_UNIT()
);
#1995=SHAPE_DEFINITION_REPRESENTATION(#1997,#2000);
#1996=SHAPE_DEFINITION_REPRESENTATION(#1998,#2001);
#1997=PRODUCT_DEFINITION_SHAPE('',$,#2003);
#1998=PRODUCT_DEFINITION_SHAPE('',$,#2004);
#1999=PRODUCT_DEFINITION_SHAPE($,$,#14);
#2000=SHAPE_REPRESENTATION('',(#1177,#1304),#1988);
#2001=SHAPE_REPRESENTATION('',(#1178),#1989);
#2002=PRODUCT_DEFINITION_CONTEXT('part definition',#2010,'design');
#2003=PRODUCT_DEFINITION('(\X2\672A4FDD5B58\X0\)','(\X2\672A4FDD5B58\X0\)',
#2005,#2002);
#2004=PRODUCT_DEFINITION('left_bottom_MGN9_r1','left_bottom v1 v2',#2006,
#2002);
#2005=PRODUCT_DEFINITION_FORMATION('',$,#2012);
#2006=PRODUCT_DEFINITION_FORMATION('',$,#2013);
#2007=PRODUCT_RELATED_PRODUCT_CATEGORY('(\X2\672A4FDD5B58\X0\)',
'(\X2\672A4FDD5B58\X0\)',(#2012));
#2008=PRODUCT_RELATED_PRODUCT_CATEGORY('left_bottom v1 v2',
'left_bottom v1 v2',(#2013));
#2009=APPLICATION_PROTOCOL_DEFINITION('international standard',
'automotive_design',2009,#2010);
#2010=APPLICATION_CONTEXT(
'Core Data for Automotive Mechanical Design Process');
#2011=PRODUCT_CONTEXT('part definition',#2010,'mechanical');
#2012=PRODUCT('(\X2\672A4FDD5B58\X0\)','(\X2\672A4FDD5B58\X0\)',$,(#2011));
#2013=PRODUCT('left_bottom_MGN9_r1','left_bottom v1 v2',
'left_bottom_MGN9_r1',(#2011));
#2014=PRESENTATION_STYLE_ASSIGNMENT((#2016));
#2015=PRESENTATION_STYLE_ASSIGNMENT((#2017));
#2016=SURFACE_STYLE_USAGE(.BOTH.,#2018);
#2017=SURFACE_STYLE_USAGE(.BOTH.,#2019);
#2018=SURFACE_SIDE_STYLE('',(#2020));
#2019=SURFACE_SIDE_STYLE('',(#2021));
#2020=SURFACE_STYLE_FILL_AREA(#2022);
#2021=SURFACE_STYLE_FILL_AREA(#2023);
#2022=FILL_AREA_STYLE('\X2\94A2\X0\ - \X2\7F0E5149\X0\',(#2024));
#2023=FILL_AREA_STYLE('Opaque(60,59,59)',(#2025));
#2024=FILL_AREA_STYLE_COLOUR('\X2\94A2\X0\ - \X2\7F0E5149\X0\',#2026);
#2025=FILL_AREA_STYLE_COLOUR('Opaque(60,59,59)',#2027);
#2026=COLOUR_RGB('\X2\94A2\X0\ - \X2\7F0E5149\X0\',0.627450980392157,0.627450980392157,
0.627450980392157);
#2027=COLOUR_RGB('Opaque(60,59,59)',0.235294117647059,0.231372549019608,
0.231372549019608);
ENDSEC;
END-ISO-10303-21;
